<?xml version="1.0" encoding="UTF-8"?>
<!DOCTYPE svg PUBLIC "-//W3C//DTD SVG 1.1//EN" "http://www.w3.org/Graphics/SVG/1.1/DTD/svg11.dtd">
<!-- Creator: CorelDRAW 2018 (64-Bit) -->
<svg xmlns="http://www.w3.org/2000/svg" xml:space="preserve" width="210mm" height="297mm" version="1.1" style="shape-rendering:geometricPrecision; text-rendering:geometricPrecision; image-rendering:optimizeQuality; fill-rule:evenodd; clip-rule:evenodd"
viewBox="0 0 21000 29700"
 xmlns:xlink="http://www.w3.org/1999/xlink">
 <defs>
  <style type="text/css">
   <![CDATA[
    .fil0 {fill:#373435}
    .fil2 {fill:#F4D697}
    .fil1 {fill:#FEFEFE}
   ]]>
  </style>
 </defs>
 <g id="cypek_x0020_2">
  <metadata id="CorelCorpID_0Corel-Layer"/>
  <path class="fil0" d="M12223.5 14992.78c6.88,78.59 1545.06,1100.91 1593.06,1131.37 287.35,182.52 560.82,369.38 836.22,562.72 145.23,101.99 124.01,75.82 271.42,202.82 -38.76,53.9 -179.58,147.16 -240.83,195.45 102.34,72.13 207.87,53.77 303.47,-13.31 55.79,-39.11 178.73,-133.92 279.55,-116.98 80.87,13.59 164.98,157.22 131.74,255.31l-159.05 249.09c-5.86,204.62 140.79,273.57 247.96,356.42 63.23,48.91 109.82,79.07 168.64,131.04 60.08,53.14 103.73,85.5 152.2,147.76 136.94,175.7 -11.82,296.69 -227.93,190.59 -103.95,-51 -262.75,-155.96 -370.77,-219.1 65.54,114.67 168.99,207.97 250.04,313.59 40.81,53.24 235.79,304.79 106.16,388.65 -139.68,90.36 -465.67,-324.66 -569.3,-416.37l-86.51 -66.01c6.46,100.6 326.52,750.55 63.17,698.58 -140.63,-27.72 -324.98,-444.89 -392.85,-573 -4.98,59.26 27.88,191.06 38.13,255.34 13.37,84.78 28.48,193.9 5.55,275.81 -32.26,115.11 -111.17,77.14 -158.64,3.81 -156.24,-241.55 -294.92,-808.08 -396.5,-1122.74l-162.43 283.69c-103.16,19.93 -271.95,-135.65 -347.49,-198.32 -166.65,-138.14 -451.57,-382.66 -614.12,-494.97l-1445.03 -983.57c-218.06,624.79 729.93,-1437.73 724.14,-1437.67zm2382.06 2127.84c119.98,1.42 289.21,121.99 396.98,12.52 39.36,-40.02 71.22,-88.5 137.04,-117.7 75.88,-33.65 144.95,-12.27 189.73,31.09 110.01,106.64 -32.86,248.06 -104.55,327.09 -69,76.1 -320.81,57.37 -229.41,238.72l163.59 -52.14c43.18,75.76 71.03,135.12 133.7,195.39 47.87,46.08 129.21,107.04 182.67,144.48 78.34,54.84 349.16,219.41 297.44,348.56l-615.98 -288.61 55.03 222.16c56.52,126.5 356.33,395.62 319.71,524.99l-197.78 -83.83c-103.76,-63.71 -342.42,-402.97 -447.72,-432.8l-17.44 189.07c9.43,82.35 244.89,443.88 99.5,543.19l-123.76 -128.23c-63.64,-82.73 -197.97,-451.51 -276.06,-483.49l7.6 363.48c4.23,35.26 76.77,267.07 -61.68,225.76 -91.66,-27.38 -309.75,-855.87 -356.33,-1027.6 -49.89,-184.12 -50.68,-174.63 56.42,-301.03 67.75,-79.99 132.28,-145.75 202.55,-224.62 65.6,-73.65 126.81,-152.11 188.75,-226.45zm-2364.8 -1945.81c1060.98,738.73 1001.98,638.84 1422.33,929.44 98.21,67.87 185.96,132.65 281.27,200.84 157.59,112.75 234.26,191.63 415.49,311.57l426.27 292.02c-109.09,86.73 -171.98,136.69 -275.99,231.71 -208.09,190.18 -412.12,466.59 -567.23,705.21 -29.39,45.19 -76.7,128.46 -110.7,148.29l-577.94 -426.56c-150.6,-110.76 -446.43,-312.83 -548.08,-451.28 -106.04,-144.29 -954.01,-555.03 -949.66,-790.98 6.59,-363.76 559.46,-794.7 484.24,-1150.26z"/>
  <path class="fil1" d="M12240.76 15174.81l177.28 290.56 84.59 354.69c75.22,355.56 -900.92,27.48 -907.51,391.24 -4.35,235.95 1005.02,760.46 1111.06,904.75 101.65,138.45 397.48,340.52 548.08,451.28l577.94 426.56c34,-19.83 81.31,-103.1 110.7,-148.29 155.11,-238.62 359.14,-515.03 567.23,-705.21 104.01,-95.02 166.9,-144.98 275.99,-231.71l-426.27 -292.02c-181.23,-119.94 -257.9,-198.82 -415.49,-311.57 -95.31,-68.19 -183.06,-132.97 -281.27,-200.84 -235.72,-162.96 -758.04,-500.45 -1422.33,-929.44z"/>
  <path class="fil2" d="M14605.56 17120.62c-61.94,74.34 -123.15,152.8 -188.75,226.45 -70.27,78.87 -134.8,144.63 -202.55,224.62 -107.1,126.4 -106.31,116.91 -56.42,301.03 46.58,171.73 264.67,1000.22 356.33,1027.6 138.45,41.31 65.91,-190.5 61.68,-225.76l-7.6 -363.48c78.09,31.98 212.42,400.76 276.06,483.49l123.76 128.23c145.39,-99.31 -90.07,-460.84 -99.5,-543.19l17.44 -189.07c105.3,29.83 343.96,369.09 447.72,432.8l197.78 83.83c36.62,-129.37 -263.19,-398.49 -319.71,-524.99l-55.03 -222.16 615.98 288.61c51.72,-129.15 -219.1,-293.72 -297.44,-348.56 -53.46,-37.44 -134.8,-98.4 -182.67,-144.48 -62.67,-60.27 -90.52,-119.63 -133.7,-195.39l-163.59 52.14c-91.4,-181.35 160.41,-162.62 229.41,-238.72 71.69,-79.03 214.56,-220.45 104.55,-327.09 -44.78,-43.36 -113.85,-64.74 -189.73,-31.09 -65.82,29.2 -97.68,77.68 -137.04,117.7 -107.77,109.47 -277,-11.1 -396.98,-12.52z"/>
 </g>
</svg>
