<?xml version="1.0" encoding="UTF-8"?>
<!DOCTYPE svg PUBLIC "-//W3C//DTD SVG 1.1//EN" "http://www.w3.org/Graphics/SVG/1.1/DTD/svg11.dtd">
<!-- Creator: CorelDRAW 2018 (64-Bit) -->
<svg xmlns="http://www.w3.org/2000/svg" xml:space="preserve" width="180mm" height="180mm" version="1.1" style="shape-rendering:geometricPrecision; text-rendering:geometricPrecision; image-rendering:optimizeQuality; fill-rule:evenodd; clip-rule:evenodd"
viewBox="0 0 18000 18000"
 xmlns:xlink="http://www.w3.org/1999/xlink">
 <defs>
  <style type="text/css">
   <![CDATA[
    .fil4 {fill:#FEFEFE}
    .fil0 {fill:#373435}
    .fil1 {fill:#EE4038}
    .fil2 {fill:#F4D697}
    .fil5 {fill:#A8CA6F}
    .fil3 {fill:#8CBC4B}
   ]]>
  </style>
 </defs>
 <g id="cypek_x0020_2">
  <metadata id="CorelCorpID_0Corel-Layer"/>
  <path class="fil0" d="M10256.96 14822.95c52.13,114.26 62.98,598.98 89,804.2 14.85,116.6 25.14,139.44 110.45,186.93 297.5,165.61 753.96,-35.22 1080.36,64.56 122.02,37.31 251.39,189.08 244.83,358.98 -7.1,181.85 -143.97,260.1 -276.72,327.18 -309.17,156.21 -612.26,194.28 -1016.96,177.88 -362.86,-14.73 -717.95,-89.29 -1091.21,-95.12 -195.95,-3.06 -290.35,-105.18 -349.45,-251.65 -135.62,-336.14 -72.35,-990.25 -58.57,-1385.68 3.44,-99.29 48.95,-144.89 126.03,-172.21 127.07,-45 405.3,-39.01 563.88,-38.66 99.73,0.22 191.88,9.71 290.66,15.61 97.8,5.83 189.39,4.6 287.7,7.98zm5101.29 -8337.98l0 133.25c-42.33,116.03 -13.78,156.49 -99.6,305.8 -54.18,94.27 -109.44,164.06 -178.48,230.01 -125.93,120.48 -301.98,231.3 -491.34,327.31l-1287.98 357.05c-63.01,92.47 -30.37,85.59 -140.19,149.77 -84.99,49.65 -78.4,96.77 -65.85,209.26 18.7,167.29 73.8,296.12 125.37,451.23 -150.16,34.88 -317.82,50.78 -470.59,83.1l-422.91 139.59c-9.68,87.46 11.04,220.71 24.51,304.45 11.39,70.8 52.35,211.27 42.33,281.57 -116.04,76.04 -995.08,59.14 -1183.18,61.13 6.88,78.59 1058.22,725.2 1106.22,755.66 287.35,182.52 560.82,369.38 836.22,562.72 145.23,101.99 124.01,75.82 271.42,202.82 -38.76,53.9 -179.58,147.16 -240.83,195.45 102.34,72.13 207.87,53.77 303.47,-13.31 55.79,-39.11 178.73,-133.92 279.55,-116.98 80.87,13.59 164.98,157.22 131.74,255.31l-159.05 249.09c-5.86,204.62 140.79,273.57 247.96,356.42 63.23,48.91 109.82,79.07 168.64,131.04 60.08,53.14 103.73,85.5 152.2,147.76 136.94,175.7 -11.82,296.69 -227.93,190.59 -103.95,-51 -262.75,-155.96 -370.77,-219.1 65.54,114.67 168.99,207.97 250.04,313.59 40.81,53.24 235.79,304.79 106.16,388.65 -139.68,90.36 -465.67,-324.66 -569.3,-416.37l-86.51 -66.01c6.46,100.6 326.52,750.55 63.17,698.58 -140.63,-27.72 -324.98,-444.89 -392.85,-573 -4.98,59.26 27.88,191.06 38.13,255.34 13.37,84.78 28.48,193.9 5.55,275.81 -32.26,115.11 -111.17,77.14 -158.64,3.81 -156.24,-241.55 -294.92,-808.08 -396.5,-1122.74l-162.43 283.69c-103.16,19.93 -271.95,-135.65 -347.49,-198.32 -166.65,-138.14 -451.57,-382.66 -614.12,-494.97l-339.07 -210.99c-54.98,157.53 -72.38,296.27 -148.11,492.19 -178.98,462.93 -454.16,688.93 -484.43,823.89 -38.45,171.35 -41.16,424.98 -46.71,607.43 -10.85,353.05 -16.06,911.5 59.32,1233.73 33.75,144.33 14.32,147.26 7.89,291.26 -17.51,393.83 27.72,460.88 112.27,865.36 160.6,-3.06 321.04,-29.45 490.75,-31.38 367.74,-4.13 1097.67,49.93 918.75,603.12 -47.34,146.3 -196.01,384.42 -315.86,465.29 -53.43,36.01 -111.39,62.66 -180.15,83.29 -271.36,81.56 -656,86.98 -958.9,87.21 -687.39,0.44 -1374.05,-27.13 -2062.92,-27.13 -344.75,0 -683.88,3.6 -1026.83,12.55 -518,13.6 -1411.8,120.45 -1759.3,-307.88 -178.91,-220.48 -74.49,-563.59 163.75,-692.27 276.38,-149.21 584.13,-100.96 923.08,-105.81 196.77,-2.84 274.23,-27.16 340.71,-174.95 62.86,-139.56 79.26,-284.16 71.22,-459.27 -9.84,-212.82 -85.76,-430.94 -10.79,-581.35 23.81,-47.78 0.91,-57.62 -10.69,-108.62 -16.24,-71.46 -5.49,-168.98 -3.82,-245.62 9.34,-432.49 3,-867.06 0.38,-1299.77 -0.5,-80.96 14.63,-180.41 -28.45,-231.69 -230.77,-274.67 -265.55,-298.86 -370.17,-675.02l-115.62 -413.76c-72.16,22.96 -303.62,168.93 -385.65,216.71 -380.11,221.68 -736.97,472.76 -1095.63,729.04 -33.78,-40.71 -67.52,-155.32 -96.25,-210.83l-130.07 -175.61c-104.58,85.79 -468.54,1528.49 -715.61,1491.84l-26.49 -607.05c-95.76,139.94 -232.16,541.17 -388.47,573.94 -169.9,35.61 -94.11,-236.04 -64.97,-329.23l124.17 -369.38c-108.74,41.5 -478.41,566.27 -650.77,487.36 -129.59,-59.38 36.24,-313.84 91.91,-380.23l256.88 -325.6c-73.2,14.19 -266,167.75 -352.95,211.97 -274.07,139.43 -424.51,-49.33 -136.25,-291.26l314.1 -249.22c60.23,-53.74 97.29,-52.42 124.42,-156.09 36.42,-139.18 33.77,-102.15 -37.47,-197.71 -29.62,-39.68 -85.88,-127.61 -100.8,-181.44 -30.31,-109.06 59.32,-324.95 273.28,-218.5 215.92,107.42 247.55,270.03 557.2,8.26l165.64 -124.33 -281.33 -205.72c31.13,-44.25 561.39,-268.52 610.94,-293.5 51.12,-25.8 89.85,-52.01 140.66,-76.8 71.06,-34.66 76.92,-55.82 134.07,-93.51 178.99,-117.92 368.6,-238.21 557.89,-341.03 199.36,-108.3 347.12,-247.07 534.96,-365.6 151.26,-95.4 128.36,-75.37 240.67,-214.84l-307.03 -107.39c-3.56,-132.08 38.17,-242.94 42.55,-372.94 1.54,-45.83 2.87,-89.89 -15.11,-132.15 -168.92,-61 -692.59,114.27 -925.15,-26.37 -128.24,-77.58 -32.33,-215.94 16.14,-356.79l120.58 -380.74c-117.08,-68.85 -319.4,-32.14 -475.95,-46.01 -474.25,-41.98 -1128.24,-299.9 -1544.23,-522.88 -129.41,-69.39 -197.78,-144.51 -297.1,-220.77 -104.46,-80.21 -179.74,-160.54 -262.05,-256.1 -70.27,-81.68 -137.35,-177.59 -168.17,-286.21 -3.31,-11.7 -4.32,-18.42 -7.76,-28.64l-8.58 -21.86c-0.75,-1.82 -2.08,-4.95 -3.37,-7.28l0 -148.49c47.12,-102.31 13.4,-222.09 257.48,-507.2 61.82,-72.22 165.33,-175.07 239.22,-233.29 55.32,-43.53 70.97,-65.57 165.36,-134.55 673.64,-491.84 1158.35,-450.02 1826.82,-1253.72 209.26,-251.65 410.35,-615.8 529.09,-1015.42 59.26,-199.55 97.9,-425.65 111.93,-649.57 16.5,-265.62 -21.89,-486.84 -23.56,-741.79 -1.58,-248.12 51.25,-451.8 177.38,-596.43 285.48,-327.12 1139.96,-633.24 1573.87,-745.11 1128.27,-290.81 3090.26,-358.53 4128.13,15.55 196.65,70.9 370.36,155.33 508.28,265.37 291.64,232.54 385.56,704.07 470.37,1072.06 48.73,211.16 94.55,418.62 138.77,635.76 83.23,408.87 164.44,862.77 329.45,1206.23 184.47,383.86 399.6,606.55 730.66,814.74 80.93,50.9 158.48,94.39 235.47,145.46 141.01,93.57 331.25,215.34 486.7,286.49 263.98,120.86 500.24,172.8 722.56,440.28 30.68,36.94 57.11,60.27 87.48,103.48 56.87,80.99 95.76,161.1 126.25,255.34 14.7,45.51 22.33,124.23 37,160.44zm-8074.48 8616.69l27.35 -230.68c11.48,-11.51 2.11,-5.71 24.28,-11.19 194.82,-47.82 571.48,-23.31 762.17,-26.43 162.51,-2.65 395.18,-27.63 554.16,-27.32 134.99,0.29 96.26,-41.47 109.38,322.33 13.15,364.3 61.69,1254.96 -171.32,1465.13 -62.83,56.58 -196.77,40.37 -293.59,48.22l-1316.52 61.44c-299.81,6.97 -936.1,-8.45 -1103.95,-316.02 -69.36,-127.04 10.72,-285.04 69.98,-365.75 82.79,-112.72 130.79,-139.53 324.25,-148.33 150.44,-6.84 305.39,-4.32 455.23,-13.72 121.99,-7.63 302.39,-29.71 402.43,-75l177.31 -301.25 -21.16 -381.43zm1985.9 -374.78l-268.21 -2.36 36.62 -134.48 976.75 -7.01c96.7,0.16 281.71,-5.58 305.71,78.22 17.91,62.64 -61.82,61.18 -115.18,64.75 -333.05,22.27 -606.33,1.54 -935.69,0.88zm-1931.59 42.04l-19.05 -108.3c235.53,-13.06 468.42,0.28 704.2,-22.58l694.8 24.66c-15.08,118.27 -140.19,97.52 -265.53,103.83 -121.61,6.11 -250.42,0.12 -373.79,5.36 -248.03,10.53 -492.48,5.67 -740.63,-2.97zm1613.55 -292.36c-72.38,-62.1 -50.52,-168.23 -51.66,-329.2 -0.91,-120.86 16.62,-255.15 19.18,-372.19 2.77,-125.15 7.76,-245.97 9.27,-372.91 0.76,-63.87 0.06,-127.01 -0.76,-190.84 -0.41,-34.29 2.4,-102.92 -3.06,-134.2l-15.45 -43.21 -141.77 -42.67c-59.04,225.12 -60.01,482.38 -63.61,738.04 -3.25,230.89 -4.98,463.08 8.96,692.46 2.96,48.35 1.29,43.71 -6.47,90.64 -125.9,66.67 -684.58,40.18 -872.42,42.61 -94.52,1.23 -369.04,1.51 -442.71,-19.49 -83.07,-23.69 -90.77,-48.13 -90.17,-142.74 1.64,-248.69 21.86,-444.51 28.29,-681.65 7.35,-272.84 35.61,-638 34.22,-890.53 -1.01,-184.25 2.71,-141.26 -122.09,-325.63 15.14,-11.17 -3.56,-5.05 22.11,-9.69 11.07,-2.02 11.64,-2.65 23.88,-1.01 24,3.25 41.75,26.34 123.03,50.02 62.57,18.17 125.27,29.56 194.88,44.35 131.7,27.97 258.52,46.23 397.89,64.43 616.39,80.46 1100.73,6.75 1690.47,-99.76 372.73,-67.3 398.59,-75.94 758.73,-179.99 -15.89,93.17 -72.03,106.73 -88.28,141.64 -19.05,40.88 -15.8,152.84 -16.27,206.58 -1.48,152.24 -12.11,301.01 -9.68,454.38 4.22,271.2 21.29,640.24 18.38,899.58l3.92 326.71c-4.2,49.67 -11.36,56.77 -62.96,60.43 -140.03,9.96 -301.44,-1.01 -441.57,7.79 -225.97,14.19 -704.26,27.4 -904.28,16.05zm1706.12 -2379.94c14.22,333.68 -1327.59,431.29 -1687.7,463.52 -488.94,43.75 -1581.66,27.69 -1901.47,-209.67 -241.46,-179.2 21.23,-138.07 206.11,-112.81 752.32,102.81 635.57,112.5 1486.07,101.46 345.76,-4.51 668.87,-15.05 998.42,-72.67 138.74,-24.25 827.23,-172.73 898.57,-169.83zm-6849.98 114.89c49.23,-150.72 -60.24,-165.1 -171.23,-199.64 -49.23,-15.33 -71.56,-57.93 -107.17,-93.79 -183.55,-184.85 -63.58,-326.93 69.17,-319.74 123.28,6.68 164.09,115.52 228.18,159.17 84.65,57.72 231.24,45.07 310.44,-7.66 77.3,-51.54 142.8,-114.39 226.1,-164.1 118.9,-70.8 136.91,-17.94 239.06,95.47 64.84,71.97 123.1,132.37 187.43,203.33 122.94,135.55 129.47,90.71 73.24,246.13 -109.35,302.23 -205.26,545.78 -311.67,860.37 -43.68,129.12 -169.74,495.95 -272.18,510.68 -129.62,18.61 -60.9,-198.03 -44.75,-272.34 11.64,-53.74 25.36,-107.51 30.02,-162.99 6.25,-73.74 10.7,-137.26 -44.09,-156.87l-268.74 491.05c-16.93,29.78 -28.57,46.59 -51.12,75.57 -19.84,25.45 -35.45,49.42 -77.78,38.95l99.54 -718.39 -166.3 126.32c-101.68,93.67 -334.95,428.54 -488.1,383.06 81.75,-200.99 62.48,-186.64 201.82,-360.1 97.83,-121.71 213.99,-249.16 178.51,-384.68l-613.46 288.7c-15.58,-33.05 -24.57,-61.75 22.8,-125.58 23.59,-31.73 52.51,-60.46 78.78,-84.81 72.99,-67.53 189.84,-139.91 278.59,-212.32 34.31,-27.94 62.95,-45.76 91.62,-71.91 79.35,-72.32 95.75,-146.46 128.93,-196.36l172.36 52.48zm9297.79 -940.89c119.98,1.42 289.21,121.99 396.98,12.52 39.36,-40.02 71.22,-88.5 137.04,-117.7 75.88,-33.65 144.95,-12.27 189.73,31.09 110.01,106.64 -32.86,248.06 -104.55,327.09 -69,76.1 -320.81,57.37 -229.41,238.72l163.59 -52.14c43.18,75.76 71.03,135.12 133.7,195.39 47.87,46.08 129.21,107.04 182.67,144.48 78.34,54.84 349.16,219.41 297.44,348.56l-615.98 -288.61 55.03 222.16c56.52,126.5 356.33,395.62 319.71,524.99l-197.78 -83.83c-103.76,-63.71 -342.42,-402.97 -447.72,-432.8l-17.44 189.07c9.43,82.35 244.89,443.88 99.5,543.19l-123.76 -128.23c-63.64,-82.73 -197.97,-451.51 -276.06,-483.49l7.6 363.48c4.23,35.26 76.77,267.07 -61.68,225.76 -91.66,-27.38 -309.75,-855.87 -356.33,-1027.6 -49.89,-184.12 -50.68,-174.63 56.42,-301.03 67.75,-79.99 132.28,-145.75 202.55,-224.62 65.6,-73.65 126.81,-152.11 188.75,-226.45zm-4226.5 -1310.88c340.62,-31.38 675.4,-56.17 1002.24,-104.42 162.08,-23.97 314.88,-49.58 474.25,-83.23l437.91 -102.41 91.46 534.24c113.95,663.82 155.71,972.93 -46.83,1632.25 -37.78,123 -30.18,122.94 -141.77,174.66 -193.52,89.67 -543.91,144.29 -756.48,171.1 -192.86,24.28 -1014.98,103.26 -1158.93,73.2 1.01,-712.14 -35.45,-1628.72 98.15,-2295.39zm-2135.29 798.22c0,-248.34 33.74,-976.28 154.09,-1134.89 328.64,115.81 492.29,166.87 855.96,232.66 461.23,83.45 567.54,65.54 989,104.36l-23.44 661.75c-7.79,214.84 -30.97,427.41 -31.09,644.99 -0.19,192.96 8.95,715.14 50.49,906.14 7.09,32.46 25.99,61.79 26.96,88l-313.93 2.64 -1423.09 -155.07c-57.75,-26.81 -78.91,-38.83 -103.54,-97.27 -19.12,-45.41 -38.23,-95.21 -53.43,-146.21 -105.09,-352.76 -127.98,-730.4 -127.98,-1107.1zm-2473.8 511.49c20.72,-28.16 50.11,-32.36 88.27,-44.44 315.45,-99.69 584.98,-268.9 857.54,-449.39 102.12,-67.68 192.83,-116.32 287.6,-185.39 51.28,-37.4 87.17,-66.7 145.55,-99.44 278.33,-156.21 463.31,-281.42 730.53,-451.25 55.32,-35.2 249.73,-157.82 298.36,-170.97l9.62 116.94 -45.23 571.32c-39.04,435.81 -47.37,437.82 -30.09,825.59 -198.15,198.1 -435.73,373.07 -671.87,526.1 -212.03,137.45 -412.62,277.29 -618.56,426.28 -19.05,13.78 -64.91,48.44 -86.64,58.85l-92.28 -171.51c-143.31,-234.84 -678.27,-834.67 -872.8,-952.69zm6732.66 -1299.39l-84.59 -354.69 0 -44.5c165.64,-43.71 1009.33,520.42 1245.05,683.38 98.21,67.87 185.96,132.65 281.27,200.84 157.59,112.75 234.26,191.63 415.49,311.57l426.27 292.02c-109.09,86.73 -171.98,136.69 -275.99,231.71 -208.09,190.18 -412.12,466.59 -567.23,705.21 -29.39,45.19 -76.7,128.46 -110.7,148.29l-577.94 -426.56c-150.6,-110.76 -446.43,-312.83 -548.08,-451.28 -106.04,-144.29 -123.22,-144.92 -118.87,-380.87 6.59,-363.76 -9.46,-559.56 -84.68,-915.12zm1903.7 -2757.97c27.92,12.65 50.81,67.56 56.3,110.86 11.48,91.65 -28.98,90.17 -26.68,131.3 71.81,-75.16 131.39,-100.93 54.69,-235.25 -63.52,-111.24 -134.61,-154.26 -124.14,-234.59 155.05,-62.95 392.66,57.31 414.89,228.91 59.07,455.39 -396.06,537.39 -494.24,463.62 -62.73,-47.15 -22.11,-186.05 -1.51,-263.66 15.29,-57.84 49.95,-233.07 120.69,-201.19zm-7695.53 538.97c-163.44,-26.27 -348.44,-209.77 -380.05,-367.62 -48.72,-243.82 142.69,-364.43 359.1,-377.04l-24.19 181.94c-27.09,247.2 36.75,373.42 45.14,562.72zm1550.82 -1638.25c11.13,-13.18 -16.56,-13.81 22.14,-11.73 25.26,-12.65 29.36,-14.51 60.39,-13.91 40.06,-20.03 90.93,9.11 98.37,-19.3 0.76,-2.87 3.03,-3.44 4.77,-4.92 -5.21,-15.77 -8.05,-12.93 8.04,-9.02 -4.26,-17.6 -6.4,-12.78 11.98,-8.61 32.01,-7.13 88.82,-61.88 174.13,-95.69 199.89,-79.19 420.94,-55.86 596.24,69.07 12.27,8.77 2.14,3.63 14.09,9.62 6.47,-17.28 -2.52,-6.69 17.19,-6.15l12.75 -8.11c178,-77.8 427.98,-247.13 574.82,-367.8 54.06,-44.38 59.26,-28.01 207.52,39.07 189.52,85.79 711.3,359.99 893.84,353.18 31.32,-119.35 170.22,-689.79 211.69,-756.62 152.99,76.23 1205.47,601.26 1311.88,618.13 86.8,-119.03 117.68,-154.86 207.37,-265.37l198.22 -262.62 237.8 495.6c34.35,90.51 65.79,181.85 109.66,254.33 47.44,78.28 105.15,143.28 154.42,207.11l188.31 -114.64c61.88,-42.71 121.68,-80.87 187.28,-112.44 134.7,-64.81 276.06,-206.73 404.04,-205.76 28.8,171.83 115.91,642.2 128.78,779.89 40.93,436.25 -152.52,1071.31 -325.83,1459.52 -112.78,252.78 -189.99,370.61 -347.02,551.77 -226.61,261.42 -653.14,566.91 -1078.94,729.14 -454.12,173.06 -874.32,321.51 -1421.26,376.73 -1130.47,114.17 -2043.01,103.29 -3026.67,-470.46 -209.55,-122.24 -365.98,-221.65 -545.4,-363.45 -160.28,-126.72 -331.57,-279.85 -445.68,-453.84 -64.02,-97.62 -100.83,-186.52 -158.13,-296.22 -50.31,-96.38 -87.24,-220.33 -117.61,-328.98 -36.84,-131.76 -182.17,-664.01 -23.27,-728.48 177.75,140.54 432.71,332.04 669.22,331.47 -134.08,-349.66 -381.06,-1051.37 -346.71,-1373.98 118.05,55.92 258.11,115.24 360.36,185.61 57.53,39.55 109.57,80.07 165.96,116.03 43.65,27.78 117.04,93.64 159.96,111.71l207.75 -227.49c123.98,-125.49 134.79,-104.96 237.55,-182.39zm-2032.36 1164.91c-15.45,34 -32.45,46.33 -54.91,75.38 -20.87,26.97 -31.35,47.66 -49.01,78.03 -31.35,54.09 -62.82,119.06 -81.52,174.44 -80.3,238.37 -58.92,802.22 -856.06,463.68 -406.15,-172.48 -955.02,-565.8 -1088.46,-935.82 -169.24,-469.23 651.93,-810.51 1015.23,-957.98 339.2,-137.7 774.12,-272.69 1136.49,-381.31 66.52,-19.96 124.87,-37.4 194.82,-59.79 56.3,-17.95 139.34,-49.71 190.05,-57.5l-194.69 253.19c-62.98,96.17 -116.37,174.73 -187.62,248.4 -132.31,136.66 -414.83,320.53 -456.62,417.76 181.51,216.71 98.02,100.27 219.01,337.06 66.92,130.88 200.49,317.81 213.29,344.46zm8466.95 -447.12c115.08,-60.84 237.89,-186.52 314.41,-291.95 34.56,-47.66 87.04,-123.82 117.48,-190.94 105.65,-232.98 -38.83,-52.64 -371.94,-475.51 -76.86,-97.55 -183.49,-256.88 -208.25,-396.82 258.56,53.9 463.31,94.3 719.84,166.05 367.77,102.82 944.93,290.6 1218.81,536.03 137.29,122.97 325.58,302.62 207.25,590.72 -78.35,190.72 -274.17,348.54 -422.78,458.26 -167.38,123.57 -352.32,223.2 -596.27,277.79 -122.31,27.41 -709.72,92.29 -785.44,6.75 -33.02,-37.34 -16.88,-138.67 -18.2,-196.99 -8.45,-372.15 -181.73,-305.64 -174.91,-483.39zm-8892.94 -1192.45c247.01,-229.72 1779.98,-532.43 2256.25,-626.04 717.88,-141.04 1847.94,-333.02 2564.79,-325.04 1192.41,13.25 2157.18,105.28 3300.43,316.43 310.59,57.37 1523.16,382.28 1656.79,498.66l-581.48 -119.44c-190.08,-51.44 -369.95,-101.87 -557.95,-151.16 -379.19,-99.48 -779.61,-165.61 -1176.55,-230.8 -851.96,-139.88 -1750.75,-200.09 -2641.24,-187.41 -1321.06,18.8 -2446.52,256.44 -3693.56,551.24l-1127.48 273.56zm577.38 -430.15c26.9,-63.43 330.75,-425.81 447.5,-617 136.41,-223.23 225.06,-480.01 287.04,-769 65.6,-306.15 106.85,-628.82 99.94,-960.48 -6.94,-332.67 -31.79,-656.8 127.2,-910.05 374.87,-597.16 2246.69,-997.1 3218.46,-1020.37 672.66,-16.09 1316.27,-7.48 1914.21,190.43 283.09,93.7 477.02,211.72 703.88,357.74 200.59,129.09 439.3,312.23 560.47,493.61 389,582.14 -11.79,1715.14 913.87,2784.46 44.82,51.72 216.64,234.43 221.75,301.57 -704.89,-124.16 -1329.14,-240.83 -2057.02,-336.61 -351.88,-46.3 -728.64,-89.95 -1093.67,-107.36 -1704.95,-81.37 -2702.39,90.42 -4343.79,400.07 -204.28,38.54 -855.11,177.28 -999.84,192.99z"/>
  <path class="fil1" d="M4880.65 5208c144.73,-15.71 795.56,-154.45 999.84,-192.99 1641.4,-309.65 2638.84,-481.44 4343.79,-400.07 365.03,17.41 741.79,61.06 1093.67,107.36 727.88,95.78 1352.13,212.45 2057.02,336.61 -5.11,-67.14 -176.93,-249.85 -221.75,-301.57 -925.66,-1069.32 -524.87,-2202.32 -913.87,-2784.46 -121.17,-181.38 -359.88,-364.52 -560.47,-493.61 -226.86,-146.02 -420.79,-264.04 -703.88,-357.74 -597.94,-197.91 -1241.55,-206.52 -1914.21,-190.43 -971.77,23.27 -2843.59,423.21 -3218.46,1020.37 -158.99,253.25 -134.14,577.38 -127.2,910.05 6.91,331.66 -34.34,654.33 -99.94,960.48 -61.98,288.99 -150.63,545.77 -287.04,769 -116.75,191.19 -420.6,553.57 -447.5,617z"/>
  <path class="fil2" d="M8465.78 8916.44c143.85,-6.65 330.81,131.52 556.72,40.53 137.64,-55.41 299.4,-178.48 389.44,-259.06l-163.12 285.4c-81.56,64.24 -207.84,114.51 -342.6,114.51 -28.92,0.03 -244.49,-47.46 -273.25,-57.49 -80.84,-39.05 -114.99,-72.26 -167.19,-123.89zm-716.47 -1032.98l11.23 -6.41 -11.23 6.41c-13.49,7.94 -6.71,-0.45 -25.01,19.99 -16.02,-2.02 -12.96,-6.31 -12.96,8.17l12.96 -8.17 21.01 6.63c-178.38,81.74 -285.71,156.05 -502.03,104.92 -131.77,-31.09 -269.56,-115.96 -355.85,-210.11 -21.36,-23.27 -29.84,-24.57 -13.91,-39.51l8.92 9.33 9.12 9.08 10.12 8.05 8.96 9.3 8.99 8.99 8.92 9.43 8.08 9.97c-0.45,13.46 -3.47,10.5 10.06,7.91l13.37 14 10.66 7.48 11.2 7.03 9.74 10.69c0,-13.78 3.53,-10.5 -9.74,-10.69l-11.2 -7.03 -10.66 -7.48 -13.37 -14 -10.06 -7.91 -8.08 -9.97 -8.92 -9.43 -8.99 -8.99 -8.96 -9.3 -10.12 -8.05 -9.12 -9.08 -8.92 -9.33 -9.02 -9.62c-23.47,17.41 4.19,8.35 -16.53,3.24 -3.34,-0.85 -10.44,-4.98 -12.93,-9.3 -23.59,-40.84 -7.63,-18.2 2.68,-30.09l8.14 10.19 7.19 8.74 -7.19 -8.74 -8.14 -10.19 -10.16 -9.96c-15.32,14.03 0.51,43.77 -56.73,-50.37 -13.91,-22.9 -13.98,-21.76 -17.89,-44.69l57.22 69.23 7.6 9.46 -7.6 -9.46c-11.07,-17.89 -16.75,-26.31 -28.07,-44.79l-22.08 -35.45c-0.63,-3.44 -2.68,-4.1 -4.07,-6.12 -13.09,13.98 -0.47,49.01 -44.56,-42.32 -189.77,-393.38 -181.32,-803.67 3.97,-1196.3 37.25,-78.97 29.36,-54.46 40.84,-35.29 16.02,0 10.85,3.19 8.93,-15.14l5.36 -11.89 -5.36 11.89c-4.83,-5.74 -47.75,7.23 44.12,-100.86l-0.82 26.09c-14.92,20.34 -19.87,22.51 -26.9,45.85l-9.53 11.7c14.26,0 10.44,3.31 9.53,-11.7 25.73,-29.08 39.45,-59.42 66.39,-87.93l6.3 -11.92 7.79 -7.76 -7.79 7.76 -6.3 11.92c-35.26,-37.47 26.46,-22.86 56.04,-104.36l-59.8 -0.03 -60.39 13.91c-3.12,12.55 10.34,6.87 -22.14,11.73 -102.76,77.43 -113.57,56.9 -237.55,182.39l-207.75 227.49c-42.92,-18.07 -116.31,-83.93 -159.96,-111.71 -56.39,-35.96 -108.43,-76.48 -165.96,-116.03 -102.25,-70.37 -242.31,-129.69 -360.36,-185.61 -34.35,322.61 212.63,1024.32 346.71,1373.98 -236.51,0.57 -491.47,-190.93 -669.22,-331.47 -158.9,64.47 -13.57,596.72 23.27,728.48 30.37,108.65 67.3,232.6 117.61,328.98 57.3,109.7 94.11,198.6 158.13,296.22 114.11,173.99 285.4,327.12 445.68,453.84 179.42,141.8 335.85,241.21 545.4,363.45 983.66,573.75 1896.2,584.63 3026.67,470.46 546.94,-55.22 967.14,-203.67 1421.26,-376.73 425.8,-162.23 852.33,-467.72 1078.94,-729.14 157.03,-181.16 234.24,-298.99 347.02,-551.77 173.31,-388.21 366.76,-1023.27 325.83,-1459.52 -12.87,-137.69 -99.98,-608.06 -128.78,-779.89 -127.98,-0.97 -269.34,140.95 -404.04,205.76 -65.6,31.57 -125.4,69.73 -187.28,112.44l-188.31 114.64c-49.27,-63.83 -106.98,-128.83 -154.42,-207.11 -43.87,-72.48 -75.31,-163.82 -109.66,-254.33l-237.8 -495.6 -198.22 262.62c-89.69,110.51 -120.57,146.34 -207.37,265.37 -106.41,-16.87 -1158.89,-541.9 -1311.88,-618.13 -41.47,66.83 -180.37,637.27 -211.69,756.62 -182.54,6.81 -704.32,-267.39 -893.84,-353.18 -148.26,-67.08 -153.46,-83.45 -207.52,-39.07 -146.84,120.67 -396.82,290 -574.82,367.8 0,16.18 3.5,12.56 -12.75,8.11 29.9,37.31 48.57,14.98 13.28,40.97 0,14.73 -3.81,11.38 10.47,11.04l11.17 6.56 -11.17 -6.56c21.39,-17.92 -6.84,-17.6 28.58,-2.34 44.94,19.3 217.58,249.38 231.68,326.46l-19.24 -20.79c-1.61,-1.67 -8.07,-5.17 -9.02,-9.14 -0.63,-2.75 -2.77,-3.16 -4.38,-4.45l-5.14 -9.68 5.14 9.68 28.57 50.78c18.61,-37.5 19.08,-5.27 32.9,33.81 66.57,188.57 106.94,326.27 97.8,547.51 -4.73,114.93 -18.52,221.94 -46.9,326.46 -15.52,57.27 -47.12,151.64 -74.84,206.01 -0.95,1.86 -2.18,4.19 -3.12,6.02l-4.83 -28.45 -37.4 68.7 -5.71 9.74 5.71 -9.74c6.84,7.94 31.16,-5.52 -9.12,53.61 -80.33,117.89 -100.13,155.08 -210.8,244.33l-35.93 34.54c-7.72,-7.13 -12.9,-12.18 -7.35,-23.78zm3233.07 -2.15l12.2 -5.99 9.66 -6.78 -9.66 6.78 -12.2 5.99 -14.79 12.4 -12.27 7.85 12.27 -7.85c13.72,5.58 53.74,3.97 6.68,24.38 -43.14,18.73 -14.03,10.15 -36.08,-8.49l10.6 -5.11 -10.6 5.11 -16.55 10.5 -15.08 6.91 15.08 -6.91 30.34 14.01 -178.39 67.55c-109.63,34.13 -286.08,13.57 -391.23,-36.3 -31.26,-14.82 -47.09,-23.84 -77.53,-41.22 -77.52,-44.34 -69.7,-26.9 -37.4,-50.49 0,-14.76 3.25,-10.54 -12.71,-9.24l-11.39 -6.72 -11.64 -6.5 -8.83 -8.42 8.83 8.42 11.64 6.5 11.39 6.72c-26.65,23.78 4.03,22.2 -34.63,0.28l-76.83 -61.09 -62.04 -74.3c-15.39,-22.74 -9.55,-4.58 -10.72,-33.81 32.26,19.3 18.2,12.9 38.07,34.81l18.92 16.63 8.07 9.9 8.24 9.93 8.57 9.56 8.71 9.46 9.15 9.02 9.39 8.67 9.56 8.58 9.84 8.14 10.79 7.57 10.47 10.41c0,-14.23 3.62,-10.88 -10.47,-10.41l-10.79 -7.57 -9.84 -8.14 -9.56 -8.58 -9.39 -8.67 -9.15 -9.02 -8.71 -9.46 -8.57 -9.56 -8.24 -9.93 -8.07 -9.9c-13.06,-21.14 -11.92,-12.49 -28.01,-35.61 -2.58,-3.66 -9.05,-14.07 -11.19,-17.19 -9.87,-14.07 -2.27,-6.12 -12.93,-16.56 -29.27,30.03 -7.57,9.49 -19.34,9.24 -18.67,-0.34 -91.21,-141.16 -103.57,-165.89 -16.62,-33.27 -35.29,-56.58 -5.14,-74.56l7.06 17.69 -7.06 -17.69c4.01,-17.31 8.61,-14.13 -7.44,-14.13 -25.01,22.62 -5.18,67.75 -50.34,-75.69 -34.91,-110.7 -59.54,-254.77 -61.66,-369.6 -5.07,-268.84 37.5,-297.22 73.8,-498.66l13.94 34.44 12.71 -23.28 6.41 -18.26 -6.41 18.26c-17.75,-15.39 -35.35,3.79 7.7,-82.12l110.32 -210.27 14.98 26.18 -5.39 12.86 -8.83 12.49 8.83 -12.49 5.39 -12.86 14.29 -12.78 5.77 -12.49 7.22 -8.51 -7.22 8.51 -5.77 12.49c-21.89,-22.93 -16.12,16.84 -17.69,-27.31l155.26 -161.54 25.36 16.05 -10.31 7.89 -10.7 7.38 -10.85 7.5 -11.79 6.31 -10.03 7.98 -9.65 8.55 -9.62 8.54 -9.02 9.02 -8.45 9.72 -8.55 9.68 -7.16 10.82 -6.94 11.23 -7.57 10.62 -7.53 10.76 -7.76 10.25c-21.54,-8.08 -16.09,-10.13 -10.32,12.3 15.11,0 11.07,3.5 10.32,-12.3l7.76 -10.25 7.53 -10.76 7.57 -10.62 6.94 -11.23 7.16 -10.82 8.55 -9.68 8.45 -9.72 9.02 -9.02 9.62 -8.54 9.65 -8.55 10.03 -7.98 11.79 -6.31 10.85 -7.5 10.7 -7.38 10.31 -7.89 12.87 -14.1 9.05 -8.73 -9.05 8.73c-2.56,-0.94 -6.91,-1.35 -8.01,-1.95 -10.38,-5.9 -6.85,-5.05 -6.53,-12.49 93.38,-57.31 151.76,-101.02 266.06,-125.97 464.97,-101.65 713.94,340.62 750.9,370.43l-18.04 28.82 -4.13 -12.11 4.13 12.11 11.58 15.9c-0.57,15.74 -5.11,12.9 8.58,12.9l-8.58 -12.9 14.63 -30.28 77.71 166.84c124.86,291.92 121.96,673.86 11.42,977.29 -9.37,25.8 -113.1,244.52 -136.15,266.72 -25.61,24.67 -1.42,41.35 -33.62,-2.17l-33.4 42.92c-29.74,34.54 -83.45,75.25 -106.16,111.33l-10.98 7.13 -11.76 6.5c-14.29,0.56 -11.04,-3.31 -11.04,10.28l11.04 -10.28 11.76 -6.5 10.98 -7.13c26.21,-14 32.77,-33.62 73.96,-71.37l23.59 -21.13c1.2,-1.33 2.93,-3.41 4.1,-4.79 1.23,-1.42 2.71,-3.66 3.91,-5.15 36.87,-46.89 12.68,-28.32 38.79,-33.3 -23.87,59.73 -8.8,28.64 -38.22,60.18l-72.73 73.17c-1.36,1.23 -3.28,3.05 -4.61,4.28 -1.32,1.3 -3.12,3.25 -4.44,4.51l-56.96 50.88 -26.81 -16.91zm-1750.56 -47.59c58.79,70.9 102.09,169.77 75.79,292.17 -44.78,209.11 -287,385.91 -407.92,348.82 -21.26,-81.97 26.96,-56.17 93.57,-83.48 108.31,-44.41 219.42,-151.76 243.39,-283.06 21.16,-115.94 -33.21,-201.85 -87.52,-255.59 -125.53,-124.36 -188.73,-79.13 -161.2,-166.02l243.89 147.16z"/>
  <path class="fil3" d="M8951.63 14476.56c200.02,11.35 678.31,-1.86 904.28,-16.05 140.13,-8.8 301.54,2.17 441.57,-7.79 51.6,-3.66 58.76,-10.76 62.96,-60.43l-3.92 -326.71c2.91,-259.34 -14.16,-628.38 -18.38,-899.58 -2.43,-153.37 8.2,-302.14 9.68,-454.38 0.47,-53.74 -2.78,-165.7 16.27,-206.58 16.25,-34.91 72.39,-48.47 88.28,-141.64 -360.14,104.05 -386,112.69 -758.73,179.99 -589.74,106.51 -1074.08,180.22 -1690.47,99.76 -139.37,-18.2 -266.19,-36.46 -397.89,-64.43 -69.61,-14.79 -132.31,-26.18 -194.88,-44.35 -81.28,-23.68 -99.03,-46.77 -123.03,-50.02 -12.24,-1.64 -12.81,-1.01 -23.88,1.01 -25.67,4.64 -6.97,-1.48 -22.11,9.69 124.8,184.37 121.08,141.38 122.09,325.63 1.39,252.53 -26.87,617.69 -34.22,890.53 -6.43,237.14 -26.65,432.96 -28.29,681.65 -0.6,94.61 7.1,119.05 90.17,142.74 73.67,21 348.19,20.72 442.71,19.49 187.84,-2.43 746.52,24.06 872.42,-42.61 7.76,-46.93 9.43,-42.29 6.47,-90.64 -13.94,-229.38 -12.21,-461.57 -8.96,-692.46 3.6,-255.66 4.57,-512.92 63.61,-738.04l141.77 42.67 15.45 43.21c5.46,31.28 2.65,99.91 3.06,134.2 0.82,63.83 1.52,126.97 0.76,190.84 -1.51,126.94 -6.5,247.76 -9.27,372.91 -2.56,117.04 -20.09,251.33 -19.18,372.19 1.14,160.97 -20.72,267.1 51.66,329.2z"/>
  <path class="fil4" d="M8959.49 11723.26l10.88 6.91 10.31 7.32 7.19 10.69 12.08 11.04c18.77,129.05 -89.38,163.62 -140.6,99.78 -50.74,-63.2 0.35,-170.71 100.14,-135.74zm-69.39 -376.22c104.27,-50.5 158.29,126.62 56.33,159.74 -96.79,31.48 -161.45,-108.75 -56.33,-159.74zm-20.78 -410.29c102.81,-56.68 167.4,120.51 63.89,157.69 -95.81,34.44 -162.92,-103.03 -63.89,-157.69zm36.99 -418.23c113.7,-33.66 134.45,140.41 43.84,165.57 -102.94,28.55 -151.79,-133.63 -43.84,-165.57zm16.09 -354.88c119.15,-51.53 155.7,113.98 77.87,152.43 -106.42,52.54 -173.94,-110.83 -77.87,-152.43zm-43.34 -203.9c-133.6,666.67 -97.14,1583.25 -98.15,2295.39 143.95,30.06 966.07,-48.92 1158.93,-73.2 212.57,-26.81 562.96,-81.43 756.48,-171.1 111.59,-51.72 103.99,-51.66 141.77,-174.66 202.54,-659.32 160.78,-968.43 46.83,-1632.25l-91.46 -534.24 -437.91 102.41c-159.37,33.65 -312.17,59.26 -474.25,83.23 -326.84,48.25 -661.62,73.04 -1002.24,104.42z"/>
  <path class="fil4" d="M6743.77 10757.96c0,376.7 22.89,754.34 127.98,1107.1 15.2,51 34.31,100.8 53.43,146.21 24.63,58.44 45.79,70.46 103.54,97.27l1423.09 155.07 313.93 -2.64c-0.97,-26.21 -19.87,-55.54 -26.96,-88 -41.54,-191 -50.68,-713.18 -50.49,-906.14 0.12,-217.58 23.3,-430.15 31.09,-644.99l23.44 -661.75c-421.46,-38.82 -527.77,-20.91 -989,-104.36 -363.67,-65.79 -527.32,-116.85 -855.96,-232.66 -120.35,158.61 -154.09,886.55 -154.09,1134.89z"/>
  <path class="fil1" d="M7304.93 15483.09l-177.31 301.25c-100.04,45.29 -280.44,67.37 -402.43,75 -149.84,9.4 -304.79,6.88 -455.23,13.72 -193.46,8.8 -241.46,35.61 -324.25,148.33 -59.26,80.71 -139.34,238.71 -69.98,365.75 167.85,307.57 804.14,322.99 1103.95,316.02l1316.52 -61.44c96.82,-7.85 230.76,8.36 293.59,-48.22 233.01,-210.17 184.47,-1100.83 171.32,-1465.13 -13.12,-363.8 25.61,-322.04 -109.38,-322.33 -158.98,-0.31 -391.65,24.67 -554.16,27.32 -190.69,3.12 -567.35,-21.39 -762.17,26.43 -22.17,5.48 -12.8,-0.32 -24.28,11.19l-27.35 230.68 21.16 381.43z"/>
  <path class="fil1" d="M10256.96 14822.95c-98.31,-3.38 -189.9,-2.15 -287.7,-7.98 -98.78,-5.9 -190.93,-15.39 -290.66,-15.61 -158.58,-0.35 -436.81,-6.34 -563.88,38.66 -77.08,27.32 -122.59,72.92 -126.03,172.21 -13.78,395.43 -77.05,1049.54 58.57,1385.68 59.1,146.47 153.5,248.59 349.45,251.65 373.26,5.83 728.35,80.39 1091.21,95.12 404.7,16.4 707.79,-21.67 1016.96,-177.88 132.75,-67.08 269.62,-145.33 276.72,-327.18 6.56,-169.9 -122.81,-321.67 -244.83,-358.98 -326.4,-99.78 -782.86,101.05 -1080.36,-64.56 -85.31,-47.49 -95.6,-70.33 -110.45,-186.93 -26.02,-205.22 -36.87,-689.94 -89,-804.2z"/>
  <path class="fil1" d="M4729.26 7277.72c-12.8,-26.65 -146.37,-213.58 -213.29,-344.46 -120.99,-236.79 -37.5,-120.35 -219.01,-337.06 41.79,-97.23 324.31,-281.1 456.62,-417.76 71.25,-73.67 124.64,-152.23 187.62,-248.4l194.69 -253.19c-50.71,7.79 -133.75,39.55 -190.05,57.5 -69.95,22.39 -128.3,39.83 -194.82,59.79 -362.37,108.62 -797.29,243.61 -1136.49,381.31 -363.3,147.47 -1184.47,488.75 -1015.23,957.98 133.44,370.02 682.31,763.34 1088.46,935.82 797.14,338.54 775.76,-225.31 856.06,-463.68 18.7,-55.38 50.17,-120.35 81.52,-174.44 17.66,-30.37 28.14,-51.06 49.01,-78.03 22.46,-29.05 39.46,-41.38 54.91,-75.38z"/>
  <path class="fil4" d="M10918.04 9570.87l0 44.5 84.59 354.69c75.22,355.56 91.27,551.36 84.68,915.12 -4.35,235.95 12.83,236.58 118.87,380.87 101.65,138.45 397.48,340.52 548.08,451.28l577.94 426.56c34,-19.83 81.31,-103.1 110.7,-148.29 155.11,-238.62 359.14,-515.03 567.23,-705.21 104.01,-95.02 166.9,-144.98 275.99,-231.71l-426.27 -292.02c-181.23,-119.94 -257.9,-198.82 -415.49,-311.57 -95.31,-68.19 -183.06,-132.97 -281.27,-200.84 -235.72,-162.96 -1079.41,-727.09 -1245.05,-683.38z"/>
  <path class="fil4" d="M4269.97 11269.45c194.53,118.02 729.49,717.85 872.8,952.69l92.28 171.51c21.73,-10.41 67.59,-45.07 86.64,-58.85 205.94,-148.99 406.53,-288.83 618.56,-426.28 236.14,-153.03 473.72,-328 671.87,-526.1 -17.28,-387.77 -8.95,-389.78 30.09,-825.59l45.23 -571.32 -9.62 -116.94c-48.63,13.15 -243.04,135.77 -298.36,170.97 -267.22,169.83 -452.2,295.04 -730.53,451.25 -58.38,32.74 -94.27,62.04 -145.55,99.44 -94.77,69.07 -185.48,117.71 -287.6,185.39 -272.56,180.49 -542.09,349.7 -857.54,449.39 -38.16,12.08 -67.55,16.28 -88.27,44.44z"/>
  <path class="fil1" d="M13196.21 6830.6c-6.82,177.75 166.46,111.24 174.91,483.39 1.32,58.32 -14.82,159.65 18.2,196.99 75.72,85.54 663.13,20.66 785.44,-6.75 243.95,-54.59 428.89,-154.22 596.27,-277.79 148.61,-109.72 344.43,-267.54 422.78,-458.26 118.33,-288.1 -69.96,-467.75 -207.25,-590.72 -273.88,-245.43 -851.04,-433.21 -1218.81,-536.03 -256.53,-71.75 -461.28,-112.15 -719.84,-166.05 24.76,139.94 131.39,299.27 208.25,396.82 333.11,422.87 477.59,242.53 371.94,475.51 -30.44,67.12 -82.92,143.28 -117.48,190.94 -76.52,105.43 -199.33,231.11 -314.41,291.95z"/>
  <path class="fil4" d="M7714.4 7096c-17.34,139.18 -46.71,258.58 -118.77,352.63 -218,284.67 -642.86,25.99 -548.18,-621.47 33.75,-230.74 172.2,-594.34 436.18,-426.05 168.23,107.29 265.81,413.18 230.77,694.89zm-747.09 -1050.68c0,15.7 3.66,12.36 -11.98,8.61 3.78,15.29 7.06,12.9 -8.04,9.02 -3.85,35.35 -10.13,27.06 -39.36,52.57 -21.89,19.15 -32.99,27.69 -45.93,56.36l-7.79 7.76 -6.3 11.92c-26.94,28.51 -40.66,58.85 -66.39,87.93 0.91,15.01 4.73,11.7 -9.53,11.7l-1.51 5.33 -5.36 11.89c1.92,18.33 7.09,15.14 -8.93,15.14 -97.33,128.11 -163.24,428.08 -163.37,636.14 -0.09,121.77 15.68,244.9 46.99,359.54 21.77,79.79 78.95,236.76 116.13,278.23 1.39,2.02 3.44,2.68 4.07,6.12l22.08 35.45c11.32,18.48 17,26.9 28.07,44.79l7.6 9.46 9.8 16.37 10.16 9.96 8.14 10.19 7.19 8.74 11.45 17.22 9.02 9.62 8.92 9.33 9.12 9.08 10.12 8.05 8.96 9.3 8.99 8.99 8.92 9.43 8.08 9.97 10.06 7.91 13.37 14 10.66 7.48 11.2 7.03c13.27,0.19 9.74,-3.09 9.74,10.69 90.26,56.74 192.7,128.37 342.54,132.31 133.03,3.47 289.28,-23.15 377.14,-97.33 0,-14.48 -3.06,-10.19 12.96,-8.17 18.3,-20.44 11.52,-12.05 25.01,-19.99l11.23 -6.41c56.3,-32.13 95.94,-77.68 136.16,-127.44 42.19,-52.36 86.19,-96.04 110.1,-165.11l5.71 -9.74 37.4 -68.7c71.25,-186.04 112.4,-322.89 112.28,-546.37 -0.13,-177.82 -39.99,-404.17 -113.29,-544.99l-28.57 -50.78 -5.14 -9.68c-25.52,-83.96 -158.49,-246.16 -211.31,-273.5l-11.17 -6.56c-14.28,0.34 -10.47,3.69 -10.47,-11.04l-30.47 -34.82c-11.95,-5.99 -1.82,-0.85 -14.09,-9.62 -175.3,-124.93 -396.35,-148.26 -596.24,-69.07 -85.31,33.81 -142.12,88.56 -174.13,95.69z"/>
  <path class="fil4" d="M10606.88 6358.18c451.1,-118.74 532.15,1144.6 59.45,1188.57 -468.82,43.62 -543.54,-1061.12 -59.45,-1188.57zm-346.42 -333.36l-9.05 8.73 -12.87 14.1 -10.31 7.89 -10.7 7.38 -10.85 7.5 -11.79 6.31 -10.03 7.98 -9.65 8.55 -9.62 8.54 -9.02 9.02 -8.45 9.72 -8.55 9.68 -7.16 10.82 -6.94 11.23 -7.57 10.62 -7.53 10.76 -7.76 10.25c0.75,15.8 4.79,12.3 -10.32,12.3l-3.69 3.25 -7.22 8.51 -5.77 12.49 -14.29 12.78 -5.39 12.86 -8.83 12.49c-39.11,40.69 -100.36,163.12 -112.37,222.6l-6.41 18.26 -12.71 23.28c-16.11,75.19 -39.96,136.03 -50.84,222.09 -10.34,82.1 -18.04,167.07 -14.35,251.21 5.18,119.82 38.7,351.31 89.45,436.21 16.05,0 11.45,-3.18 7.44,14.13l7.06 17.69c15.71,60.59 86.2,180.06 120.99,213.52 10.66,10.44 3.06,2.49 12.93,16.56 2.14,3.12 8.61,13.53 11.19,17.19 16.09,23.12 14.95,14.47 28.01,35.61l8.07 9.9 8.24 9.93 8.57 9.56 8.71 9.46 9.15 9.02 9.39 8.67 9.56 8.58 9.84 8.14 10.79 7.57c14.09,-0.47 10.47,-3.82 10.47,10.41l2.58 4.6 8.83 8.42 11.64 6.5 11.39 6.72c15.96,-1.3 12.71,-5.52 12.71,9.24 72.76,56.86 171.79,103.57 293.15,118.93 96.48,12.21 282.05,-10.06 345.98,-65.57l15.08 -6.91 16.55 -10.5 10.6 -5.11 6.53 -2.93 12.27 -7.85 14.79 -12.4 12.2 -5.99 9.66 -6.78 3.78 -3.69c0,-13.59 -3.25,-9.72 11.04,-10.28l11.76 -6.5 10.98 -7.13c22.71,-36.08 76.42,-76.79 106.16,-111.33l33.4 -42.92c43.52,-20.88 133.15,-217.49 154.63,-286.15 37.88,-121.4 67.75,-223.14 73.49,-358.91 10.62,-249.35 -35.45,-548.43 -153.53,-720.44 -13.69,0 -9.15,2.84 -8.58,-12.9l-11.58 -15.9 -4.13 -12.11c-21.86,-59.29 -127.01,-174.57 -166.43,-207.08 -60.84,-50.27 -128.77,-100.61 -226.73,-136.41 -194.82,-71.15 -446.81,-24.09 -578.04,88.03z"/>
  <path class="fil2" d="M3807.77 12211.51l-172.36 -52.48c-33.18,49.9 -49.58,124.04 -128.93,196.36 -28.67,26.15 -57.31,43.97 -91.62,71.91 -88.75,72.41 -205.6,144.79 -278.59,212.32 -26.27,24.35 -55.19,53.08 -78.78,84.81 -47.37,63.83 -38.38,92.53 -22.8,125.58l613.46 -288.7c35.48,135.52 -80.68,262.97 -178.51,384.68 -139.34,173.46 -120.07,159.11 -201.82,360.1 153.15,45.48 386.42,-289.39 488.1,-383.06l166.3 -126.32 -99.54 718.39c42.33,10.47 57.94,-13.5 77.78,-38.95 22.55,-28.98 34.19,-45.79 51.12,-75.57l268.74 -491.05c54.79,19.61 50.34,83.13 44.09,156.87 -4.66,55.48 -18.38,109.25 -30.02,162.99 -16.15,74.31 -84.87,290.95 44.75,272.34 102.44,-14.73 228.5,-381.56 272.18,-510.68 106.41,-314.59 202.32,-558.14 311.67,-860.37 56.23,-155.42 49.7,-110.58 -73.24,-246.13 -64.33,-70.96 -122.59,-131.36 -187.43,-203.33 -102.15,-113.41 -120.16,-166.27 -239.06,-95.47 -83.3,49.71 -148.8,112.56 -226.1,164.1 -79.2,52.73 -225.79,65.38 -310.44,7.66 -64.09,-43.65 -104.9,-152.49 -228.18,-159.17 -132.75,-7.19 -252.72,134.89 -69.17,319.74 35.61,35.86 57.94,78.46 107.17,93.79 110.99,34.54 220.46,48.92 171.23,199.64z"/>
  <path class="fil2" d="M13105.56 11270.62c-61.94,74.34 -123.15,152.8 -188.75,226.45 -70.27,78.87 -134.8,144.63 -202.55,224.62 -107.1,126.4 -106.31,116.91 -56.42,301.03 46.58,171.73 264.67,1000.22 356.33,1027.6 138.45,41.31 65.91,-190.5 61.68,-225.76l-7.6 -363.48c78.09,31.98 212.42,400.76 276.06,483.49l123.76 128.23c145.39,-99.31 -90.07,-460.84 -99.5,-543.19l17.44 -189.07c105.3,29.83 343.96,369.09 447.72,432.8l197.78 83.83c36.62,-129.37 -263.19,-398.49 -319.71,-524.99l-55.03 -222.16 615.98 288.61c51.72,-129.15 -219.1,-293.72 -297.44,-348.56 -53.46,-37.44 -134.8,-98.4 -182.67,-144.48 -62.67,-60.27 -90.52,-119.63 -133.7,-195.39l-163.59 52.14c-91.4,-181.35 160.41,-162.62 229.41,-238.72 71.69,-79.03 214.56,-220.45 104.55,-327.09 -44.78,-43.36 -113.85,-64.74 -189.73,-31.09 -65.82,29.2 -97.68,77.68 -137.04,117.7 -107.77,109.47 -277,-11.1 -396.98,-12.52z"/>
  <path class="fil4" d="M4303.27 5638.15l1127.48 -273.56c1247.04,-294.8 2372.5,-532.44 3693.56,-551.24 890.49,-12.68 1789.28,47.53 2641.24,187.41 396.94,65.19 797.36,131.32 1176.55,230.8 188,49.29 367.87,99.72 557.95,151.16l581.48 119.44c-133.63,-116.38 -1346.2,-441.29 -1656.79,-498.66 -1143.25,-211.15 -2108.02,-303.18 -3300.43,-316.43 -716.85,-7.98 -1846.91,184 -2564.79,325.04 -476.27,93.61 -2009.24,396.32 -2256.25,626.04z"/>
  <path class="fil3" d="M10657.75 12096.62c-71.34,-2.9 -759.83,145.58 -898.57,169.83 -329.55,57.62 -652.66,68.16 -998.42,72.67 -850.5,11.04 -733.75,1.35 -1486.07,-101.46 -184.88,-25.26 -447.57,-66.39 -206.11,112.81 319.81,237.36 1412.53,253.42 1901.47,209.67 360.11,-32.23 1701.92,-129.84 1687.7,-463.52z"/>
  <path class="fil0" d="M10606.88 6358.18c-484.09,127.45 -409.37,1232.19 59.45,1188.57 472.7,-43.97 391.65,-1307.31 -59.45,-1188.57z"/>
  <path class="fil0" d="M7714.4 7096c35.04,-281.71 -62.54,-587.6 -230.77,-694.89 -263.98,-168.29 -402.43,195.31 -436.18,426.05 -94.68,647.46 330.18,906.14 548.18,621.47 72.06,-94.05 101.43,-213.45 118.77,-352.63z"/>
  <path class="fil2" d="M12866.5 6984.41c-10.47,80.33 60.62,123.35 124.14,234.59 76.7,134.32 17.12,160.09 -54.69,235.25 -2.3,-41.13 38.16,-39.65 26.68,-131.3 -5.49,-43.3 -28.38,-98.21 -56.3,-110.86 -70.74,-31.88 -105.4,143.35 -120.69,201.19 -20.6,77.61 -61.22,216.51 1.51,263.66 98.18,73.77 553.31,-8.23 494.24,-463.62 -22.23,-171.6 -259.84,-291.86 -414.89,-228.91z"/>
  <path class="fil4" d="M9269.67 14726.88c329.36,0.66 602.64,21.39 935.69,-0.88 53.36,-3.57 133.09,-2.11 115.18,-64.75 -24,-83.8 -209.01,-78.06 -305.71,-78.22l-976.75 7.01 -36.62 134.48 268.21 2.36z"/>
  <path class="fil2" d="M5122.46 7512.88c-162.05,122.49 -140.95,-269.91 -35.74,-341.47 -27.91,280.12 -43.11,233.32 34.92,299.46l0.82 42.01zm88.34 238.18c-8.39,-189.3 -72.23,-315.52 -45.14,-562.72l24.19 -181.94c-216.41,12.61 -407.82,133.22 -359.1,377.04 31.61,157.85 216.61,341.35 380.05,367.62z"/>
  <path class="fil4" d="M7338.08 14768.92c248.15,8.64 492.6,13.5 740.63,2.97 123.37,-5.24 252.18,0.75 373.79,-5.36 125.34,-6.31 250.45,14.44 265.53,-103.83l-694.8 -24.66c-235.78,22.86 -468.67,9.52 -704.2,22.58l19.05 108.3z"/>
  <path class="fil0" d="M11181.36 7686.69c32.2,43.52 8.01,26.84 33.62,2.17 23.05,-22.2 126.78,-240.92 136.15,-266.72 110.54,-303.43 113.44,-685.37 -11.42,-977.29l-77.71 -166.84 -14.63 30.28 8.58 12.9c118.08,172.01 164.15,471.09 153.53,720.44 -5.74,135.77 -35.61,237.51 -73.49,358.91 -21.48,68.66 -111.11,265.27 -154.63,286.15zm-929.95 -1653.14l9.05 -8.73c131.23,-112.12 383.22,-159.18 578.04,-88.03 97.96,35.8 165.89,86.14 226.73,136.41 39.42,32.51 144.57,147.79 166.43,207.08l4.13 12.11 18.04 -28.82c-36.96,-29.81 -285.93,-472.08 -750.9,-370.43 -114.3,24.95 -172.68,68.66 -266.06,125.97 -0.32,7.44 -3.85,6.59 6.53,12.49 1.1,0.6 5.45,1.01 8.01,1.95zm-175.8 186.9l5.77 -12.49 7.22 -8.51 3.69 -3.25c-5.77,-22.43 -11.22,-20.38 10.32,-12.3l7.76 -10.25 7.53 -10.76 7.57 -10.62 6.94 -11.23 7.16 -10.82 8.55 -9.68 8.45 -9.72 9.02 -9.02 9.62 -8.54 9.65 -8.55 10.03 -7.98 11.79 -6.31 10.85 -7.5 10.7 -7.38 10.31 -7.89 -25.36 -16.05 -155.26 161.54c1.57,44.15 -4.2,4.38 17.69,27.31zm-147.29 278.99l6.41 -18.26c12.01,-59.48 73.26,-181.91 112.37,-222.6l8.83 -12.49 5.39 -12.86 -14.98 -26.18 -110.32 210.27c-43.05,85.91 -25.45,66.73 -7.7,82.12zm11.55 932.79c-50.75,-84.9 -84.27,-316.39 -89.45,-436.21 -3.69,-84.14 4.01,-169.11 14.35,-251.21 10.88,-86.06 34.73,-146.9 50.84,-222.09l-13.94 -34.44c-36.3,201.44 -78.87,229.82 -73.8,498.66 2.12,114.83 26.75,258.9 61.66,369.6 45.16,143.44 25.33,98.31 50.34,75.69zm135.49 245.34c-34.79,-33.46 -105.28,-152.93 -120.99,-213.52l-7.06 -17.69c-30.15,17.98 -11.48,41.29 5.14,74.56 12.36,24.73 84.9,165.55 103.57,165.89 11.77,0.25 -9.93,20.79 19.34,-9.24zm179.36 186.84l-11.39 -6.72 -11.64 -6.5 -8.83 -8.42 -2.58 -4.6 -10.47 -10.41 -10.79 -7.57 -9.84 -8.14 -9.56 -8.58 -9.39 -8.67 -9.15 -9.02 -8.71 -9.46 -8.57 -9.56 -8.24 -9.93 -8.07 -9.9 -18.92 -16.63c-19.87,-21.91 -5.81,-15.51 -38.07,-34.81 1.17,29.23 -4.67,11.07 10.72,33.81l62.04 74.3 76.83 61.09c38.66,21.92 7.98,23.5 34.63,-0.28zm666.92 55.69l-15.08 6.91c-63.93,55.51 -249.5,77.78 -345.98,65.57 -121.36,-15.36 -220.39,-62.07 -293.15,-118.93 -32.3,23.59 -40.12,6.15 37.4,50.49 30.44,17.38 46.27,26.4 77.53,41.22 105.15,49.87 281.6,70.43 391.23,36.3l178.39 -67.55 -30.34 -14.01zm45.95 -26.39l-12.27 7.85 -6.53 2.93 -10.6 5.11c22.05,18.64 -7.06,27.22 36.08,8.49 47.06,-20.41 7.04,-18.8 -6.68,-24.38zm74.21 -52.77l-10.98 7.13 -11.76 6.5 -11.04 10.28 -3.78 3.69 -9.66 6.78 -12.2 5.99 26.81 16.91 56.96 -50.88c1.32,-1.26 3.12,-3.21 4.44,-4.51 1.33,-1.23 3.25,-3.05 4.61,-4.28l72.73 -73.17c29.42,-31.54 14.35,-0.45 38.22,-60.18 -26.11,4.98 -1.92,-13.59 -38.79,33.3 -1.2,1.49 -2.68,3.73 -3.91,5.15 -1.17,1.38 -2.9,3.46 -4.1,4.79l-23.59 21.13c-41.19,37.75 -47.75,57.37 -73.96,71.37z"/>
  <path class="fil0" d="M8465.78 8916.44c52.2,51.63 86.35,84.84 167.19,123.89 28.76,10.03 244.33,57.52 273.25,57.49 134.76,0 261.04,-50.27 342.6,-114.51l163.12 -285.4c-90.04,80.58 -251.8,203.65 -389.44,259.06 -225.91,90.99 -412.87,-47.18 -556.72,-40.53z"/>
  <path class="fil0" d="M7751.77 6028.32l30.47 34.82c35.29,-25.99 16.62,-3.66 -13.28,-40.97 16.25,4.45 12.75,8.07 12.75,-8.11l-12.75 8.11c-19.71,-0.54 -10.72,-11.13 -17.19,6.15zm52.11 52.42c52.82,27.34 185.79,189.54 211.31,273.5l5.14 9.68c1.61,1.29 3.75,1.7 4.38,4.45 0.95,3.97 7.41,7.47 9.02,9.14l19.24 20.79c-14.1,-77.08 -186.74,-307.16 -231.68,-326.46 -35.42,-15.26 -7.19,-15.58 -28.58,2.34l11.17 6.56zm245.02 333.96c73.3,140.82 113.16,367.17 113.29,544.99 0.12,223.48 -41.03,360.33 -112.28,546.37l4.83 28.45c0.94,-1.83 2.17,-4.16 3.12,-6.02 27.72,-54.37 59.32,-148.74 74.84,-206.01 28.38,-104.52 42.17,-211.53 46.9,-326.46 9.14,-221.24 -31.23,-358.94 -97.8,-547.51 -13.82,-39.08 -14.29,-71.31 -32.9,-33.81zm-42.1 1169.8c-23.91,69.07 -67.91,112.75 -110.1,165.11 -40.22,49.76 -79.86,95.31 -136.16,127.44l-11.23 6.41c-5.55,11.6 -0.37,16.65 7.35,23.78l35.93 -34.54c110.67,-89.25 130.47,-126.44 210.8,-244.33 40.28,-59.13 15.96,-45.67 9.12,-53.61l-5.71 9.74zm-282.5 318.95l-12.96 8.17c-87.86,74.18 -244.11,100.8 -377.14,97.33 -149.84,-3.94 -252.28,-75.57 -342.54,-132.31l-9.74 -10.69 -11.2 -7.03 -10.66 -7.48 -13.37 -14c-13.53,2.59 -10.51,5.55 -10.06,-7.91l-8.08 -9.97 -8.92 -9.43 -8.99 -8.99 -8.96 -9.3 -10.12 -8.05 -9.12 -9.08 -8.92 -9.33c-15.93,14.94 -7.45,16.24 13.91,39.51 86.29,94.15 224.08,179.02 355.85,210.11 216.32,51.13 323.65,-23.18 502.03,-104.92l-21.01 -6.63zm-871.25 -164.91l-7.19 -8.74 -8.14 -10.19c-10.31,11.89 -26.27,-10.75 -2.68,30.09 2.49,4.32 9.59,8.45 12.93,9.3 20.72,5.11 -6.94,14.17 16.53,-3.24l-11.45 -17.22zm-35.29 -45.26l-7.6 -9.46 -57.22 -69.23c3.91,22.93 3.98,21.79 17.89,44.69 57.24,94.14 41.41,64.4 56.73,50.37l-9.8 -16.37zm-61.57 -1369.73c-11.48,-19.17 -3.59,-43.68 -40.84,35.29 -185.29,392.63 -193.74,802.92 -3.97,1196.3 44.09,91.33 31.47,56.3 44.56,42.32 -37.18,-41.47 -94.36,-198.44 -116.13,-278.23 -31.31,-114.64 -47.08,-237.77 -46.99,-359.54 0.13,-208.06 66.04,-508.03 163.37,-636.14zm14.29 -27.03l1.51 -5.33 9.53 -11.7c7.03,-23.34 11.98,-25.51 26.9,-45.85l0.82 -26.09c-91.87,108.09 -48.95,95.12 -44.12,100.86l5.36 -11.89zm83.73 -116.88l7.79 -7.76c12.94,-28.67 24.04,-37.21 45.93,-56.36 29.23,-25.51 35.51,-17.22 39.36,-52.57 15.1,3.88 11.82,6.27 8.04,-9.02 15.64,3.75 11.98,7.09 11.98,-8.61 -18.38,-4.17 -16.24,-8.99 -11.98,8.61 -16.09,-3.91 -13.25,-6.75 -8.04,9.02 -1.74,1.48 -4.01,2.05 -4.77,4.92 -7.44,28.41 -58.31,-0.73 -98.37,19.3 -31.03,-0.6 -35.13,1.26 -60.39,13.91 -38.7,-2.08 -11.01,-1.45 -22.14,11.73 32.48,-4.86 19.02,0.82 22.14,-11.73l60.39 -13.91 59.8 0.03c-29.58,81.5 -91.3,66.89 -56.04,104.36l6.3 -11.92z"/>
  <path class="fil0" d="M8899.69 8474.71c120.92,37.09 363.14,-139.71 407.92,-348.82 26.3,-122.4 -17,-221.27 -75.79,-292.17l-243.89 -147.16c-27.53,86.89 35.67,41.66 161.2,166.02 54.31,53.74 108.68,139.65 87.52,255.59 -23.97,131.3 -135.08,238.65 -243.39,283.06 -66.61,27.31 -114.83,1.51 -93.57,83.48z"/>
  <path class="fil0" d="M5122.46 7512.88l-0.82 -42.01c-78.03,-66.14 -62.83,-19.34 -34.92,-299.46 -105.21,71.56 -126.31,463.96 35.74,341.47z"/>
  <path class="fil5" d="M8892.75 10949.11c-40.62,11.92 -65.19,31.6 -49.93,89.48 8.55,32.33 40.41,53.68 83.55,39.04 71.69,-24.34 42.52,-150.91 -33.62,-128.52z"/>
  <path class="fil5" d="M8946.11 10175.44c-91.87,29.83 -49.57,165.01 38.7,125.68 61.09,-27.22 43.15,-152.3 -38.7,-125.68z"/>
  <path class="fil5" d="M8970.37 11730.17l10.31 7.32 7.19 10.69 -9.27 25.07c-38.92,-77.65 -141.93,-32.83 -113.54,53.87 17.95,54.81 134.92,71.56 117.61,-51.41l17.28 -16.49 -12.08 -11.04 -7.19 -10.69 -10.31 -7.32 -10.88 -6.91 10.88 6.91z"/>
  <path class="fil5" d="M8856.35 11439.48c11.23,71.49 139.15,79.95 122.66,-26.87 -12.49,-81.09 -137.19,-66.33 -122.66,26.87z"/>
  <path class="fil5" d="M8951.63 10537.15c-104.99,-12.04 -105.46,102.69 -50.11,125.65 41.91,17.29 74.81,-8.95 84.11,-34.59 18.2,-50.43 -15.86,-70.97 -34,-91.06z"/>
  <path class="fil0" d="M8951.63 10537.15c18.14,20.09 52.2,40.63 34,91.06 -9.3,25.64 -42.2,51.88 -84.11,34.59 -55.35,-22.96 -54.88,-137.69 50.11,-125.65zm-45.32 -18.63c-107.95,31.94 -59.1,194.12 43.84,165.57 90.61,-25.16 69.86,-199.23 -43.84,-165.57z"/>
  <path class="fil0" d="M8856.35 11439.48c-14.53,-93.2 110.17,-107.96 122.66,-26.87 16.49,106.82 -111.43,98.36 -122.66,26.87zm33.75 -92.44c-105.12,50.99 -40.46,191.22 56.33,159.74 101.96,-33.12 47.94,-210.24 -56.33,-159.74z"/>
  <path class="fil0" d="M8946.11 10175.44c81.85,-26.62 99.79,98.46 38.7,125.68 -88.27,39.33 -130.57,-95.85 -38.7,-125.68zm-23.71 -11.8c-96.07,41.6 -28.55,204.97 77.87,152.43 77.83,-38.45 41.28,-203.96 -77.87,-152.43z"/>
  <path class="fil0" d="M8987.87 11748.18l-7.19 -10.69 -10.31 -7.32 -10.88 -6.91c-99.79,-34.97 -150.88,72.54 -100.14,135.74 51.22,63.84 159.37,29.27 140.6,-99.78l-17.28 16.49c17.31,122.97 -99.66,106.22 -117.61,51.41 -28.39,-86.7 74.62,-131.52 113.54,-53.87l9.27 -25.07z"/>
  <path class="fil0" d="M8892.75 10949.11c76.14,-22.39 105.31,104.18 33.62,128.52 -43.14,14.64 -75,-6.71 -83.55,-39.04 -15.26,-57.88 9.31,-77.56 49.93,-89.48zm-23.43 -12.36c-99.03,54.66 -31.92,192.13 63.89,157.69 103.51,-37.18 38.92,-214.37 -63.89,-157.69z"/>
 </g>
</svg>
