<?xml version="1.0" encoding="UTF-8"?>
<!DOCTYPE svg PUBLIC "-//W3C//DTD SVG 1.1//EN" "http://www.w3.org/Graphics/SVG/1.1/DTD/svg11.dtd">
<!-- Creator: CorelDRAW 2018 (64-Bit) -->
<svg xmlns="http://www.w3.org/2000/svg" xml:space="preserve" width="180mm" height="180mm" version="1.1" style="shape-rendering:geometricPrecision; text-rendering:geometricPrecision; image-rendering:optimizeQuality; fill-rule:evenodd; clip-rule:evenodd"
viewBox="0 0 18000 18000"
 xmlns:xlink="http://www.w3.org/1999/xlink">
 <defs>
  <style type="text/css">
   <![CDATA[
    .fil3 {fill:#C9D863}
    .fil6 {fill:#C9D85F}
    .fil2 {fill:#A8CA6F}
    .fil8 {fill:#A4C246}
    .fil1 {fill:#A1A846}
    .fil0 {fill:#9BA846}
    .fil5 {fill:#5D482F}
    .fil4 {fill:#8CBC4B}
    .fil9 {fill:#749B4A}
    .fil7 {fill:#75994A}
   ]]>
  </style>
 </defs>
 <g id="trees">
  <metadata id="CorelCorpID_0Corel-Layer"/>
  <path class="fil0" d="M10195.06 5790.25c141.04,270.76 150.16,155.14 255.76,305.67 101.98,-61.23 306,-282.47 343.1,-396.86 -281.16,-205.83 -192.67,-159.78 -598.86,91.19z"/>
  <path class="fil1" d="M10462.53 7949.71l-114.02 658.45 177.6 14.61 111.68 -649.33 646.58 143.23c39.34,-347.19 12.04,-112.08 41.42,-371.43l-649.82 -171.62c-853.74,-110.41 -1602.36,-395.34 -1573.19,-169.75 18.69,144.49 5.53,385 22.28,537.08 22.15,201.18 -191.69,137.4 1337.47,8.76z"/>
  <path class="fil2" d="M7324.94 5731.67c233.46,-67.16 550.56,-188.71 795.28,-267.51 -496.47,713.54 -579.3,716.4 -1198.71,1282.43l918.03 -350.27c-271.18,390.57 -844.76,974.3 -1148.23,1318.32l654.81 -121.9c356.85,-47.07 810.18,-119.21 1171.21,-175.09l372.72 -25.47 -8.31 -236.07c-157.98,-63.47 -309.72,-166.03 -460.08,-239.65 -246.79,-120.83 -226.53,-120.15 -415.52,-298.33l897.35 383.22 17.44 -1004.65 -652.88 -351.49 655.15 236.23 19.35 -840.74 -517.73 -229.82 518.72 125.92 20.86 -918.51 -350.95 -194.98 350.52 100.02c3.04,-357.04 -36.94,-463.93 85.53,-642.86l26.01 1132.03 412.24 -143.59c-112.93,110.17 -271.71,175.04 -416.48,241.71l21.03 886.79 618.16 -218.66 -615.12 335.97 15.79 896.02 938.7 -347.24 -937.22 492.56c-65.93,1028.3 -108.48,822.64 403.57,859.68 862.2,124.8 858.09,130.37 1196.83,173.75l678.91 176.92c-81.97,-317.35 -666.04,-657.7 -1133.47,-1361.72l980.56 372.02c-425.99,-340.47 -759.63,-540.93 -1255.05,-1310.42 252.5,82.57 437.12,165.75 699.03,241.91 -261.47,-150.5 -839.18,-731.2 -923.12,-977.9l554.28 189.04 -808.52 -990.59 530.3 180.83c-616.81,-599.81 -907.84,-1090.38 -971.8,-2045.5 -247.97,914.67 -283.54,1535.62 -1030.04,2059.52l571.43 -199.08c-348.58,544.8 -451.28,558.14 -805.86,990.01l554.55 -198.7c-172.73,354.66 -681.17,834.49 -1029.27,1015.84z"/>
  <path class="fil1" d="M14874.54 9325.95c-57.27,-23.87 -37.91,-10.73 -108.27,-50.8l155.69 -466.25 -340.41 -56.08c36.42,95.98 13.72,43.54 65.96,122.15l107.61 167.09 -1063.87 -484.64 -87.02 440.75 -190.98 -39.07c156.52,-594.79 127.9,-451.11 175.23,-740.67 596.58,159.1 1229.15,327.56 1865.25,637.8 -101.5,-191.35 -383.08,-421 -615.46,-966.34 103.47,-43.28 102.94,-41.81 213.21,-104.99 -102.55,-20.4 -91.17,-17.4 -180.51,-29.32l123.84 -80.01c149.46,61.77 2.38,-37.71 144.81,54.8 -76.68,-92.67 6.36,1.57 -49.34,-119.19l135.16 -80.86c-8.59,-6.36 -38.98,-15.55 -137.05,-39.83 197.28,-177.14 364.01,-351.2 557,-604.8l79.39 846.85c-119.26,-103.45 -119.14,-90.62 -121,-82.02l147.79 409.01 -148.16 -116.24 187.09 460.87 -194.57 -156.33 205.05 556.34 -229.26 -159.15c200.55,590.3 154.55,349.83 294.41,662.07l-837.86 -443.34 -153.73 462.2z"/>
  <path class="fil3" d="M13175.96 6144.73c-403.31,322.7 -255.16,372.36 465.43,1166.29l86.3 -317.62c-66.84,-87.02 -121.14,-125.61 -210.55,-197.99l-232.02 -223.71 457.14 289.59 184.63 -644 -347.52 -308.61 377.73 217.84 181.83 -740.85 25.83 -39.15 141.94 -497.99c35.77,61.83 20.4,103.22 -1.3,198.33l-133.14 690.7 335.86 -18 -375 112.26 -144.97 684.4 518.1 -58.15 -543.86 156.77 -152.05 727.17 801.2 -112.39 -829.5 215.67 -102.93 550.18c-315.62,295.96 191.3,286.92 798.66,484.44l969 367.34c-84.71,-242.92 -535.38,-858.44 -724.56,-1317.15 344.52,183.44 361.32,190.89 426.35,211.85 -139.78,-346.89 -139.87,-288 -476.84,-996.97 129.41,76.57 339.68,224.21 432.78,258.59l-476.07 -890.43 400.25 238.26 -438.11 -898.23 358.54 209.85c-431.17,-809.28 -393.38,-810.3 -378.77,-1759.7 -275.83,533.72 -560.12,1067.13 -1173.79,1415.51l477.66 -46.15c-642.57,556.46 -360.62,309.24 -807.82,628.43l455.23 -55.5 -345.66 299.12z"/>
  <path class="fil3" d="M4844.57 6149.96c32.21,47.3 -99.49,51.02 25.36,39.2 373.11,-199.17 557.39,-312.82 719.23,-385.67 -6.44,81.92 -539.9,795.62 -649.32,919.11l-455.72 502.06 779.71 -388.82c-39.35,350.46 -853.82,1163.75 -1116.78,1499.07l275.28 -103.32c1022.1,-340.05 1330.95,-431.17 2057.83,-575.02l-76.17 -769 -948.3 -418.77 942.58 279.38 -74.23 -885.3c-76.72,-43.81 -178.88,-81.36 -285.19,-125.08 -54.16,-22.27 -94.23,-36.18 -151.61,-60.25l-173.82 -107.84 599.33 171.4 -78.61 -829.1 -415.6 -229.77 410.2 104.72c-16.22,-190.53 -33.43,-380.91 -48.2,-571.66 -26.7,-344.92 -70.54,-317.92 20.63,-531.53l90.71 628.44 110.87 972.37 492.2 -203.94 -458.83 289.98 109.52 820.69 586.8 -277.42 -590.92 410.43 120.29 942.98 801.02 -447.68c87.22,47.07 19.61,-39.23 37.08,68.04l339.63 -491.34 -918.03 350.27c122.17,-111.64 448.48,-366.82 692.81,-617.09 -117.98,-153.41 -303.63,-205.4 -469.32,-458.45l285.78 39.45c80.62,-42 50.96,-18.96 100.4,-100.99 -165.03,-113.75 -619.33,-537.43 -514.06,-522.51 413.97,58.67 257.64,37.73 519.74,69.68 -300.37,-213.88 -655.85,-530.42 -909.17,-876.48l581.64 126.37c-503.06,-493.54 -957.3,-1148.97 -1205.41,-1915.24 -126.64,796.96 -335.23,1591.2 -843.71,2100.7l597.37 -231.83 -688.04 1048.73 526.39 -262.18 -751.36 1003.21z"/>
  <path class="fil4" d="M11081.65 5013.38c-183.96,273.24 -326.3,348.96 -547.34,560.97 62.51,69.59 63.72,83.43 151.31,133.85l110.94 -14.43c-98.91,122.05 -208.59,314.48 -345.75,396.84 37.16,78.16 445.42,437.62 788.2,686.1l-980.56 -372.02c48.39,147.64 212.45,326.4 302.71,423.45l814.36 438.62 108.44 -943.64c-265.9,-209.52 -438.18,-220.55 -573.7,-422.14l574.23 289.92 47.17 -167.4 64.25 -652.88 -456.63 -298.87 488.49 207.89 108.41 -902.88 100.81 -690.58c42.82,37.44 67.88,-1.92 45.8,237.32l-77.1 862.47 408.81 -101.88 -421.95 249.33 -73.46 810.84 606.76 -168.48 -614.43 291.22 -71.44 886.47 936.9 -280.17 -947.72 397.01 -86.67 758.26c419.51,193.43 1675.2,458.59 2238.06,605.91 -287.39,-294.72 -902.68,-1062.18 -1024.89,-1396.74 197,65.74 785.64,353.93 888.91,473.75 6.86,-17.78 -840,-1122.48 -913.41,-1337.27l387.98 172.69c99.13,72.15 32.91,32.93 56.82,-2.18 -199.29,-110.94 -654.84,-742.95 -746.46,-986.45l532.12 254.45 -687.68 -1046.21 540.1 250.06c-497.89,-766.2 -719.5,-1140.2 -787.09,-2124.05 -492.32,1202.51 -545.64,1440.39 -1205.24,1911.92l585.87 -137.69c-384.18,463.3 -399.99,544.95 -915.27,886.24 209.12,-59.35 368.81,-123.84 589.34,-139.62z"/>
  <path class="fil4" d="M2908.62 7617.72c-55.7,120.76 -195.58,268.62 -272.26,361.29 142.45,-92.51 279.13,-213.97 428.58,-275.74l252.38 -176.21 -144.79 375.99c-232.36,545.34 -519.24,769.7 -620.73,961.05l931.13 -454.12 87.35 -45.94 52.98 -22.15c219.26,-85.43 545.8,-215.31 755.84,-252.79l-14.42 -91.75 -113.26 -546.61 -827.5 -223.74 736.74 109.74c61.11,-298.43 -14.23,-302.17 -93.15,-724.86l-439.89 -138.06c-4.83,-12.5 -18.16,-9.41 -26.68,-15.04l443.69 59.76 -141.83 -690.68 -377.11 -110.16 354.21 28.14 -156.51 -896.86 148.65 494.41 183.22 -85.62 -83.97 80.18c-31.27,24.11 -50.13,35.87 -76.93,52.44l182.7 736.64 200.18 739.78 474.37 -297.67c-604.29,620.19 -457.72,279.26 -262.72,1168.08l424.99 -294.68c78.24,-82.47 358.85,-438.74 349.95,-606.7l-779.71 388.82 455.72 -502.06c45.03,-50.82 90.98,-89.37 58.9,-133.85 -114.79,-104.26 -112.12,-120.69 -178.78,-194.55 204.57,-5.93 275.26,-4.6 382.59,-38.96 -110.67,-66.55 -310.99,-136.25 -357.98,-205.28 -90.95,-56.26 -102.31,-77.08 -337.47,-306.44l456.21 60.56c-290.49,-181.16 -594.45,-345.95 -807.06,-607.91l478.53 23.37c-893.72,-769.61 -599.87,-527.65 -1162.11,-1332.68 -123.07,938.68 -106.75,897.84 -414.01,1698.39l393.62 -237.39 -444.44 906.61 396.97 -238.52 -476.73 887.41 434.99 -259.93 -454.45 874.29z"/>
  <path class="fil1" d="M3136.28 9339.11c57.27,-23.87 37.9,-10.73 108.27,-50.8l-155.71 -466.25 340.41 -56.08c-36.41,95.98 -13.72,43.54 -65.94,122.15l-107.63 167.09 1063.89 -484.64 76.44 398.42 190.98 -33.78c-8.35,-298.45 -117.32,-414.07 -164.66,-703.63l-275.28 103.32c60.99,-77.76 166.78,-152.23 241.45,-257.83l-23.82 -79.73 14.42 91.75c-210.04,37.48 -536.58,167.36 -755.84,252.79 -78.18,32.69 -6.78,2.28 -140.33,68.09l-931.13 454.12c101.49,-191.35 388.37,-415.71 620.73,-961.05 -103.46,-43.28 -102.94,-41.81 -213.19,-104.99 102.53,-20.4 91.15,-17.4 180.51,-29.32l-74.91 -65.47c-149.45,61.77 -286.13,183.23 -428.58,275.74 76.68,-92.67 216.56,-240.53 272.26,-361.29l-123.26 -74.24c8.59,-6.36 39,-15.55 137.05,-39.83 -197.28,-177.14 -364.01,-351.2 -557,-604.8l-79.38 846.85c119.25,-103.45 119.15,-90.62 120.99,-82.02l-147.77 409.01 148.14 -116.24 -187.07 460.87 194.56 -156.33 -205.06 556.34 229.26 -159.15c-200.55,590.3 -154.53,349.83 -294.41,662.07l837.88 -443.34 153.73 462.2z"/>
  <path class="fil1" d="M11496.17 8184.03l472.81 163.58c-55.73,-104.18 -131.89,-170.03 -207.74,-257.7l430.57 23.12 -181.88 648.94 206.03 15.56 129.96 -649.18c252.36,31.63 257.63,81.2 433.56,137.55l-364.3 151.55 722.71 34.38c308.14,29.39 225.1,51.02 309.9,-305.15 -979.65,-296.52 -1407.65,-378.61 -1902.41,-528.76 -15.69,88.29 -28.67,422.64 -49.21,566.11z"/>
  <path class="fil5" d="M8881.74 7156.11c7.19,89.78 -22.74,1111.27 -2.76,1384.21l254.85 -1.34c0.93,-240.37 0.62,-963.32 -7.67,-1214.39l-13.55 -768.53 937.22 -492.56 -938.7 347.24 -15.79 -896.02 615.12 -335.97 -618.16 218.66 -21.03 -886.79c144.77,-66.67 303.55,-131.54 416.48,-241.71l-412.24 143.59 -26.01 -1132.03c-122.47,178.93 -82.49,285.82 -85.53,642.86l-350.52 -100.02 350.95 194.98 -20.86 918.51 -518.72 -125.92 517.73 229.82 -19.35 840.74 -655.15 -236.23 652.88 351.49 -17.44 1004.65 -897.35 -383.22c188.99,178.18 168.73,177.5 415.52,298.33 150.36,73.62 302.1,176.18 460.08,239.65z"/>
  <path class="fil5" d="M6480.16 7656.57l6.46 183.2c257.52,-33.55 -22.99,-19.77 234.75,-73.07l-32.3 -319.98c542.36,-349.61 321.35,-202.07 773.58,-511.38 188.13,-242.98 140.89,-184.38 2.82,-115.72l-803.66 447.68 -120.29 -942.98 590.92 -410.43 -586.8 277.42 -109.52 -820.69 458.83 -289.98 -492.2 203.94 -110.87 -972.37 -90.71 -628.44c-91.17,213.61 -47.33,186.61 -20.63,531.53 14.77,190.75 31.98,381.13 48.2,571.66l-410.2 -104.72 415.6 229.77 78.61 829.1 -599.33 -171.4 173.82 107.84c57.38,24.07 97.45,37.98 151.61,60.25 106.31,43.72 208.47,81.27 285.19,125.08l74.23 885.3 -942.58 -279.38 948.3 418.77 76.17 769z"/>
  <path class="fil1" d="M6712.48 7711.99c53,576.04 -388.77,686.46 722.17,372.53l9.5 476.16 192.3 -16.73 -27.75 -477.7c546.86,-2.03 543.13,6.95 1269.8,70.82l-3.47 -54.51c-192.08,-89.09 -332.06,-210.46 -456.49,-349.48 -679.34,-101.26 -964.92,-124.27 -1072.42,-140.34l-633.64 119.25z"/>
  <path class="fil5" d="M10561.16 6828.14c88.16,104.98 114.71,130.86 205.05,226.71l584.26 359.5 -117.55 1265.75c216.85,29.26 136.49,-2.25 212.76,40.54 79.88,-608.45 113.07,-1234.34 183.48,-1850.33l947.72 -397.01 -936.9 280.17 71.44 -886.47 614.43 -291.22 -606.76 168.48 73.46 -810.84 421.95 -249.33 -408.81 101.88 77.1 -862.47c22.08,-239.24 -2.98,-199.88 -45.8,-237.32l-100.81 690.58 -108.41 902.88 -488.49 -207.89 456.63 298.87 -64.25 652.88 -47.17 167.4 -574.23 -289.92c135.52,201.59 307.8,212.62 573.7,422.14l-108.44 943.64 -814.36 -438.62z"/>
  <path class="fil1" d="M6111.97 7731.06c96.72,40.11 315.61,129.01 390.51,195.85l-1098.98 -22.38c-184.6,4.19 -602.51,188.93 -800.91,257.77l101.62 394.6c-11.81,-130.78 -14.6,-91.5 152.82,-100.66l757.47 -32.49 -365.39 -165.33 486.38 -121.02 61.64 576.24 176.79 -32.85c-53.06,-295.19 -52.08,-284.51 -103.75,-566.01l480.32 21.79 -307.7 343.42c169.68,-46.79 220.37,-75.39 502.25,-142.49l-52.67 -506.88 -5.75 -78.17 -6.46 -95.88 -368.19 74.49z"/>
  <path class="fil5" d="M13644.57 7311.49l-107.82 416.36c-91.19,-28.54 -339.77,-232.24 -446.99,-309.8 300.58,401.48 308.08,392.31 569.03,688.93l123.25 -661.69 829.5 -215.67 -801.2 112.39 152.05 -727.17 543.86 -156.77 -518.1 58.15 144.97 -684.4 375 -112.26 -335.86 18 133.14 -690.7c21.7,-95.11 37.07,-136.5 1.3,-198.33l-141.94 497.99 -25.83 39.15 -181.83 740.85 -377.73 -217.84 347.52 308.61 -184.63 644 -457.14 -289.59 232.02 223.71c89.41,72.38 143.71,110.97 210.55,197.99l-83.12 318.09z"/>
  <path class="fil5" d="M4364.68 8034.39l13.24 61.22c394.57,-451 387.54,-434.04 535.96,-653.07l-424.99 294.68c-195,-888.82 -341.57,-547.89 262.72,-1168.08l-471.72 292.38 -202.83 -734.49 -182.7 -736.64c79,-48.83 95.92,-66.42 160.9,-132.62l-183.22 85.62 -148.65 -494.41 156.51 896.86 -354.21 -28.14 377.11 110.16 141.83 690.68 -443.69 -59.76c8.52,5.63 21.85,2.54 26.68,15.04l439.89 138.06c78.92,422.69 154.26,426.43 93.15,724.86l-736.74 -109.74 827.5 223.74 113.26 583.65z"/>
  <path class="fil6" d="M13116.21 7439.22c107.22,77.56 329.35,260.09 420.54,288.63l107.82 -416.36c-103.27,-119.82 -691.91,-408.01 -888.91,-473.75 77.25,211.44 240.84,480.26 360.55,601.48z"/>
  <path class="fil7" d="M8517.33 7417.65c-821.41,114.09 -814.36,128.02 -1171.21,175.09 279.75,41.57 1563.01,245.22 1527.92,204.55 -69.97,-81.1 -163.16,-209.23 -356.71,-379.64z"/>
  <path class="fil5" d="M6531.8 8340.15c6.78,291.82 7.79,423.61 251.93,262.11 -19.5,-207.81 -7.54,-252.21 -65.36,-848.7l-66.76 8.7 -58.78 17.61 -100.46 50.75 39.43 509.53z"/>
  <polygon class="fil5" points="13331.68,8574.96 13230.04,8939.39 13446.47,8952.58 13561.36,8523.18 13641.86,8198.84 13431.91,8145.35 "/>
  <path class="fil5" d="M4422.33 8231.59c57.93,297.5 95.45,346.97 164.66,703.63l245.3 -75.67c-92.48,-36.68 -19.03,75.03 -81.42,-108.91 -15.16,-44.65 -35.58,-145.41 -46.66,-193.74l-101.62 -394.6 -180.26 69.29z"/>
  <path class="fil8" d="M5355.88 7909.82l1146.6 17.09c-74.9,-66.84 -293.79,-155.74 -390.51,-195.85 -333.11,70.53 -350,69.97 -756.09,178.76z"/>
  <path class="fil9" d="M6713.42 7716.42c77.77,-176.67 592.42,-585.49 749.23,-781.08 -574.78,377.96 -456.9,299.32 -776.22,508.73l26.99 272.35z"/>
  <path class="fil4" d="M11330.82 7632.34l19.65 -217.99 -584.26 -359.5c284,324.08 162.33,172.18 277,309.13 106.35,126.97 142.95,140.63 287.61,268.36z"/>
  <path class="fil5" d="M1690.6 10011.23c-48.57,40.81 -26.34,21.97 -63.91,64.8l14812.14 0.88c-433.88,-351.82 -1006.35,-574.86 -1530.05,-757.81l-176.83 -63.79c-3109.99,-912.78 -10625.97,-1273.56 -13041.35,755.92z"/>
 </g>
</svg>
