<?xml version="1.0" encoding="UTF-8"?>
<!DOCTYPE svg PUBLIC "-//W3C//DTD SVG 1.1//EN" "http://www.w3.org/Graphics/SVG/1.1/DTD/svg11.dtd">
<!-- Creator: CorelDRAW 2018 (64-Bit) -->
<svg xmlns="http://www.w3.org/2000/svg" xml:space="preserve" width="180mm" height="180mm" version="1.1" style="shape-rendering:geometricPrecision; text-rendering:geometricPrecision; image-rendering:optimizeQuality; fill-rule:evenodd; clip-rule:evenodd"
viewBox="0 0 18000 18000"
 xmlns:xlink="http://www.w3.org/1999/xlink">
 <defs>
  <style type="text/css">
   <![CDATA[
    .fil0 {fill:#8CBC4B;fill-rule:nonzero}
   ]]>
  </style>
 </defs>
 <g id="tekst">
  <metadata id="CorelCorpID_0Corel-Layer"/>
  <path class="fil0" d="M1721.36 13805.55l-28.1 1370.63 301.11 9.24 18.87 -554.04c357.71,-101.97 536.37,-244.5 536.37,-428.37 0,-44.56 -11.24,-92.34 -32.93,-143.33 -82.31,-190.7 -252.52,-285.85 -510.68,-285.85 -85.51,0 -180.26,10.44 -284.64,31.72zm310.75 513.89l9.22 -263.37c131.69,29.71 199.14,67.45 202.34,112.81 3.22,45.77 -67.43,95.96 -211.56,150.56zm607.82 828.24c2.41,-477.35 -9.63,-859.16 -36.53,-1144.61l329.21 -26.89 -10.44 107.19c161.39,-100.37 326,-148.14 493.82,-142.52l32.12 284.64c-193.11,0 -328.81,40.15 -407.11,120.04 -54.2,55.81 -81.09,197.13 -81.09,424.76 0,103.18 5.22,225.23 16.47,365.75l-336.45 11.64zm1309.61 -636.34c49.39,-147.34 97.16,-333.62 143.73,-558.85l291.48 47.37c-86.33,330.82 -141.32,533.16 -165.81,606.63 -75.89,228.44 -154.57,393.85 -235.27,496.63 -120.04,152.16 -277.02,228.03 -471.74,228.03 -31.32,0 -63.43,-1.6 -96.35,-4.81l0 -345.67c45.36,16.46 87.93,24.49 126.87,24.49 91.93,0 166.61,-45.77 224.82,-137.71l-305.92 -867.59 321.18 -74.27 167.01 585.75zm968.76 203.95l188.3 -725.06 357.71 9.63 169.42 865.58 131.69 -1006.9 319.98 93.95 -197.54 1204.42 -489.39 37.74 -150.56 -649.18 -226.02 630.31 -376.18 -18.87 -169.44 -1241.76 348.49 -18.87 93.54 819.01zm1193.19 -395.85l301.1 47.37c69.06,-131.68 141.32,-194.71 216.39,-188.29 88.72,7.23 140.92,37.74 156.57,91.54 2.42,8.03 3.63,79.49 4.42,214.38 -78.28,-30.91 -154.96,-46.17 -230.44,-46.17 -56.21,0 -113.21,8.84 -170.63,26.9 -114.42,36.14 -171.42,125.66 -171.42,268.19 0,12.04 1.19,30.51 3.21,55.4 16.46,175.04 216.39,268.99 598.99,282.24l2.41 55.4 304.32 -18.87 9.64 -403.48c4.02,-170.23 -12.44,-320.78 -48.18,-451.66 -69.85,-252.53 -226.43,-378.59 -469.33,-378.59 -50.17,0 -101.56,6.02 -154.17,17.66 -153.75,34.53 -271.38,177.06 -352.88,427.98zm688.12 342.46l8.03 203.54c-191.11,-39.34 -283.84,-90.33 -277.42,-152.96 4.01,-42.96 46.98,-64.64 129.28,-64.64 38.54,0 85.11,4.82 140.11,14.06zm325.59 -199.94l-9.24 -292.67 197.54 -17.67 9.22 -481.37 289.48 -18.87 -28.12 476.55 271.41 -24.89 18.87 292.68 -303.52 26.9c-0.8,33.32 -1.21,64.63 -1.21,94.34 0,273.81 35.74,415.53 107.21,424.76 78.27,10.44 135.29,-49.78 170.62,-179.86l207.15 28.11c-14.05,188.29 -68.65,306.72 -163.39,355.3 -67.45,34.53 -147.74,51.79 -240.08,51.79 -38.55,0 -77.89,-2.81 -117.63,-8.43 -143.74,-19.27 -218,-267.38 -223.63,-743.13l-184.68 16.46zm966.76 -509.47l48.18 1165.48 287.04 8.43 0 -622.28c87.13,-141.73 160.59,-212.79 221.22,-212.79 31.32,0 59.02,20.48 83.1,61.43 37.74,63.43 56.61,166.61 56.61,309.14 0,116.82 -12.45,259.75 -37.33,429.17l317.57 -10.44c8.42,-138.1 12.84,-264.17 12.84,-378.59 0,-319.17 -33.33,-548.81 -99.97,-688.13 -44.16,-91.93 -111.21,-137.7 -202.33,-137.7 -97.96,0 -223.63,53.8 -376.59,160.99l-18.48 -131.68 -291.86 46.97zm1511.55 558.85c49.39,-147.34 97.16,-333.62 143.73,-558.85l291.47 47.37c-86.32,330.82 -141.31,533.16 -165.8,606.63 -75.88,228.44 -154.57,393.85 -235.28,496.63 -120.04,152.16 -277.01,228.03 -471.73,228.03 -31.32,0 -63.43,-1.6 -96.35,-4.81l0 -345.67c45.37,16.46 87.93,24.49 126.87,24.49 91.94,0 166.61,-45.77 224.82,-137.71l-305.92 -867.59 321.17 -74.27 167.02 585.75zm1130.16 -711.81l65.83 367.35 498.65 -18.87 -517.5 733.89 46.96 303.52 950.69 -93.14 -56.61 -357.32 -574.11 118.84 508.28 -641.16 -18.87 -440.01 -903.32 26.9zm1035 -157.38l56.61 1466.59 319.98 -37.74 -103.59 -1428.85 -273 0zm432.39 984.42c5.62,-179.06 49.78,-332.43 132.88,-461.3 98.76,-153.76 230.84,-230.45 396.66,-230.45 174.64,0 301.11,42.96 378.59,129.28 63.44,70.66 113.21,197.12 149.35,378.99 14.05,71.06 21.27,138.51 21.27,202.34 0,136.51 -33.71,250.12 -101.16,340.86 -98.77,133.29 -248.92,197.12 -450.46,190.7 -185.08,-5.62 -320.78,-52.6 -407.09,-141.32 -86.33,-88.33 -126.48,-224.83 -120.04,-409.1zm691.74 -282.64c-55.01,-51.79 -106.8,-77.49 -155.37,-77.49 -59.43,0 -114.42,39.35 -164.61,117.63 -44.57,69.86 -67.05,137.71 -67.05,203.55 0,61.83 20.48,125.26 61.02,190.7 45.77,72.67 98.37,109.2 157.78,109.2 68.26,0 130.49,-35.73 187.1,-107.19 54.19,-67.45 81.1,-136.1 81.1,-205.55 0,-75.48 -33.33,-152.16 -99.97,-230.85zm388.62 860.36l0 -1475.02c167.82,-33.73 308.32,-50.59 421.15,-50.59 185.87,0 296.28,45.77 331.61,137.71 13.25,34.53 20.07,70.26 20.07,106.79 0,116.03 -69.44,238.88 -208.35,368.15 223.61,159.39 335.23,301.91 335.23,428.38 0,206.36 -299.9,367.75 -899.71,484.58zm272.99 -1209.24l8.04 202.34c131.29,-90.33 196.73,-152.16 196.73,-185.88 0,-20.48 -24.09,-30.52 -71.88,-30.52 -32.92,0 -77.07,4.82 -132.89,14.06zm0 588.16l0 254.13c173.85,-63.83 260.96,-119.24 260.96,-167.01 0,-58.22 -87.11,-87.12 -260.96,-87.12zm1009.72 48.17c35.33,118.44 110,180.27 224.83,185.89 106.39,5.62 178.66,-50.59 216.4,-168.22l329.21 -46.97c-83.92,344.06 -250.53,516.29 -499.84,516.29 -77.08,0 -162.6,-17.66 -257.75,-52.99 -175.44,-100.37 -263.36,-293.08 -263.36,-578.53 0,-24.49 0.8,-51.39 2.39,-81.1 17.28,-330.41 177.86,-521.91 482.18,-575.31 288.27,-6.42 454.47,194.31 498.64,601.41l-732.7 199.53zm89.93 -419.54c-43.36,51.39 -67.04,113.62 -71.06,186.69l441.23 -126.07c-50.99,-91.53 -114.84,-137.3 -190.7,-137.3 -76.29,0 -135.7,25.29 -179.47,76.68zm674.07 -541.59c-6.42,527.14 22.08,1032.19 84.72,1515.17l319.98 -37.74c-37.74,-181.87 -59.82,-374.17 -65.85,-576.52l357.32 529.55 254.13 -188.29 -395.06 -451.66 310.34 -395.06 -357.3 -150.55 -179.06 413.92c-1.61,-46.97 -2.42,-95.15 -2.42,-144.53 0,-148.54 7.24,-307.13 21.29,-476.55l-348.09 -37.74z"/>
  <path class="fil0" d="M11021.13 13590.07c-24.38,-39.89 -36.35,-77.57 -36.35,-113.03 0,-30.14 8.87,-59.4 26.16,-86.88 37.22,-58.96 86.44,-90.87 147.6,-96.19 61.61,-5.32 115.25,19.95 161.35,75.36 31.92,38.12 47.88,78.01 47.88,119.23 0,19.07 -3.1,37.24 -8.87,54.53 -20.83,59.84 -64.72,101.06 -131.2,123.23 -15.53,5.31 -31.48,7.97 -46.99,7.97 -51.87,0 -105.05,-27.92 -159.58,-84.22z"/>
  <polygon class="fil0" points="12210.56,14069.81 11604.72,14384.66 11684.09,14511.81 12264.74,14184.67 "/>
 </g>
</svg>
