<?xml version="1.0" encoding="UTF-8"?>
<!DOCTYPE svg PUBLIC "-//W3C//DTD SVG 1.1//EN" "http://www.w3.org/Graphics/SVG/1.1/DTD/svg11.dtd">
<!-- Creator: CorelDRAW 2018 (64-Bit) -->
<svg xmlns="http://www.w3.org/2000/svg" xml:space="preserve" width="180mm" height="180mm" version="1.1" style="shape-rendering:geometricPrecision; text-rendering:geometricPrecision; image-rendering:optimizeQuality; fill-rule:evenodd; clip-rule:evenodd"
viewBox="0 0 18000 18000"
 xmlns:xlink="http://www.w3.org/1999/xlink">
 <defs>
  <style type="text/css">
   <![CDATA[
    .fil15 {fill:#FEFEFE}
    .fil12 {fill:#373435}
    .fil13 {fill:#EE4038}
    .fil14 {fill:#F4D697}
    .fil5 {fill:#C9D863}
    .fil8 {fill:#C9D85F}
    .fil4 {fill:#A8CA6F}
    .fil10 {fill:#A4C246}
    .fil3 {fill:#A1A846}
    .fil2 {fill:#9BA846}
    .fil7 {fill:#5D482F}
    .fil6 {fill:#8CBC4B}
    .fil11 {fill:#749B4A}
    .fil9 {fill:#75994A}
    .fil0 {fill:#EE4038;fill-rule:nonzero}
    .fil1 {fill:#8CBC4B;fill-rule:nonzero}
   ]]>
  </style>
 </defs>
 <g id="tekst">
  <metadata id="CorelCorpID_0Corel-Layer"/>
  <path class="fil0" d="M3873.58 11605.27c-114.62,-652.94 -406.11,-1007.34 -875.33,-1062.46 -76.41,-9.18 -154.61,-13.78 -236.37,-13.78 -383.9,0 -682.48,113.29 -895.76,340.63 -198.18,211.27 -296.82,485.31 -296.82,822.87 0,65.83 5.33,140.85 15.99,224.28 36.44,291.64 82.65,505.21 140.41,641.46 235.26,563.27 742.29,642.48 1249.45,574.09 393.86,-53.11 704.71,-277.86 921.53,-870.32l-728.69 -44.4c-109.3,191.36 -236.39,287.05 -380.34,287.05 -67.55,0 -140.41,-22.2 -218.61,-67.36 -215.06,-122.48 -322.59,-311.55 -322.59,-567.21 0,-25.26 1.8,-56.64 5.34,-94.15 27.56,-305.42 180.4,-466.93 457.66,-484.54 278.14,-17.6 437.23,107.17 478.98,374.31l685.15 -60.47z"/>
  <polygon class="fil0" points="3915.54,10920.42 4710,12335.75 4526.95,13286.45 5232.53,13358.41 5310.72,12354.12 6141.62,10918.88 5438.7,10829.33 5027.26,11708.07 4686,10774.98 "/>
  <path class="fil0" d="M6264.27 10534.5l-62.2 2613.28 666.48 17.6 41.77 -1056.33c791.81,-194.43 1187.26,-466.17 1187.26,-816.75 0,-84.96 -24.9,-176.05 -72.87,-273.27 -182.19,-363.59 -558.98,-545 -1130.38,-545 -189.28,0 -399,19.9 -630.06,60.47zm687.83 979.79l20.43 -502.15c291.47,56.65 440.77,128.6 447.88,215.1 7.11,87.26 -149.29,182.94 -468.31,287.05z"/>
  <path class="fil0" d="M8451.24 10677.22c34.66,428.66 52.43,861.14 52.43,1295.92 0,435.55 -17.77,872.63 -52.43,1312.77l686.92 80.37 104.86 -2729.63 -791.78 40.57z"/>
  <path class="fil0" d="M9323.69 12969.88l346.58 -667.48c431.9,244.94 766.91,367.42 1004.19,367.42 87.09,0 168.85,-21.44 245.26,-65.07 86.21,-47.46 129.76,-107.16 129.76,-176.82 0,-106.4 -160.86,-194.43 -481.66,-264.85 -468.33,-103.34 -784.68,-314.6 -947.31,-634.56 -54.21,-104.87 -80.87,-203.62 -80.87,-296.24 0,-238.82 140.41,-419.47 422.12,-542.71 220.38,-95.68 483.43,-143.14 788.24,-143.14 271.04,0 589.17,30.62 953.53,91.86l-247.94 636.86c-273.71,-106.4 -497.66,-159.22 -670.93,-159.22 -78.2,0 -156.41,16.08 -234.62,48.99 -93.3,39.04 -140.39,91.09 -140.39,155.39 0,61.24 61.31,125.54 184.82,192.13 87.1,48.22 251.51,113.29 494.1,195.19 209.72,71.96 359.02,141.61 447.88,208.97 133.3,101.04 204.39,237.3 213.29,407.99 15.99,282.46 -135.09,537.36 -453.22,764.7 -135.09,97.21 -333.25,145.44 -593.62,145.44 -348.35,0 -808.69,-88.03 -1379.21,-264.85z"/>
  <polygon class="fil0" points="11946.29,10496.01 11878.75,13189.67 13674.72,13211.87 13693.39,12512.24 12597.68,12512.24 12597.68,12153.24 13594.75,12171.61 13615.19,11597.51 12597.68,11597.51 12597.68,11220.14 13794.69,11238.51 13792.03,10515.92 "/>
  <path class="fil0" d="M14139.83 10566.99c-14.22,920.85 48.87,1842.46 187.51,2763.31l708.26 -71.95c-83.53,-346.75 -132.41,-713.41 -145.75,-1099.2l770.46 1045.62 728.72 -377.37 -1020.19 -878.75 874.44 -1237.75 -750.02 -91.86 -624.72 1078.54c-5.35,-119.41 -7.12,-240.36 -7.12,-361.3 0,-241.89 8.89,-487.6 28.43,-735.61l-750.02 -33.68z"/>
  <path class="fil1" d="M1721.36 13805.55l-28.1 1370.63 301.11 9.24 18.87 -554.04c357.71,-101.97 536.37,-244.5 536.37,-428.37 0,-44.56 -11.24,-92.34 -32.93,-143.33 -82.31,-190.7 -252.52,-285.85 -510.68,-285.85 -85.51,0 -180.26,10.44 -284.64,31.72zm310.75 513.89l9.22 -263.37c131.69,29.71 199.14,67.45 202.34,112.81 3.22,45.77 -67.43,95.96 -211.56,150.56zm607.82 828.24c2.41,-477.35 -9.63,-859.16 -36.53,-1144.61l329.21 -26.89 -10.44 107.19c161.39,-100.37 326,-148.14 493.82,-142.52l32.12 284.64c-193.11,0 -328.81,40.15 -407.11,120.04 -54.2,55.81 -81.09,197.13 -81.09,424.76 0,103.18 5.22,225.23 16.47,365.75l-336.45 11.64zm1309.61 -636.34c49.39,-147.34 97.16,-333.62 143.73,-558.85l291.48 47.37c-86.33,330.82 -141.32,533.16 -165.81,606.63 -75.89,228.44 -154.57,393.85 -235.27,496.63 -120.04,152.16 -277.02,228.03 -471.74,228.03 -31.32,0 -63.43,-1.6 -96.35,-4.81l0 -345.67c45.36,16.46 87.93,24.49 126.87,24.49 91.93,0 166.61,-45.77 224.82,-137.71l-305.92 -867.59 321.18 -74.27 167.01 585.75zm968.76 203.95l188.3 -725.06 357.71 9.63 169.42 865.58 131.69 -1006.9 319.98 93.95 -197.54 1204.42 -489.39 37.74 -150.56 -649.18 -226.02 630.31 -376.18 -18.87 -169.44 -1241.76 348.49 -18.87 93.54 819.01zm1193.19 -395.85l301.1 47.37c69.06,-131.68 141.32,-194.71 216.39,-188.29 88.72,7.23 140.92,37.74 156.57,91.54 2.42,8.03 3.63,79.49 4.42,214.38 -78.28,-30.91 -154.96,-46.17 -230.44,-46.17 -56.21,0 -113.21,8.84 -170.63,26.9 -114.42,36.14 -171.42,125.66 -171.42,268.19 0,12.04 1.19,30.51 3.21,55.4 16.46,175.04 216.39,268.99 598.99,282.24l2.41 55.4 304.32 -18.87 9.64 -403.48c4.02,-170.23 -12.44,-320.78 -48.18,-451.66 -69.85,-252.53 -226.43,-378.59 -469.33,-378.59 -50.17,0 -101.56,6.02 -154.17,17.66 -153.75,34.53 -271.38,177.06 -352.88,427.98zm688.12 342.46l8.03 203.54c-191.11,-39.34 -283.84,-90.33 -277.42,-152.96 4.01,-42.96 46.98,-64.64 129.28,-64.64 38.54,0 85.11,4.82 140.11,14.06zm325.59 -199.94l-9.24 -292.67 197.54 -17.67 9.22 -481.37 289.48 -18.87 -28.12 476.55 271.41 -24.89 18.87 292.68 -303.52 26.9c-0.8,33.32 -1.21,64.63 -1.21,94.34 0,273.81 35.74,415.53 107.21,424.76 78.27,10.44 135.29,-49.78 170.62,-179.86l207.15 28.11c-14.05,188.29 -68.65,306.72 -163.39,355.3 -67.45,34.53 -147.74,51.79 -240.08,51.79 -38.55,0 -77.89,-2.81 -117.63,-8.43 -143.74,-19.27 -218,-267.38 -223.63,-743.13l-184.68 16.46zm966.76 -509.47l48.18 1165.48 287.04 8.43 0 -622.28c87.13,-141.73 160.59,-212.79 221.22,-212.79 31.32,0 59.02,20.48 83.1,61.43 37.74,63.43 56.61,166.61 56.61,309.14 0,116.82 -12.45,259.75 -37.33,429.17l317.57 -10.44c8.42,-138.1 12.84,-264.17 12.84,-378.59 0,-319.17 -33.33,-548.81 -99.97,-688.13 -44.16,-91.93 -111.21,-137.7 -202.33,-137.7 -97.96,0 -223.63,53.8 -376.59,160.99l-18.48 -131.68 -291.86 46.97zm1511.55 558.85c49.39,-147.34 97.16,-333.62 143.73,-558.85l291.47 47.37c-86.32,330.82 -141.31,533.16 -165.8,606.63 -75.88,228.44 -154.57,393.85 -235.28,496.63 -120.04,152.16 -277.01,228.03 -471.73,228.03 -31.32,0 -63.43,-1.6 -96.35,-4.81l0 -345.67c45.37,16.46 87.93,24.49 126.87,24.49 91.94,0 166.61,-45.77 224.82,-137.71l-305.92 -867.59 321.17 -74.27 167.02 585.75zm1130.16 -711.81l65.83 367.35 498.65 -18.87 -517.5 733.89 46.96 303.52 950.69 -93.14 -56.61 -357.32 -574.11 118.84 508.28 -641.16 -18.87 -440.01 -903.32 26.9zm1035 -157.38l56.61 1466.59 319.98 -37.74 -103.59 -1428.85 -273 0zm432.39 984.42c5.62,-179.06 49.78,-332.43 132.88,-461.3 98.76,-153.76 230.84,-230.45 396.66,-230.45 174.64,0 301.11,42.96 378.59,129.28 63.44,70.66 113.21,197.12 149.35,378.99 14.05,71.06 21.27,138.51 21.27,202.34 0,136.51 -33.71,250.12 -101.16,340.86 -98.77,133.29 -248.92,197.12 -450.46,190.7 -185.08,-5.62 -320.78,-52.6 -407.09,-141.32 -86.33,-88.33 -126.48,-224.83 -120.04,-409.1zm691.74 -282.64c-55.01,-51.79 -106.8,-77.49 -155.37,-77.49 -59.43,0 -114.42,39.35 -164.61,117.63 -44.57,69.86 -67.05,137.71 -67.05,203.55 0,61.83 20.48,125.26 61.02,190.7 45.77,72.67 98.37,109.2 157.78,109.2 68.26,0 130.49,-35.73 187.1,-107.19 54.19,-67.45 81.1,-136.1 81.1,-205.55 0,-75.48 -33.33,-152.16 -99.97,-230.85zm388.62 860.36l0 -1475.02c167.82,-33.73 308.32,-50.59 421.15,-50.59 185.87,0 296.28,45.77 331.61,137.71 13.25,34.53 20.07,70.26 20.07,106.79 0,116.03 -69.44,238.88 -208.35,368.15 223.61,159.39 335.23,301.91 335.23,428.38 0,206.36 -299.9,367.75 -899.71,484.58zm272.99 -1209.24l8.04 202.34c131.29,-90.33 196.73,-152.16 196.73,-185.88 0,-20.48 -24.09,-30.52 -71.88,-30.52 -32.92,0 -77.07,4.82 -132.89,14.06zm0 588.16l0 254.13c173.85,-63.83 260.96,-119.24 260.96,-167.01 0,-58.22 -87.11,-87.12 -260.96,-87.12zm1009.72 48.17c35.33,118.44 110,180.27 224.83,185.89 106.39,5.62 178.66,-50.59 216.4,-168.22l329.21 -46.97c-83.92,344.06 -250.53,516.29 -499.84,516.29 -77.08,0 -162.6,-17.66 -257.75,-52.99 -175.44,-100.37 -263.36,-293.08 -263.36,-578.53 0,-24.49 0.8,-51.39 2.39,-81.1 17.28,-330.41 177.86,-521.91 482.18,-575.31 288.27,-6.42 454.47,194.31 498.64,601.41l-732.7 199.53zm89.93 -419.54c-43.36,51.39 -67.04,113.62 -71.06,186.69l441.23 -126.07c-50.99,-91.53 -114.84,-137.3 -190.7,-137.3 -76.29,0 -135.7,25.29 -179.47,76.68zm674.07 -541.59c-6.42,527.14 22.08,1032.19 84.72,1515.17l319.98 -37.74c-37.74,-181.87 -59.82,-374.17 -65.85,-576.52l357.32 529.55 254.13 -188.29 -395.06 -451.66 310.34 -395.06 -357.3 -150.55 -179.06 413.92c-1.61,-46.97 -2.42,-95.15 -2.42,-144.53 0,-148.54 7.24,-307.13 21.29,-476.55l-348.09 -37.74z"/>
  <path class="fil1" d="M11021.13 13590.07c-24.38,-39.89 -36.35,-77.57 -36.35,-113.03 0,-30.14 8.87,-59.4 26.16,-86.88 37.22,-58.96 86.44,-90.87 147.6,-96.19 61.61,-5.32 115.25,19.95 161.35,75.36 31.92,38.12 47.88,78.01 47.88,119.23 0,19.07 -3.1,37.24 -8.87,54.53 -20.83,59.84 -64.72,101.06 -131.2,123.23 -15.53,5.31 -31.48,7.97 -46.99,7.97 -51.87,0 -105.05,-27.92 -159.58,-84.22z"/>
  <polygon class="fil1" points="12210.56,14069.81 11604.72,14384.66 11684.09,14511.81 12264.74,14184.67 "/>
 </g>
 <g id="trees">
  <metadata id="CorelCorpID_1Corel-Layer"/>
  <path class="fil2" d="M10195.06 5790.25c141.04,270.76 150.16,155.14 255.76,305.67 101.98,-61.23 306,-282.47 343.1,-396.86 -281.16,-205.83 -192.67,-159.78 -598.86,91.19z"/>
  <path class="fil3" d="M10462.53 7949.71l-114.02 658.45 177.6 14.61 111.68 -649.33 646.58 143.23c39.34,-347.19 12.04,-112.08 41.42,-371.43l-649.82 -171.62c-853.74,-110.41 -1602.36,-395.34 -1573.19,-169.75 18.69,144.49 5.53,385 22.28,537.08 22.15,201.18 -191.69,137.4 1337.47,8.76z"/>
  <path class="fil4" d="M7324.94 5731.67c233.46,-67.16 550.56,-188.71 795.28,-267.51 -496.47,713.54 -579.3,716.4 -1198.71,1282.43l918.03 -350.27c-271.18,390.57 -844.76,974.3 -1148.23,1318.32l654.81 -121.9c356.85,-47.07 810.18,-119.21 1171.21,-175.09l372.72 -25.47 -8.31 -236.07c-157.98,-63.47 -309.72,-166.03 -460.08,-239.65 -246.79,-120.83 -226.53,-120.15 -415.52,-298.33l897.35 383.22 17.44 -1004.65 -652.88 -351.49 655.15 236.23 19.35 -840.74 -517.73 -229.82 518.72 125.92 20.86 -918.51 -350.95 -194.98 350.52 100.02c3.04,-357.04 -36.94,-463.93 85.53,-642.86l26.01 1132.03 412.24 -143.59c-112.93,110.17 -271.71,175.04 -416.48,241.71l21.03 886.79 618.16 -218.66 -615.12 335.97 15.79 896.02 938.7 -347.24 -937.22 492.56c-65.93,1028.3 -108.48,822.64 403.57,859.68 862.2,124.8 858.09,130.37 1196.83,173.75l678.91 176.92c-81.97,-317.35 -666.04,-657.7 -1133.47,-1361.72l980.56 372.02c-425.99,-340.47 -759.63,-540.93 -1255.05,-1310.42 252.5,82.57 437.12,165.75 699.03,241.91 -261.47,-150.5 -839.18,-731.2 -923.12,-977.9l554.28 189.04 -808.52 -990.59 530.3 180.83c-616.81,-599.81 -907.84,-1090.38 -971.8,-2045.5 -247.97,914.67 -283.54,1535.62 -1030.04,2059.52l571.43 -199.08c-348.58,544.8 -451.28,558.14 -805.86,990.01l554.55 -198.7c-172.73,354.66 -681.17,834.49 -1029.27,1015.84z"/>
  <path class="fil3" d="M14874.54 9325.95c-57.27,-23.87 -37.91,-10.73 -108.27,-50.8l155.69 -466.25 -340.41 -56.08c36.42,95.98 13.72,43.54 65.96,122.15l107.61 167.09 -1063.87 -484.64 -87.02 440.75 -190.98 -39.07c156.52,-594.79 127.9,-451.11 175.23,-740.67 596.58,159.1 1229.15,327.56 1865.25,637.8 -101.5,-191.35 -383.08,-421 -615.46,-966.34 103.47,-43.28 102.94,-41.81 213.21,-104.99 -102.55,-20.4 -91.17,-17.4 -180.51,-29.32l123.84 -80.01c149.46,61.77 2.38,-37.71 144.81,54.8 -76.68,-92.67 6.36,1.57 -49.34,-119.19l135.16 -80.86c-8.59,-6.36 -38.98,-15.55 -137.05,-39.83 197.28,-177.14 364.01,-351.2 557,-604.8l79.39 846.85c-119.26,-103.45 -119.14,-90.62 -121,-82.02l147.79 409.01 -148.16 -116.24 187.09 460.87 -194.57 -156.33 205.05 556.34 -229.26 -159.15c200.55,590.3 154.55,349.83 294.41,662.07l-837.86 -443.34 -153.73 462.2z"/>
  <path class="fil5" d="M13175.96 6144.73c-403.31,322.7 -255.16,372.36 465.43,1166.29l86.3 -317.62c-66.84,-87.02 -121.14,-125.61 -210.55,-197.99l-232.02 -223.71 457.14 289.59 184.63 -644 -347.52 -308.61 377.73 217.84 181.83 -740.85 25.83 -39.15 141.94 -497.99c35.77,61.83 20.4,103.22 -1.3,198.33l-133.14 690.7 335.86 -18 -375 112.26 -144.97 684.4 518.1 -58.15 -543.86 156.77 -152.05 727.17 801.2 -112.39 -829.5 215.67 -102.93 550.18c-315.62,295.96 191.3,286.92 798.66,484.44l969 367.34c-84.71,-242.92 -535.38,-858.44 -724.56,-1317.15 344.52,183.44 361.32,190.89 426.35,211.85 -139.78,-346.89 -139.87,-288 -476.84,-996.97 129.41,76.57 339.68,224.21 432.78,258.59l-476.07 -890.43 400.25 238.26 -438.11 -898.23 358.54 209.85c-431.17,-809.28 -393.38,-810.3 -378.77,-1759.7 -275.83,533.72 -560.12,1067.13 -1173.79,1415.51l477.66 -46.15c-642.57,556.46 -360.62,309.24 -807.82,628.43l455.23 -55.5 -345.66 299.12z"/>
  <path class="fil5" d="M4844.57 6149.96c32.21,47.3 -99.49,51.02 25.36,39.2 373.11,-199.17 557.39,-312.82 719.23,-385.67 -6.44,81.92 -539.9,795.62 -649.32,919.11l-455.72 502.06 779.71 -388.82c-39.35,350.46 -853.82,1163.75 -1116.78,1499.07l275.28 -103.32c1022.1,-340.05 1330.95,-431.17 2057.83,-575.02l-76.17 -769 -948.3 -418.77 942.58 279.38 -74.23 -885.3c-76.72,-43.81 -178.88,-81.36 -285.19,-125.08 -54.16,-22.27 -94.23,-36.18 -151.61,-60.25l-173.82 -107.84 599.33 171.4 -78.61 -829.1 -415.6 -229.77 410.2 104.72c-16.22,-190.53 -33.43,-380.91 -48.2,-571.66 -26.7,-344.92 -70.54,-317.92 20.63,-531.53l90.71 628.44 110.87 972.37 492.2 -203.94 -458.83 289.98 109.52 820.69 586.8 -277.42 -590.92 410.43 120.29 942.98 801.02 -447.68c87.22,47.07 19.61,-39.23 37.08,68.04l339.63 -491.34 -918.03 350.27c122.17,-111.64 448.48,-366.82 692.81,-617.09 -117.98,-153.41 -303.63,-205.4 -469.32,-458.45l285.78 39.45c80.62,-42 50.96,-18.96 100.4,-100.99 -165.03,-113.75 -619.33,-537.43 -514.06,-522.51 413.97,58.67 257.64,37.73 519.74,69.68 -300.37,-213.88 -655.85,-530.42 -909.17,-876.48l581.64 126.37c-503.06,-493.54 -957.3,-1148.97 -1205.41,-1915.24 -126.64,796.96 -335.23,1591.2 -843.71,2100.7l597.37 -231.83 -688.04 1048.73 526.39 -262.18 -751.36 1003.21z"/>
  <path class="fil6" d="M11081.65 5013.38c-183.96,273.24 -326.3,348.96 -547.34,560.97 62.51,69.59 63.72,83.43 151.31,133.85l110.94 -14.43c-98.91,122.05 -208.59,314.48 -345.75,396.84 37.16,78.16 445.42,437.62 788.2,686.1l-980.56 -372.02c48.39,147.64 212.45,326.4 302.71,423.45l814.36 438.62 108.44 -943.64c-265.9,-209.52 -438.18,-220.55 -573.7,-422.14l574.23 289.92 47.17 -167.4 64.25 -652.88 -456.63 -298.87 488.49 207.89 108.41 -902.88 100.81 -690.58c42.82,37.44 67.88,-1.92 45.8,237.32l-77.1 862.47 408.81 -101.88 -421.95 249.33 -73.46 810.84 606.76 -168.48 -614.43 291.22 -71.44 886.47 936.9 -280.17 -947.72 397.01 -86.67 758.26c419.51,193.43 1675.2,458.59 2238.06,605.91 -287.39,-294.72 -902.68,-1062.18 -1024.89,-1396.74 197,65.74 785.64,353.93 888.91,473.75 6.86,-17.78 -840,-1122.48 -913.41,-1337.27l387.98 172.69c99.13,72.15 32.91,32.93 56.82,-2.18 -199.29,-110.94 -654.84,-742.95 -746.46,-986.45l532.12 254.45 -687.68 -1046.21 540.1 250.06c-497.89,-766.2 -719.5,-1140.2 -787.09,-2124.05 -492.32,1202.51 -545.64,1440.39 -1205.24,1911.92l585.87 -137.69c-384.18,463.3 -399.99,544.95 -915.27,886.24 209.12,-59.35 368.81,-123.84 589.34,-139.62z"/>
  <path class="fil6" d="M2908.62 7617.72c-55.7,120.76 -195.58,268.62 -272.26,361.29 142.45,-92.51 279.13,-213.97 428.58,-275.74l252.38 -176.21 -144.79 375.99c-232.36,545.34 -519.24,769.7 -620.73,961.05l931.13 -454.12 87.35 -45.94 52.98 -22.15c219.26,-85.43 545.8,-215.31 755.84,-252.79l-14.42 -91.75 -113.26 -546.61 -827.5 -223.74 736.74 109.74c61.11,-298.43 -14.23,-302.17 -93.15,-724.86l-439.89 -138.06c-4.83,-12.5 -18.16,-9.41 -26.68,-15.04l443.69 59.76 -141.83 -690.68 -377.11 -110.16 354.21 28.14 -156.51 -896.86 148.65 494.41 183.22 -85.62 -83.97 80.18c-31.27,24.11 -50.13,35.87 -76.93,52.44l182.7 736.64 200.18 739.78 474.37 -297.67c-604.29,620.19 -457.72,279.26 -262.72,1168.08l424.99 -294.68c78.24,-82.47 358.85,-438.74 349.95,-606.7l-779.71 388.82 455.72 -502.06c45.03,-50.82 90.98,-89.37 58.9,-133.85 -114.79,-104.26 -112.12,-120.69 -178.78,-194.55 204.57,-5.93 275.26,-4.6 382.59,-38.96 -110.67,-66.55 -310.99,-136.25 -357.98,-205.28 -90.95,-56.26 -102.31,-77.08 -337.47,-306.44l456.21 60.56c-290.49,-181.16 -594.45,-345.95 -807.06,-607.91l478.53 23.37c-893.72,-769.61 -599.87,-527.65 -1162.11,-1332.68 -123.07,938.68 -106.75,897.84 -414.01,1698.39l393.62 -237.39 -444.44 906.61 396.97 -238.52 -476.73 887.41 434.99 -259.93 -454.45 874.29z"/>
  <path class="fil3" d="M3136.28 9339.11c57.27,-23.87 37.9,-10.73 108.27,-50.8l-155.71 -466.25 340.41 -56.08c-36.41,95.98 -13.72,43.54 -65.94,122.15l-107.63 167.09 1063.89 -484.64 76.44 398.42 190.98 -33.78c-8.35,-298.45 -117.32,-414.07 -164.66,-703.63l-275.28 103.32c60.99,-77.76 166.78,-152.23 241.45,-257.83l-23.82 -79.73 14.42 91.75c-210.04,37.48 -536.58,167.36 -755.84,252.79 -78.18,32.69 -6.78,2.28 -140.33,68.09l-931.13 454.12c101.49,-191.35 388.37,-415.71 620.73,-961.05 -103.46,-43.28 -102.94,-41.81 -213.19,-104.99 102.53,-20.4 91.15,-17.4 180.51,-29.32l-74.91 -65.47c-149.45,61.77 -286.13,183.23 -428.58,275.74 76.68,-92.67 216.56,-240.53 272.26,-361.29l-123.26 -74.24c8.59,-6.36 39,-15.55 137.05,-39.83 -197.28,-177.14 -364.01,-351.2 -557,-604.8l-79.38 846.85c119.25,-103.45 119.15,-90.62 120.99,-82.02l-147.77 409.01 148.14 -116.24 -187.07 460.87 194.56 -156.33 -205.06 556.34 229.26 -159.15c-200.55,590.3 -154.53,349.83 -294.41,662.07l837.88 -443.34 153.73 462.2z"/>
  <path class="fil3" d="M11496.17 8184.03l472.81 163.58c-55.73,-104.18 -131.89,-170.03 -207.74,-257.7l430.57 23.12 -181.88 648.94 206.03 15.56 129.96 -649.18c252.36,31.63 257.63,81.2 433.56,137.55l-364.3 151.55 722.71 34.38c308.14,29.39 225.1,51.02 309.9,-305.15 -979.65,-296.52 -1407.65,-378.61 -1902.41,-528.76 -15.69,88.29 -28.67,422.64 -49.21,566.11z"/>
  <path class="fil7" d="M8881.74 7156.11c7.19,89.78 -22.74,1111.27 -2.76,1384.21l254.85 -1.34c0.93,-240.37 0.62,-963.32 -7.67,-1214.39l-13.55 -768.53 937.22 -492.56 -938.7 347.24 -15.79 -896.02 615.12 -335.97 -618.16 218.66 -21.03 -886.79c144.77,-66.67 303.55,-131.54 416.48,-241.71l-412.24 143.59 -26.01 -1132.03c-122.47,178.93 -82.49,285.82 -85.53,642.86l-350.52 -100.02 350.95 194.98 -20.86 918.51 -518.72 -125.92 517.73 229.82 -19.35 840.74 -655.15 -236.23 652.88 351.49 -17.44 1004.65 -897.35 -383.22c188.99,178.18 168.73,177.5 415.52,298.33 150.36,73.62 302.1,176.18 460.08,239.65z"/>
  <path class="fil7" d="M6480.16 7656.57l6.46 183.2c257.52,-33.55 -22.99,-19.77 234.75,-73.07l-32.3 -319.98c542.36,-349.61 321.35,-202.07 773.58,-511.38 188.13,-242.98 140.89,-184.38 2.82,-115.72l-803.66 447.68 -120.29 -942.98 590.92 -410.43 -586.8 277.42 -109.52 -820.69 458.83 -289.98 -492.2 203.94 -110.87 -972.37 -90.71 -628.44c-91.17,213.61 -47.33,186.61 -20.63,531.53 14.77,190.75 31.98,381.13 48.2,571.66l-410.2 -104.72 415.6 229.77 78.61 829.1 -599.33 -171.4 173.82 107.84c57.38,24.07 97.45,37.98 151.61,60.25 106.31,43.72 208.47,81.27 285.19,125.08l74.23 885.3 -942.58 -279.38 948.3 418.77 76.17 769z"/>
  <path class="fil3" d="M6712.48 7711.99c53,576.04 -388.77,686.46 722.17,372.53l9.5 476.16 192.3 -16.73 -27.75 -477.7c546.86,-2.03 543.13,6.95 1269.8,70.82l-3.47 -54.51c-192.08,-89.09 -332.06,-210.46 -456.49,-349.48 -679.34,-101.26 -964.92,-124.27 -1072.42,-140.34l-633.64 119.25z"/>
  <path class="fil7" d="M10561.16 6828.14c88.16,104.98 114.71,130.86 205.05,226.71l584.26 359.5 -117.55 1265.75c216.85,29.26 136.49,-2.25 212.76,40.54 79.88,-608.45 113.07,-1234.34 183.48,-1850.33l947.72 -397.01 -936.9 280.17 71.44 -886.47 614.43 -291.22 -606.76 168.48 73.46 -810.84 421.95 -249.33 -408.81 101.88 77.1 -862.47c22.08,-239.24 -2.98,-199.88 -45.8,-237.32l-100.81 690.58 -108.41 902.88 -488.49 -207.89 456.63 298.87 -64.25 652.88 -47.17 167.4 -574.23 -289.92c135.52,201.59 307.8,212.62 573.7,422.14l-108.44 943.64 -814.36 -438.62z"/>
  <path class="fil3" d="M6111.97 7731.06c96.72,40.11 315.61,129.01 390.51,195.85l-1098.98 -22.38c-184.6,4.19 -602.51,188.93 -800.91,257.77l101.62 394.6c-11.81,-130.78 -14.6,-91.5 152.82,-100.66l757.47 -32.49 -365.39 -165.33 486.38 -121.02 61.64 576.24 176.79 -32.85c-53.06,-295.19 -52.08,-284.51 -103.75,-566.01l480.32 21.79 -307.7 343.42c169.68,-46.79 220.37,-75.39 502.25,-142.49l-52.67 -506.88 -5.75 -78.17 -6.46 -95.88 -368.19 74.49z"/>
  <path class="fil7" d="M13644.57 7311.49l-107.82 416.36c-91.19,-28.54 -339.77,-232.24 -446.99,-309.8 300.58,401.48 308.08,392.31 569.03,688.93l123.25 -661.69 829.5 -215.67 -801.2 112.39 152.05 -727.17 543.86 -156.77 -518.1 58.15 144.97 -684.4 375 -112.26 -335.86 18 133.14 -690.7c21.7,-95.11 37.07,-136.5 1.3,-198.33l-141.94 497.99 -25.83 39.15 -181.83 740.85 -377.73 -217.84 347.52 308.61 -184.63 644 -457.14 -289.59 232.02 223.71c89.41,72.38 143.71,110.97 210.55,197.99l-83.12 318.09z"/>
  <path class="fil7" d="M4364.68 8034.39l13.24 61.22c394.57,-451 387.54,-434.04 535.96,-653.07l-424.99 294.68c-195,-888.82 -341.57,-547.89 262.72,-1168.08l-471.72 292.38 -202.83 -734.49 -182.7 -736.64c79,-48.83 95.92,-66.42 160.9,-132.62l-183.22 85.62 -148.65 -494.41 156.51 896.86 -354.21 -28.14 377.11 110.16 141.83 690.68 -443.69 -59.76c8.52,5.63 21.85,2.54 26.68,15.04l439.89 138.06c78.92,422.69 154.26,426.43 93.15,724.86l-736.74 -109.74 827.5 223.74 113.26 583.65z"/>
  <path class="fil8" d="M13116.21 7439.22c107.22,77.56 329.35,260.09 420.54,288.63l107.82 -416.36c-103.27,-119.82 -691.91,-408.01 -888.91,-473.75 77.25,211.44 240.84,480.26 360.55,601.48z"/>
  <path class="fil9" d="M8517.33 7417.65c-821.41,114.09 -814.36,128.02 -1171.21,175.09 279.75,41.57 1563.01,245.22 1527.92,204.55 -69.97,-81.1 -163.16,-209.23 -356.71,-379.64z"/>
  <path class="fil7" d="M6531.8 8340.15c6.78,291.82 7.79,423.61 251.93,262.11 -19.5,-207.81 -7.54,-252.21 -65.36,-848.7l-66.76 8.7 -58.78 17.61 -100.46 50.75 39.43 509.53z"/>
  <polygon class="fil7" points="13331.68,8574.96 13230.04,8939.39 13446.47,8952.58 13561.36,8523.18 13641.86,8198.84 13431.91,8145.35 "/>
  <path class="fil7" d="M4422.33 8231.59c57.93,297.5 95.45,346.97 164.66,703.63l245.3 -75.67c-92.48,-36.68 -19.03,75.03 -81.42,-108.91 -15.16,-44.65 -35.58,-145.41 -46.66,-193.74l-101.62 -394.6 -180.26 69.29z"/>
  <path class="fil10" d="M5355.88 7909.82l1146.6 17.09c-74.9,-66.84 -293.79,-155.74 -390.51,-195.85 -333.11,70.53 -350,69.97 -756.09,178.76z"/>
  <path class="fil11" d="M6713.42 7716.42c77.77,-176.67 592.42,-585.49 749.23,-781.08 -574.78,377.96 -456.9,299.32 -776.22,508.73l26.99 272.35z"/>
  <path class="fil6" d="M11330.82 7632.34l19.65 -217.99 -584.26 -359.5c284,324.08 162.33,172.18 277,309.13 106.35,126.97 142.95,140.63 287.61,268.36z"/>
  <path class="fil7" d="M1690.6 10011.23c-48.57,40.81 -26.34,21.97 -63.91,64.8l14812.14 0.88c-433.88,-351.82 -1006.35,-574.86 -1530.05,-757.81l-176.83 -63.79c-3109.99,-912.78 -10625.97,-1273.56 -13041.35,755.92z"/>
 </g>
 <g id="cypek_x0020_2">
  <metadata id="CorelCorpID_2Corel-Layer"/>
  <path class="fil12" d="M9407.16 9113.15c16.53,36.23 19.97,189.92 28.22,254.99 4.71,36.97 7.97,44.21 35.02,59.27 94.33,52.51 239.06,-11.17 342.55,20.47 38.69,11.83 79.71,59.95 77.63,113.82 -2.25,57.66 -45.65,82.47 -87.74,103.74 -98.03,49.53 -194.13,61.6 -322.45,56.4 -115.05,-4.67 -227.64,-28.31 -345.99,-30.16 -62.13,-0.97 -92.06,-33.35 -110.8,-79.79 -43,-106.58 -22.94,-313.98 -18.57,-439.36 1.09,-31.48 15.52,-45.94 39.96,-54.6 40.29,-14.27 128.51,-12.37 178.79,-12.26 31.62,0.07 60.84,3.08 92.16,4.95 31.01,1.85 60.05,1.46 91.22,2.53zm1617.47 -2643.73l0 42.25c-13.42,36.79 -4.37,49.62 -31.58,96.96 -17.18,29.89 -34.7,52.02 -56.59,72.93 -39.93,38.2 -95.75,73.34 -155.79,103.78l-408.38 113.21c-19.98,29.32 -9.63,27.14 -44.45,47.49 -26.95,15.74 -24.86,30.68 -20.88,66.35 5.93,53.04 23.4,93.89 39.75,143.07 -47.61,11.06 -100.77,16.1 -149.21,26.35l-134.09 44.26c-3.07,27.73 3.5,69.98 7.77,96.53 3.61,22.45 16.6,66.99 13.42,89.28 -36.79,24.11 -315.51,18.75 -375.15,19.38 2.18,24.92 335.53,229.94 350.75,239.6 91.11,57.87 177.82,117.12 265.14,178.42 46.05,32.34 39.32,24.04 86.06,64.31 -12.29,17.09 -56.94,46.66 -76.36,61.97 32.45,22.87 65.91,17.05 96.22,-4.22 17.69,-12.4 56.67,-42.46 88.64,-37.09 25.64,4.31 52.31,49.85 41.77,80.95l-50.43 78.98c-1.86,64.88 44.64,86.74 78.62,113.01 20.05,15.51 34.82,25.07 53.47,41.55 19.05,16.85 32.89,27.11 48.26,46.85 43.42,55.71 -3.75,94.07 -72.27,60.43 -32.96,-16.17 -83.31,-49.45 -117.56,-69.47 20.78,36.36 53.58,65.94 79.28,99.43 12.94,16.88 74.76,96.64 33.66,123.23 -44.29,28.65 -147.65,-102.94 -180.51,-132.02l-27.43 -20.93c2.05,31.9 103.53,237.98 20.03,221.5 -44.59,-8.79 -103.04,-141.06 -124.56,-181.68 -1.58,18.79 8.84,60.58 12.09,80.96 4.24,26.88 9.03,61.48 1.76,87.45 -10.23,36.5 -35.25,24.46 -50.3,1.21 -49.54,-76.59 -93.51,-256.22 -125.72,-355.99l-51.5 89.95c-32.71,6.32 -86.23,-43.01 -110.18,-62.88 -52.84,-43.8 -143.18,-121.33 -194.72,-156.94l-107.51 -66.9c-17.43,49.95 -22.95,93.94 -46.96,156.06 -56.75,146.78 -144,218.44 -153.6,261.23 -12.19,54.33 -13.05,134.75 -14.81,192.6 -3.44,111.94 -5.09,289.01 18.81,391.18 10.7,45.76 4.54,46.69 2.5,92.35 -5.55,124.87 8.79,146.13 35.6,274.38 50.92,-0.97 101.79,-9.34 155.6,-9.95 116.6,-1.31 348.04,15.83 291.31,191.23 -15.01,46.39 -62.15,121.89 -100.15,147.53 -16.94,11.42 -35.32,19.87 -57.12,26.41 -86.04,25.86 -208,27.58 -304.04,27.65 -217.95,0.14 -435.67,-8.6 -654.09,-8.6 -109.31,0 -216.84,1.14 -325.58,3.98 -164.24,4.31 -447.64,38.19 -557.82,-97.62 -56.73,-69.91 -23.62,-178.7 51.92,-219.5 87.63,-47.31 185.21,-32.01 292.68,-33.55 62.39,-0.9 86.95,-8.61 108.03,-55.47 19.93,-44.25 25.13,-90.1 22.58,-145.62 -3.12,-67.48 -27.19,-136.64 -3.42,-184.33 7.55,-15.15 0.29,-18.27 -3.39,-34.44 -5.15,-22.66 -1.74,-53.58 -1.21,-77.88 2.96,-137.13 0.95,-274.92 0.12,-412.12 -0.16,-25.67 4.64,-57.2 -9.02,-73.46 -73.17,-87.09 -84.2,-94.76 -117.37,-214.03l-36.66 -131.19c-22.88,7.28 -96.27,53.56 -122.28,68.71 -120.52,70.29 -233.67,149.9 -347.39,231.16 -10.71,-12.91 -21.41,-49.25 -30.52,-66.85l-41.24 -55.68c-33.16,27.2 -148.56,484.64 -226.9,473.02l-8.4 -192.48c-30.36,44.37 -73.61,171.59 -123.17,181.98 -53.87,11.29 -29.84,-74.84 -20.6,-104.39l39.37 -117.12c-34.48,13.16 -151.69,179.55 -206.34,154.53 -41.09,-18.83 11.49,-99.51 29.14,-120.56l81.45 -103.24c-23.21,4.5 -84.34,53.19 -111.91,67.21 -86.9,44.21 -134.6,-15.64 -43.2,-92.35l99.59 -79.02c19.1,-17.04 30.85,-16.62 39.45,-49.49 11.55,-44.13 10.71,-32.39 -11.88,-62.69 -9.39,-12.58 -27.23,-40.46 -31.96,-57.53 -9.61,-34.58 18.81,-103.03 86.65,-69.28 68.46,34.06 78.49,85.62 176.67,2.62l52.52 -39.42 -89.2 -65.23c9.87,-14.03 178,-85.14 193.71,-93.06 16.21,-8.18 28.49,-16.49 44.6,-24.35 22.53,-10.99 24.39,-17.7 42.51,-29.65 56.75,-37.39 116.87,-75.53 176.89,-108.13 63.21,-34.34 110.06,-78.34 169.62,-115.92 47.96,-30.25 40.7,-23.9 76.31,-68.12l-97.35 -34.05c-1.13,-41.88 12.1,-77.03 13.49,-118.25 0.49,-14.53 0.91,-28.5 -4.79,-41.9 -53.56,-19.34 -219.6,36.23 -293.34,-8.36 -40.66,-24.6 -10.25,-68.47 5.12,-113.13l38.23 -120.72c-37.12,-21.83 -101.27,-10.19 -150.91,-14.59 -150.37,-13.31 -357.73,-95.09 -489.63,-165.79 -41.03,-22 -62.71,-45.82 -94.2,-70 -33.12,-25.43 -56.99,-50.9 -83.09,-81.2 -22.28,-25.9 -43.55,-56.31 -53.32,-90.75 -1.05,-3.71 -1.37,-5.84 -2.46,-9.08l-2.72 -6.93c-0.24,-0.58 -0.66,-1.57 -1.07,-2.31l0 -47.08c14.94,-32.44 4.25,-70.42 81.64,-160.82 19.6,-22.9 52.42,-55.51 75.85,-73.97 17.54,-13.8 22.5,-20.79 52.43,-42.66 213.59,-155.95 367.28,-142.69 579.23,-397.52 66.35,-79.79 130.11,-195.25 167.76,-321.96 18.79,-63.27 31.04,-134.96 35.49,-205.96 5.23,-84.22 -6.94,-154.36 -7.47,-235.2 -0.5,-78.67 16.25,-143.25 56.24,-189.11 90.52,-103.72 361.45,-200.78 499.03,-236.25 357.74,-92.21 979.83,-113.68 1308.91,4.93 62.35,22.48 117.43,49.25 161.16,84.14 92.47,73.73 122.25,223.24 149.14,339.92 15.45,66.95 29.98,132.73 44,201.58 26.39,129.64 52.14,273.56 104.46,382.46 58.49,121.71 126.7,192.32 231.67,258.33 25.66,16.14 50.25,29.93 74.66,46.12 44.71,29.67 105.03,68.28 154.32,90.84 83.7,38.32 158.61,54.79 229.1,139.6 9.73,11.71 18.11,19.11 27.74,32.81 18.03,25.68 30.36,51.08 40.03,80.96 4.66,14.43 7.08,39.39 11.73,50.87zm-2560.18 2732.1l8.67 -73.14c3.64,-3.65 0.67,-1.81 7.7,-3.55 61.77,-15.16 181.2,-7.39 241.66,-8.38 51.53,-0.84 125.3,-8.76 175.71,-8.66 42.8,0.09 30.52,-13.15 34.68,102.2 4.17,115.51 19.56,397.91 -54.32,464.55 -19.92,17.94 -62.39,12.8 -93.09,15.29l-417.43 19.48c-95.06,2.21 -296.81,-2.68 -350.03,-100.2 -21.99,-40.28 3.4,-90.38 22.19,-115.97 26.25,-35.74 41.47,-44.24 102.81,-47.03 47.7,-2.17 96.83,-1.37 144.34,-4.35 38.68,-2.42 95.88,-9.42 127.6,-23.78l56.22 -95.52 -6.71 -120.94zm629.67 -118.83l-85.04 -0.75 11.61 -42.64 309.7 -2.22c30.66,0.05 89.32,-1.77 96.93,24.8 5.68,19.86 -19.6,19.4 -36.52,20.53 -105.6,7.06 -192.25,0.49 -296.68,0.28zm-612.45 13.33l-6.04 -34.34c74.68,-4.14 148.52,0.09 223.28,-7.16l220.3 7.82c-4.78,37.5 -44.45,30.92 -84.19,32.92 -38.56,1.94 -79.4,0.04 -118.52,1.7 -78.64,3.34 -156.15,1.8 -234.83,-0.94zm511.61 -92.7c-22.95,-19.69 -16.02,-53.34 -16.38,-104.38 -0.29,-38.32 5.27,-80.9 6.08,-118.01 0.88,-39.68 2.46,-77.99 2.94,-118.24 0.24,-20.25 0.02,-40.27 -0.24,-60.51 -0.13,-10.87 0.76,-32.63 -0.97,-42.55l-4.9 -13.7 -44.95 -13.53c-18.72,71.38 -19.03,152.95 -20.17,234.01 -1.03,73.21 -1.58,146.83 2.84,219.56 0.94,15.33 0.41,13.86 -2.05,28.74 -39.92,21.14 -217.06,12.74 -276.62,13.51 -29.97,0.39 -117.01,0.48 -140.37,-6.18 -26.34,-7.51 -28.78,-15.26 -28.59,-45.26 0.52,-78.85 6.93,-140.94 8.97,-216.13 2.33,-86.51 11.29,-202.29 10.85,-282.36 -0.32,-58.42 0.86,-44.79 -38.71,-103.25 4.8,-3.54 -1.13,-1.6 7.01,-3.07 3.51,-0.64 3.69,-0.84 7.57,-0.32 7.61,1.03 13.24,8.35 39.01,15.86 19.84,5.76 39.72,9.37 61.79,14.06 41.76,8.87 81.97,14.66 126.16,20.43 195.44,25.51 349.01,2.14 536,-31.63 118.18,-21.34 126.38,-24.08 240.57,-57.07 -5.04,29.54 -22.84,33.84 -27.99,44.91 -6.04,12.96 -5.01,48.46 -5.16,65.5 -0.47,48.27 -3.84,95.44 -3.07,144.07 1.34,85.99 6.75,203 5.83,285.23l1.24 103.59c-1.33,15.75 -3.6,18 -19.96,19.16 -44.4,3.16 -95.58,-0.32 -140.01,2.47 -71.65,4.5 -223.3,8.69 -286.72,5.09zm540.96 -754.61c4.51,105.8 -420.94,136.75 -535.12,146.97 -155.03,13.87 -501.5,8.78 -602.9,-66.48 -76.56,-56.82 6.73,-43.78 65.35,-35.77 238.54,32.6 201.52,35.67 471.19,32.17 109.63,-1.43 212.08,-4.77 316.57,-23.04 43.99,-7.69 262.29,-54.77 284.91,-53.85zm-2171.93 36.43c15.61,-47.79 -19.1,-52.35 -54.29,-63.3 -15.61,-4.86 -22.69,-18.37 -33.98,-29.74 -58.2,-58.61 -20.16,-103.66 21.93,-101.38 39.09,2.12 52.03,36.63 72.35,50.47 26.84,18.3 73.32,14.29 98.43,-2.43 24.51,-16.34 45.28,-36.27 71.69,-52.03 37.7,-22.45 43.41,-5.69 75.8,30.27 20.56,22.82 39.03,41.97 59.43,64.47 38.98,42.98 41.05,28.76 23.22,78.04 -34.67,95.83 -65.08,173.05 -98.82,272.8 -13.85,40.94 -53.82,157.25 -86.3,161.92 -41.1,5.9 -19.31,-62.79 -14.19,-86.35 3.69,-17.04 8.04,-34.09 9.52,-51.68 1.98,-23.38 3.39,-43.52 -13.98,-49.74l-85.21 155.7c-5.37,9.44 -9.06,14.77 -16.21,23.96 -6.29,8.07 -11.24,15.67 -24.66,12.35l31.56 -227.78 -52.73 40.05c-32.24,29.7 -106.2,135.88 -154.76,121.46 25.92,-63.73 19.81,-59.18 63.99,-114.18 31.02,-38.59 67.85,-79 56.6,-121.97l-194.51 91.54c-4.94,-10.48 -7.79,-19.58 7.23,-39.82 7.48,-10.06 16.65,-19.17 24.98,-26.89 23.14,-21.41 60.19,-44.36 88.33,-67.32 10.88,-8.86 19.96,-14.51 29.05,-22.8 25.16,-22.93 30.36,-46.44 40.88,-62.26l54.65 16.64zm2948.06 -298.33c38.04,0.45 91.7,38.68 125.87,3.97 12.48,-12.69 22.58,-28.06 43.45,-37.32 24.06,-10.67 45.96,-3.89 60.16,9.86 34.88,33.81 -10.42,78.65 -33.15,103.71 -21.88,24.13 -101.72,18.19 -72.74,75.69l51.87 -16.53c13.69,24.02 22.52,42.84 42.39,61.95 15.18,14.61 40.97,33.94 57.92,45.81 24.84,17.39 110.71,69.57 94.31,110.52l-195.31 -91.51 17.45 70.44c17.92,40.11 112.98,125.44 101.37,166.46l-62.71 -26.58c-32.9,-20.2 -108.57,-127.77 -141.96,-137.23l-5.53 59.95c2.99,26.11 77.65,140.74 31.55,172.23l-39.24 -40.66c-20.18,-26.23 -62.77,-143.16 -87.53,-153.3l2.41 115.25c1.34,11.18 24.34,84.68 -19.56,71.58 -29.06,-8.68 -98.21,-271.37 -112.98,-325.82 -15.82,-58.38 -16.07,-55.37 17.89,-95.45 21.48,-25.36 41.94,-46.21 64.22,-71.22 20.8,-23.35 40.21,-48.23 59.85,-71.8zm-1340.1 -415.64c108,-9.95 214.15,-17.81 317.78,-33.11 51.39,-7.6 99.84,-15.72 150.37,-26.39l138.85 -32.47 29 169.39c36.13,210.48 49.37,308.49 -14.85,517.54 -11.98,39 -9.57,38.98 -44.95,55.38 -61.36,28.43 -172.46,45.75 -239.86,54.25 -61.15,7.7 -321.82,32.74 -367.46,23.21 0.32,-225.8 -11.24,-516.42 31.12,-727.8zm-677.04 253.09c0,-78.74 10.7,-309.55 48.86,-359.84 104.2,36.72 156.09,52.91 271.4,73.77 146.24,26.46 179.95,20.78 313.58,33.09l-7.43 209.82c-2.47,68.12 -9.82,135.52 -9.86,204.51 -0.06,61.18 2.84,226.75 16.01,287.31 2.25,10.29 8.24,19.59 8.55,27.9l-99.54 0.84 -451.22 -49.17c-18.31,-8.5 -25.02,-12.31 -32.83,-30.84 -6.06,-14.4 -12.12,-30.19 -16.94,-46.36 -33.32,-111.85 -40.58,-231.59 -40.58,-351.03zm-784.37 162.18c6.57,-8.93 15.89,-10.26 27.99,-14.09 100.02,-31.61 185.48,-85.26 271.9,-142.49 32.38,-21.46 61.14,-36.88 91.19,-58.78 16.26,-11.86 27.64,-21.15 46.15,-31.53 88.25,-49.53 146.9,-89.23 231.63,-143.08 17.54,-11.16 79.18,-50.04 94.6,-54.21l3.05 37.08 -14.34 181.15c-12.38,138.18 -15.02,138.82 -9.54,261.77 -62.83,62.81 -138.16,118.29 -213.03,166.81 -67.23,43.58 -130.83,87.92 -196.13,135.16 -6.04,4.37 -20.58,15.36 -27.47,18.66l-29.26 -54.38c-45.44,-74.46 -215.06,-264.65 -276.74,-302.07zm2134.73 -412l-26.82 -112.46 0 -14.11c52.52,-13.86 320.03,165.01 394.77,216.68 31.14,21.52 58.96,42.06 89.18,63.68 49.97,35.75 74.28,60.76 131.74,98.79l135.16 92.59c-34.59,27.5 -54.53,43.34 -87.51,73.47 -65.98,60.3 -130.67,147.94 -179.85,223.6 -9.32,14.33 -24.32,40.73 -35.1,47.02l-183.25 -135.25c-47.75,-35.12 -141.55,-99.19 -173.78,-143.09 -33.62,-45.75 -39.07,-45.95 -37.69,-120.76 2.09,-115.34 -3,-177.42 -26.85,-290.16zm603.61 -874.47c8.85,4.01 16.11,21.42 17.85,35.15 3.64,29.06 -9.19,28.59 -8.46,41.63 22.77,-23.83 41.66,-32 17.34,-74.59 -20.14,-35.27 -42.68,-48.91 -39.36,-74.38 49.16,-19.96 124.5,18.17 131.55,72.58 18.73,144.39 -125.58,170.39 -156.71,147 -19.89,-14.95 -7.01,-58.99 -0.48,-83.6 4.85,-18.34 15.84,-73.9 38.27,-63.79zm-2440.03 170.89c-51.82,-8.33 -110.48,-66.51 -120.5,-116.56 -15.45,-77.31 45.24,-115.55 113.86,-119.55l-7.67 57.69c-8.59,78.38 11.65,118.4 14.31,178.42zm491.72 -519.44c3.53,-4.18 -5.25,-4.38 7.02,-3.72 8.01,-4.01 9.31,-4.6 19.15,-4.41 12.7,-6.35 28.83,2.89 31.19,-6.12 0.24,-0.91 0.96,-1.09 1.51,-1.56 -1.65,-5 -2.55,-4.1 2.55,-2.86 -1.35,-5.58 -2.03,-4.05 3.8,-2.73 10.15,-2.26 28.16,-19.62 55.21,-30.34 63.38,-25.11 133.47,-17.71 189.05,21.9 3.89,2.78 0.68,1.15 4.47,3.05 2.05,-5.48 -0.8,-2.12 5.45,-1.95l4.04 -2.57c56.44,-24.67 135.7,-78.36 182.26,-116.62 17.14,-14.07 18.79,-8.88 65.8,12.39 60.09,27.2 225.53,114.14 283.41,111.98 9.93,-37.84 53.97,-218.71 67.12,-239.9 48.51,24.17 382.22,190.64 415.96,195.99 27.52,-37.74 37.31,-49.1 65.75,-84.14l62.85 -83.27 75.4 157.14c10.89,28.7 20.86,57.66 34.77,80.64 15.04,24.82 33.34,45.43 48.96,65.67l59.71 -36.35c19.62,-13.54 38.58,-25.64 59.38,-35.65 42.71,-20.55 87.53,-65.55 128.11,-65.24 9.13,54.48 36.75,203.62 40.83,247.28 12.98,138.32 -48.36,339.68 -103.31,462.77 -35.76,80.15 -60.24,117.51 -110.03,174.95 -71.85,82.89 -207.09,179.75 -342.1,231.19 -143.99,54.87 -277.22,101.94 -450.64,119.45 -358.44,36.2 -647.78,32.75 -959.67,-149.17 -66.44,-38.76 -116.04,-70.28 -172.93,-115.24 -50.82,-40.18 -105.13,-88.73 -141.31,-143.9 -20.3,-30.95 -31.97,-59.14 -50.14,-93.92 -15.95,-30.56 -27.66,-69.86 -37.29,-104.31 -11.68,-41.78 -57.76,-210.54 -7.38,-230.98 56.36,44.56 137.2,105.28 212.19,105.1 -42.51,-110.87 -120.82,-333.36 -109.93,-435.65 37.43,17.73 81.84,36.54 114.26,58.85 18.24,12.54 34.74,25.39 52.62,36.79 13.84,8.81 37.11,29.69 50.72,35.42l65.87 -72.13c39.31,-39.79 42.74,-33.28 75.32,-57.83zm-644.4 369.36c-4.9,10.78 -10.29,14.69 -17.41,23.9 -6.62,8.55 -9.94,15.11 -15.54,24.74 -9.94,17.15 -19.92,37.75 -25.85,55.31 -25.46,75.58 -18.68,254.36 -271.43,147.02 -128.78,-54.69 -302.81,-179.4 -345.12,-296.72 -53.66,-148.78 206.71,-256.99 321.9,-303.75 107.55,-43.66 245.45,-86.46 360.35,-120.9 21.09,-6.33 39.59,-11.86 61.77,-18.96 17.85,-5.69 44.18,-15.76 60.26,-18.23l-61.73 80.28c-19.97,30.49 -36.9,55.4 -59.49,78.76 -41.95,43.33 -131.53,101.63 -144.78,132.46 57.55,68.71 31.08,31.79 69.44,106.87 21.22,41.5 63.57,100.77 67.63,109.22zm2684.62 -141.77c36.49,-19.29 75.43,-59.14 99.69,-92.57 10.96,-15.11 27.6,-39.26 37.25,-60.54 33.5,-73.87 -12.31,-16.69 -117.93,-150.77 -24.37,-30.93 -58.18,-81.45 -66.03,-125.82 81.98,17.09 146.9,29.9 228.24,52.65 116.61,32.6 299.61,92.14 386.45,169.96 43.53,38.99 103.23,95.95 65.71,187.3 -24.84,60.47 -86.93,110.51 -134.05,145.3 -53.07,39.18 -111.71,70.77 -189.06,88.08 -38.78,8.69 -225.03,29.26 -249.04,2.14 -10.47,-11.84 -5.35,-43.97 -5.77,-62.46 -2.68,-118 -57.62,-96.91 -55.46,-153.27zm-2819.69 -378.09c78.32,-72.84 564.38,-168.82 715.39,-198.5 227.62,-44.72 585.93,-105.59 813.22,-103.06 378.08,4.2 683.98,33.38 1046.47,100.33 98.48,18.19 482.95,121.21 525.32,158.11l-184.37 -37.87c-60.27,-16.31 -117.3,-32.3 -176.91,-47.93 -120.23,-31.54 -247.19,-52.51 -373.05,-73.18 -270.13,-44.35 -555.11,-63.44 -837.46,-59.42 -418.87,5.96 -775.72,81.31 -1171.12,174.78l-357.49 86.74zm183.07 -136.39c8.53,-20.11 104.87,-135.01 141.89,-195.63 43.25,-70.78 71.36,-152.2 91.01,-243.83 20.8,-97.07 33.88,-199.38 31.69,-304.54 -2.2,-105.48 -10.08,-208.25 40.33,-288.55 118.86,-189.34 712.36,-316.15 1020.48,-323.53 213.28,-5.1 417.35,-2.37 606.94,60.38 89.76,29.71 151.25,67.13 223.18,113.43 63.6,40.93 139.29,99 177.71,156.51 123.34,184.58 -3.74,543.82 289.76,882.87 14.21,16.4 68.69,74.33 70.31,95.62 -223.5,-39.37 -421.43,-76.36 -652.22,-106.73 -111.57,-14.68 -231.03,-28.52 -346.77,-34.04 -540.59,-25.8 -856.85,28.67 -1377.29,126.85 -64.77,12.22 -271.13,56.21 -317.02,61.19z"/>
  <path class="fil13" d="M7702.49 6064.53c45.89,-4.98 252.25,-48.97 317.02,-61.19 520.44,-98.18 836.7,-152.65 1377.29,-126.85 115.74,5.52 235.2,19.36 346.77,34.04 230.79,30.37 428.72,67.36 652.22,106.73 -1.62,-21.29 -56.1,-79.22 -70.31,-95.62 -293.5,-339.05 -166.42,-698.29 -289.76,-882.87 -38.42,-57.51 -114.11,-115.58 -177.71,-156.51 -71.93,-46.3 -133.42,-83.72 -223.18,-113.43 -189.59,-62.75 -393.66,-65.48 -606.94,-60.38 -308.12,7.38 -901.62,134.19 -1020.48,323.53 -50.41,80.3 -42.53,183.07 -40.33,288.55 2.19,105.16 -10.89,207.47 -31.69,304.54 -19.65,91.63 -47.76,173.05 -91.01,243.83 -37.02,60.62 -133.36,175.52 -141.89,195.63z"/>
  <path class="fil14" d="M8839.23 7240.37c45.61,-2.11 104.89,41.7 176.52,12.85 43.64,-17.57 94.93,-56.59 123.48,-82.14l-51.72 90.49c-25.86,20.37 -65.9,36.31 -108.63,36.31 -9.17,0.01 -77.52,-15.05 -86.64,-18.23 -25.63,-12.38 -36.46,-22.91 -53.01,-39.28zm-227.17 -327.53l3.56 -2.03 -3.56 2.03c-4.28,2.52 -2.13,-0.14 -7.93,6.34 -5.08,-0.64 -4.11,-2 -4.11,2.59l4.11 -2.59 6.66 2.1c-56.56,25.92 -90.59,49.48 -159.18,33.27 -41.78,-9.86 -85.47,-36.77 -112.83,-66.62 -6.77,-7.38 -9.46,-7.79 -4.41,-12.53l2.83 2.96 2.89 2.88 3.21 2.55 2.84 2.95 2.85 2.85 2.83 2.99 2.56 3.16c-0.14,4.27 -1.1,3.33 3.19,2.51l4.24 4.44 3.38 2.37 3.55 2.23 3.09 3.39c0,-4.37 1.12,-3.33 -3.09,-3.39l-3.55 -2.23 -3.38 -2.37 -4.24 -4.44 -3.19 -2.51 -2.56 -3.16 -2.83 -2.99 -2.85 -2.85 -2.84 -2.95 -3.21 -2.55 -2.89 -2.88 -2.83 -2.96 -2.86 -3.05c-7.44,5.52 1.33,2.65 -5.24,1.03 -1.06,-0.27 -3.31,-1.58 -4.1,-2.95 -7.48,-12.95 -2.42,-5.77 0.85,-9.54l2.58 3.23 2.28 2.77 -2.28 -2.77 -2.58 -3.23 -3.22 -3.16c-4.86,4.45 0.16,13.88 -17.99,-15.97 -4.41,-7.26 -4.43,-6.9 -5.67,-14.17l18.14 21.95 2.41 3 -2.41 -3c-3.51,-5.67 -5.31,-8.34 -8.9,-14.2l-7 -11.24c-0.2,-1.09 -0.85,-1.3 -1.29,-1.94 -4.15,4.43 -0.15,15.54 -14.13,-13.42 -60.17,-124.73 -57.49,-254.82 1.26,-379.31 11.81,-25.04 9.31,-17.27 12.95,-11.19 5.08,0 3.44,1.01 2.83,-4.8l1.7 -3.77 -1.7 3.77c-1.53,-1.82 -15.14,2.29 13.99,-31.98l-0.26 8.27c-4.73,6.45 -6.3,7.14 -8.53,14.54l-3.02 3.71c4.52,0 3.31,1.05 3.02,-3.71 8.16,-9.22 12.51,-18.84 21.05,-27.88l2 -3.78 2.47 -2.46 -2.47 2.46 -2 3.78c-11.18,-11.88 8.39,-7.25 17.77,-33.09l-18.96 -0.01 -19.15 4.41c-0.99,3.98 3.28,2.18 -7.02,3.72 -32.58,24.55 -36.01,18.04 -75.32,57.83l-65.87 72.13c-13.61,-5.73 -36.88,-26.61 -50.72,-35.42 -17.88,-11.4 -34.38,-24.25 -52.62,-36.79 -32.42,-22.31 -76.83,-41.12 -114.26,-58.85 -10.89,102.29 67.42,324.78 109.93,435.65 -74.99,0.18 -155.83,-60.54 -212.19,-105.1 -50.38,20.44 -4.3,189.2 7.38,230.98 9.63,34.45 21.34,73.75 37.29,104.31 18.17,34.78 29.84,62.97 50.14,93.92 36.18,55.17 90.49,103.72 141.31,143.9 56.89,44.96 106.49,76.48 172.93,115.24 311.89,181.92 601.23,185.37 959.67,149.17 173.42,-17.51 306.65,-64.58 450.64,-119.45 135.01,-51.44 270.25,-148.3 342.1,-231.19 49.79,-57.44 74.27,-94.8 110.03,-174.95 54.95,-123.09 116.29,-324.45 103.31,-462.77 -4.08,-43.66 -31.7,-192.8 -40.83,-247.28 -40.58,-0.31 -85.4,44.69 -128.11,65.24 -20.8,10.01 -39.76,22.11 -59.38,35.65l-59.71 36.35c-15.62,-20.24 -33.92,-40.85 -48.96,-65.67 -13.91,-22.98 -23.88,-51.94 -34.77,-80.64l-75.4 -157.14 -62.85 83.27c-28.44,35.04 -38.23,46.4 -65.75,84.14 -33.74,-5.35 -367.45,-171.82 -415.96,-195.99 -13.15,21.19 -57.19,202.06 -67.12,239.9 -57.88,2.16 -223.32,-84.78 -283.41,-111.98 -47.01,-21.27 -48.66,-26.46 -65.8,-12.39 -46.56,38.26 -125.82,91.95 -182.26,116.62 0,5.13 1.11,3.98 -4.04,2.57 9.48,11.83 15.4,4.75 4.21,12.99 0,4.67 -1.21,3.61 3.32,3.5l3.54 2.08 -3.54 -2.08c6.78,-5.68 -2.17,-5.58 9.06,-0.74 14.25,6.12 68.99,79.07 73.46,103.51l-6.1 -6.59c-0.51,-0.53 -2.56,-1.64 -2.86,-2.9 -0.2,-0.87 -0.88,-1 -1.39,-1.41l-1.63 -3.07 1.63 3.07 9.06 16.1c5.9,-11.89 6.05,-1.67 10.43,10.72 21.11,59.79 33.91,103.45 31.01,173.6 -1.5,36.44 -5.87,70.37 -14.87,103.51 -4.92,18.16 -14.94,48.08 -23.73,65.32 -0.3,0.59 -0.69,1.33 -0.99,1.91l-1.53 -9.02 -11.86 21.78 -1.81 3.09 1.81 -3.09c2.17,2.52 9.88,-1.75 -2.89,17 -25.47,37.38 -31.75,49.17 -66.84,77.47l-11.39 10.95c-2.45,-2.26 -4.09,-3.86 -2.33,-7.54zm1025.11 -0.68l3.87 -1.9 3.06 -2.15 -3.06 2.15 -3.87 1.9 -4.69 3.93 -3.89 2.49 3.89 -2.49c4.35,1.77 17.04,1.26 2.12,7.73 -13.68,5.94 -4.45,3.22 -11.44,-2.69l3.36 -1.62 -3.36 1.62 -5.25 3.33 -4.78 2.19 4.78 -2.19 9.62 4.44 -56.56 21.42c-34.76,10.82 -90.71,4.3 -124.05,-11.51 -9.91,-4.7 -14.93,-7.56 -24.58,-13.07 -24.58,-14.06 -22.1,-8.53 -11.86,-16.01 0,-4.68 1.03,-3.34 -4.03,-2.93l-3.61 -2.13 -3.69 -2.06 -2.8 -2.67 2.8 2.67 3.69 2.06 3.61 2.13c-8.45,7.54 1.28,7.04 -10.98,0.09l-24.36 -19.37 -19.67 -23.56c-4.88,-7.21 -3.03,-1.45 -3.4,-10.72 10.23,6.12 5.77,4.09 12.07,11.04l6 5.27 2.56 3.14 2.61 3.15 2.72 3.03 2.76 3 2.9 2.86 2.98 2.75 3.03 2.72 3.12 2.58 3.42 2.4 3.32 3.3c0,-4.51 1.15,-3.45 -3.32,-3.3l-3.42 -2.4 -3.12 -2.58 -3.03 -2.72 -2.98 -2.75 -2.9 -2.86 -2.76 -3 -2.72 -3.03 -2.61 -3.15 -2.56 -3.14c-4.14,-6.7 -3.78,-3.96 -8.88,-11.29 -0.82,-1.16 -2.87,-4.46 -3.55,-5.45 -3.13,-4.46 -0.72,-1.94 -4.1,-5.25 -9.28,9.52 -2.4,3.01 -6.13,2.93 -5.92,-0.11 -28.92,-44.76 -32.84,-52.6 -5.27,-10.55 -11.19,-17.94 -1.63,-23.64l2.24 5.61 -2.24 -5.61c1.27,-5.49 2.73,-4.48 -2.36,-4.48 -7.93,7.17 -1.64,21.48 -15.96,-24 -11.07,-35.1 -18.88,-80.78 -19.55,-117.19 -1.61,-85.24 11.89,-94.24 23.4,-158.11l4.42 10.92 4.03 -7.38 2.03 -5.79 -2.03 5.79c-5.63,-4.88 -11.21,1.2 2.44,-26.04l34.98 -66.67 4.75 8.3 -1.71 4.08 -2.8 3.96 2.8 -3.96 1.71 -4.08 4.53 -4.05 1.83 -3.96 2.29 -2.7 -2.29 2.7 -1.83 3.96c-6.94,-7.27 -5.11,5.34 -5.61,-8.66l49.23 -51.22 8.04 5.09 -3.27 2.5 -3.39 2.34 -3.44 2.38 -3.74 2 -3.18 2.53 -3.06 2.71 -3.05 2.71 -2.86 2.86 -2.68 3.08 -2.71 3.07 -2.27 3.43 -2.2 3.56 -2.4 3.37 -2.39 3.41 -2.46 3.25c-6.83,-2.56 -5.1,-3.21 -3.27,3.9 4.79,0 3.51,1.11 3.27,-3.9l2.46 -3.25 2.39 -3.41 2.4 -3.37 2.2 -3.56 2.27 -3.43 2.71 -3.07 2.68 -3.08 2.86 -2.86 3.05 -2.71 3.06 -2.71 3.18 -2.53 3.74 -2 3.44 -2.38 3.39 -2.34 3.27 -2.5 4.08 -4.47 2.87 -2.77 -2.87 2.77c-0.81,-0.3 -2.19,-0.43 -2.54,-0.62 -3.29,-1.87 -2.17,-1.6 -2.07,-3.96 29.61,-18.17 48.12,-32.03 84.36,-39.94 147.43,-32.23 226.37,108 238.09,117.45l-5.72 9.14 -1.31 -3.84 1.31 3.84 3.67 5.04c-0.18,4.99 -1.62,4.09 2.72,4.09l-2.72 -4.09 4.64 -9.6 24.64 52.9c39.59,92.56 38.67,213.66 3.62,309.87 -2.97,8.18 -35.86,77.53 -43.17,84.57 -8.12,7.82 -0.45,13.11 -10.66,-0.69l-10.59 13.61c-9.43,10.95 -26.46,23.86 -33.66,35.3l-3.48 2.26 -3.73 2.06c-4.53,0.18 -3.5,-1.05 -3.5,3.26l3.5 -3.26 3.73 -2.06 3.48 -2.26c8.31,-4.44 10.39,-10.66 23.45,-22.63l7.48 -6.7c0.38,-0.42 0.93,-1.08 1.3,-1.52 0.39,-0.45 0.86,-1.16 1.24,-1.63 11.69,-14.87 4.02,-8.98 12.3,-10.56 -7.57,18.94 -2.79,9.08 -12.12,19.08l-23.06 23.2c-0.43,0.39 -1.04,0.97 -1.46,1.36 -0.42,0.41 -0.99,1.03 -1.41,1.43l-18.06 16.13 -8.5 -5.36zm-555.05 -15.09c18.64,22.48 32.37,53.83 24.03,92.64 -14.2,66.3 -91,122.36 -129.34,110.6 -6.74,-25.99 8.55,-17.81 29.67,-26.47 34.34,-14.08 69.57,-48.12 77.17,-89.75 6.71,-36.76 -10.53,-64 -27.75,-81.04 -39.8,-39.43 -59.84,-25.09 -51.11,-52.64l77.33 46.66z"/>
  <path class="fil6" d="M8993.28 9003.32c63.42,3.6 215.07,-0.59 286.72,-5.09 44.43,-2.79 95.61,0.69 140.01,-2.47 16.36,-1.16 18.63,-3.41 19.96,-19.16l-1.24 -103.59c0.92,-82.23 -4.49,-199.24 -5.83,-285.23 -0.77,-48.63 2.6,-95.8 3.07,-144.07 0.15,-17.04 -0.88,-52.54 5.16,-65.5 5.15,-11.07 22.95,-15.37 27.99,-44.91 -114.19,32.99 -122.39,35.73 -240.57,57.07 -186.99,33.77 -340.56,57.14 -536,31.63 -44.19,-5.77 -84.4,-11.56 -126.16,-20.43 -22.07,-4.69 -41.95,-8.3 -61.79,-14.06 -25.77,-7.51 -31.4,-14.83 -39.01,-15.86 -3.88,-0.52 -4.06,-0.32 -7.57,0.32 -8.14,1.47 -2.21,-0.47 -7.01,3.07 39.57,58.46 38.39,44.83 38.71,103.25 0.44,80.07 -8.52,195.85 -10.85,282.36 -2.04,75.19 -8.45,137.28 -8.97,216.13 -0.19,30 2.25,37.75 28.59,45.26 23.36,6.66 110.4,6.57 140.37,6.18 59.56,-0.77 236.7,7.63 276.62,-13.51 2.46,-14.88 2.99,-13.41 2.05,-28.74 -4.42,-72.73 -3.87,-146.35 -2.84,-219.56 1.14,-81.06 1.45,-162.63 20.17,-234.01l44.95 13.53 4.9 13.7c1.73,9.92 0.84,31.68 0.97,42.55 0.26,20.24 0.48,40.26 0.24,60.51 -0.48,40.25 -2.06,78.56 -2.94,118.24 -0.81,37.11 -6.37,79.69 -6.08,118.01 0.36,51.04 -6.57,84.69 16.38,104.38z"/>
  <path class="fil15" d="M8995.77 8130.33l3.45 2.19 3.27 2.32 2.28 3.39 3.83 3.5c5.95,40.92 -28.34,51.88 -44.58,31.64 -16.09,-20.04 0.11,-54.13 31.75,-43.04zm-22 -119.29c33.06,-16.01 50.19,40.15 17.86,50.65 -30.69,9.98 -51.19,-34.48 -17.86,-50.65zm-6.59 -130.09c32.6,-17.97 53.08,38.21 20.26,50 -30.38,10.92 -51.66,-32.67 -20.26,-50zm11.73 -132.61c36.05,-10.67 42.63,44.52 13.9,52.5 -32.64,9.05 -48.13,-42.37 -13.9,-52.5zm5.1 -112.52c37.78,-16.34 49.37,36.14 24.69,48.33 -33.74,16.66 -55.15,-35.14 -24.69,-48.33zm-13.74 -64.65c-42.36,211.38 -30.8,502 -31.12,727.8 45.64,9.53 306.31,-15.51 367.46,-23.21 67.4,-8.5 178.5,-25.82 239.86,-54.25 35.38,-16.4 32.97,-16.38 44.95,-55.38 64.22,-209.05 50.98,-307.06 14.85,-517.54l-29 -169.39 -138.85 32.47c-50.53,10.67 -98.98,18.79 -150.37,26.39 -103.63,15.3 -209.78,23.16 -317.78,33.11z"/>
  <path class="fil15" d="M8293.23 7824.26c0,119.44 7.26,239.18 40.58,351.03 4.82,16.17 10.88,31.96 16.94,46.36 7.81,18.53 14.52,22.34 32.83,30.84l451.22 49.17 99.54 -0.84c-0.31,-8.31 -6.3,-17.61 -8.55,-27.9 -13.17,-60.56 -16.07,-226.13 -16.01,-287.31 0.04,-68.99 7.39,-136.39 9.86,-204.51l7.43 -209.82c-133.63,-12.31 -167.34,-6.63 -313.58,-33.09 -115.31,-20.86 -167.2,-37.05 -271.4,-73.77 -38.16,50.29 -48.86,281.1 -48.86,359.84z"/>
  <path class="fil13" d="M8471.16 9322.46l-56.22 95.52c-31.72,14.36 -88.92,21.36 -127.6,23.78 -47.51,2.98 -96.64,2.18 -144.34,4.35 -61.34,2.79 -76.56,11.29 -102.81,47.03 -18.79,25.59 -44.18,75.69 -22.19,115.97 53.22,97.52 254.97,102.41 350.03,100.2l417.43 -19.48c30.7,-2.49 73.17,2.65 93.09,-15.29 73.88,-66.64 58.49,-349.04 54.32,-464.55 -4.16,-115.35 8.12,-102.11 -34.68,-102.2 -50.41,-0.1 -124.18,7.82 -175.71,8.66 -60.46,0.99 -179.89,-6.78 -241.66,8.38 -7.03,1.74 -4.06,-0.1 -7.7,3.55l-8.67 73.14 6.71 120.94z"/>
  <path class="fil13" d="M9407.16 9113.15c-31.17,-1.07 -60.21,-0.68 -91.22,-2.53 -31.32,-1.87 -60.54,-4.88 -92.16,-4.95 -50.28,-0.11 -138.5,-2.01 -178.79,12.26 -24.44,8.66 -38.87,23.12 -39.96,54.6 -4.37,125.38 -24.43,332.78 18.57,439.36 18.74,46.44 48.67,78.82 110.8,79.79 118.35,1.85 230.94,25.49 345.99,30.16 128.32,5.2 224.42,-6.87 322.45,-56.4 42.09,-21.27 85.49,-46.08 87.74,-103.74 2.08,-53.87 -38.94,-101.99 -77.63,-113.82 -103.49,-31.64 -248.22,32.04 -342.55,-20.47 -27.05,-15.06 -30.31,-22.3 -35.02,-59.27 -8.25,-65.07 -11.69,-218.76 -28.22,-254.99z"/>
  <path class="fil13" d="M7654.49 6720.78c-4.06,-8.45 -46.41,-67.72 -67.63,-109.22 -38.36,-75.08 -11.89,-38.16 -69.44,-106.87 13.25,-30.83 102.83,-89.13 144.78,-132.46 22.59,-23.36 39.52,-48.27 59.49,-78.76l61.73 -80.28c-16.08,2.47 -42.41,12.54 -60.26,18.23 -22.18,7.1 -40.68,12.63 -61.77,18.96 -114.9,34.44 -252.8,77.24 -360.35,120.9 -115.19,46.76 -375.56,154.97 -321.9,303.75 42.31,117.32 216.34,242.03 345.12,296.72 252.75,107.34 245.97,-71.44 271.43,-147.02 5.93,-17.56 15.91,-38.16 25.85,-55.31 5.6,-9.63 8.92,-16.19 15.54,-24.74 7.12,-9.21 12.51,-13.12 17.41,-23.9z"/>
  <path class="fil15" d="M9616.77 7447.87l0 14.11 26.82 112.46c23.85,112.74 28.94,174.82 26.85,290.16 -1.38,74.81 4.07,75.01 37.69,120.76 32.23,43.9 126.03,107.97 173.78,143.09l183.25 135.25c10.78,-6.29 25.78,-32.69 35.1,-47.02 49.18,-75.66 113.87,-163.3 179.85,-223.6 32.98,-30.13 52.92,-45.97 87.51,-73.47l-135.16 -92.59c-57.46,-38.03 -81.77,-63.04 -131.74,-98.79 -30.22,-21.62 -58.04,-42.16 -89.18,-63.68 -74.74,-51.67 -342.25,-230.54 -394.77,-216.68z"/>
  <path class="fil15" d="M7508.86 7986.44c61.68,37.42 231.3,227.61 276.74,302.07l29.26 54.38c6.89,-3.3 21.43,-14.29 27.47,-18.66 65.3,-47.24 128.9,-91.58 196.13,-135.16 74.87,-48.52 150.2,-104 213.03,-166.81 -5.48,-122.95 -2.84,-123.59 9.54,-261.77l14.34 -181.15 -3.05 -37.08c-15.42,4.17 -77.06,43.05 -94.6,54.21 -84.73,53.85 -143.38,93.55 -231.63,143.08 -18.51,10.38 -29.89,19.67 -46.15,31.53 -30.05,21.9 -58.81,37.32 -91.19,58.78 -86.42,57.23 -171.88,110.88 -271.9,142.49 -12.1,3.83 -21.42,5.16 -27.99,14.09z"/>
  <path class="fil13" d="M10339.11 6579.01c-2.16,56.36 52.78,35.27 55.46,153.27 0.42,18.49 -4.7,50.62 5.77,62.46 24.01,27.12 210.26,6.55 249.04,-2.14 77.35,-17.31 135.99,-48.9 189.06,-88.08 47.12,-34.79 109.21,-84.83 134.05,-145.3 37.52,-91.35 -22.18,-148.31 -65.71,-187.3 -86.84,-77.82 -269.84,-137.36 -386.45,-169.96 -81.34,-22.75 -146.26,-35.56 -228.24,-52.65 7.85,44.37 41.66,94.89 66.03,125.82 105.62,134.08 151.43,76.9 117.93,150.77 -9.65,21.28 -26.29,45.43 -37.25,60.54 -24.26,33.43 -63.2,73.28 -99.69,92.57z"/>
  <path class="fil15" d="M8600.99 6663.16c-5.5,44.13 -14.81,81.99 -37.66,111.81 -69.12,90.26 -203.83,8.24 -173.81,-197.05 10.7,-73.16 54.6,-188.45 138.3,-135.09 53.34,34.02 84.28,131.01 73.17,220.33zm-236.88 -333.14c0,4.98 1.16,3.92 -3.8,2.73 1.2,4.85 2.24,4.09 -2.55,2.86 -1.22,11.21 -3.21,8.58 -12.48,16.67 -6.94,6.07 -10.46,8.78 -14.56,17.87l-2.47 2.46 -2 3.78c-8.54,9.04 -12.89,18.66 -21.05,27.88 0.29,4.76 1.5,3.71 -3.02,3.71l-0.48 1.69 -1.7 3.77c0.61,5.81 2.25,4.8 -2.83,4.8 -30.86,40.62 -51.76,135.73 -51.8,201.7 -0.03,38.61 4.97,77.65 14.9,114 6.9,25.3 25.03,75.07 36.82,88.22 0.44,0.64 1.09,0.85 1.29,1.94l7 11.24c3.59,5.86 5.39,8.53 8.9,14.2l2.41 3 3.11 5.19 3.22 3.16 2.58 3.23 2.28 2.77 3.63 5.46 2.86 3.05 2.83 2.96 2.89 2.88 3.21 2.55 2.84 2.95 2.85 2.85 2.83 2.99 2.56 3.16 3.19 2.51 4.24 4.44 3.38 2.37 3.55 2.23c4.21,0.06 3.09,-0.98 3.09,3.39 28.62,17.99 61.1,40.7 108.61,41.95 42.18,1.1 91.72,-7.34 119.58,-30.86 0,-4.59 -0.97,-3.23 4.11,-2.59 5.8,-6.48 3.65,-3.82 7.93,-6.34l3.56 -2.03c17.85,-10.19 30.42,-24.63 43.17,-40.41 13.38,-16.6 27.33,-30.45 34.91,-52.35l1.81 -3.09 11.86 -21.78c22.59,-58.99 35.64,-102.38 35.6,-173.24 -0.04,-56.38 -12.68,-128.15 -35.92,-172.8l-9.06 -16.1 -1.63 -3.07c-8.09,-26.62 -50.25,-78.05 -67,-86.72l-3.54 -2.08c-4.53,0.11 -3.32,1.17 -3.32,-3.5l-9.66 -11.04c-3.79,-1.9 -0.58,-0.27 -4.47,-3.05 -55.58,-39.61 -125.67,-47.01 -189.05,-21.9 -27.05,10.72 -45.06,28.08 -55.21,30.34z"/>
  <path class="fil15" d="M9518.11 6429.22c143.03,-37.65 168.73,362.92 18.85,376.86 -148.65,13.83 -172.34,-336.45 -18.85,-376.86zm-109.84 -105.7l-2.87 2.77 -4.08 4.47 -3.27 2.5 -3.39 2.34 -3.44 2.38 -3.74 2 -3.18 2.53 -3.06 2.71 -3.05 2.71 -2.86 2.86 -2.68 3.08 -2.71 3.07 -2.27 3.43 -2.2 3.56 -2.4 3.37 -2.39 3.41 -2.46 3.25c0.24,5.01 1.52,3.9 -3.27,3.9l-1.17 1.03 -2.29 2.7 -1.83 3.96 -4.53 4.05 -1.71 4.08 -2.8 3.96c-12.4,12.9 -31.82,51.72 -35.63,70.58l-2.03 5.79 -4.03 7.38c-5.11,23.84 -12.67,43.13 -16.12,70.42 -3.28,26.03 -5.72,52.97 -4.55,79.65 1.64,37.99 12.27,111.39 28.36,138.31 5.09,0 3.63,-1.01 2.36,4.48l2.24 5.61c4.98,19.21 27.33,57.09 38.36,67.7 3.38,3.31 0.97,0.79 4.1,5.25 0.68,0.99 2.73,4.29 3.55,5.45 5.1,7.33 4.74,4.59 8.88,11.29l2.56 3.14 2.61 3.15 2.72 3.03 2.76 3 2.9 2.86 2.98 2.75 3.03 2.72 3.12 2.58 3.42 2.4c4.47,-0.15 3.32,-1.21 3.32,3.3l0.82 1.46 2.8 2.67 3.69 2.06 3.61 2.13c5.06,-0.41 4.03,-1.75 4.03,2.93 23.07,18.03 54.47,32.84 92.95,37.71 30.59,3.87 89.43,-3.19 109.7,-20.79l4.78 -2.19 5.25 -3.33 3.36 -1.62 2.07 -0.93 3.89 -2.49 4.69 -3.93 3.87 -1.9 3.06 -2.15 1.2 -1.17c0,-4.31 -1.03,-3.08 3.5,-3.26l3.73 -2.06 3.48 -2.26c7.2,-11.44 24.23,-24.35 33.66,-35.3l10.59 -13.61c13.8,-6.62 42.22,-68.96 49.03,-90.73 12.01,-38.49 21.48,-70.75 23.3,-113.8 3.37,-79.06 -11.24,-173.89 -48.68,-228.43 -4.34,0 -2.9,0.9 -2.72,-4.09l-3.67 -5.04 -1.31 -3.84c-6.93,-18.8 -40.27,-55.35 -52.77,-65.66 -19.29,-15.94 -40.83,-31.9 -71.89,-43.25 -61.77,-22.56 -141.67,-7.64 -183.28,27.91z"/>
  <path class="fil14" d="M7362.31 8285.14l-54.65 -16.64c-10.52,15.82 -15.72,39.33 -40.88,62.26 -9.09,8.29 -18.17,13.94 -29.05,22.8 -28.14,22.96 -65.19,45.91 -88.33,67.32 -8.33,7.72 -17.5,16.83 -24.98,26.89 -15.02,20.24 -12.17,29.34 -7.23,39.82l194.51 -91.54c11.25,42.97 -25.58,83.38 -56.6,121.97 -44.18,55 -38.07,50.45 -63.99,114.18 48.56,14.42 122.52,-91.76 154.76,-121.46l52.73 -40.05 -31.56 227.78c13.42,3.32 18.37,-4.28 24.66,-12.35 7.15,-9.19 10.84,-14.52 16.21,-23.96l85.21 -155.7c17.37,6.22 15.96,26.36 13.98,49.74 -1.48,17.59 -5.83,34.64 -9.52,51.68 -5.12,23.56 -26.91,92.25 14.19,86.35 32.48,-4.67 72.45,-120.98 86.3,-161.92 33.74,-99.75 64.15,-176.97 98.82,-272.8 17.83,-49.28 15.76,-35.06 -23.22,-78.04 -20.4,-22.5 -38.87,-41.65 -59.43,-64.47 -32.39,-35.96 -38.1,-52.72 -75.8,-30.27 -26.41,15.76 -47.18,35.69 -71.69,52.03 -25.11,16.72 -71.59,20.73 -98.43,2.43 -20.32,-13.84 -33.26,-48.35 -72.35,-50.47 -42.09,-2.28 -80.13,42.77 -21.93,101.38 11.29,11.37 18.37,24.88 33.98,29.74 35.19,10.95 69.9,15.51 54.29,63.3z"/>
  <path class="fil14" d="M10310.37 7986.81c-19.64,23.57 -39.05,48.45 -59.85,71.8 -22.28,25.01 -42.74,45.86 -64.22,71.22 -33.96,40.08 -33.71,37.07 -17.89,95.45 14.77,54.45 83.92,317.14 112.98,325.82 43.9,13.1 20.9,-60.4 19.56,-71.58l-2.41 -115.25c24.76,10.14 67.35,127.07 87.53,153.3l39.24 40.66c46.1,-31.49 -28.56,-146.12 -31.55,-172.23l5.53 -59.95c33.39,9.46 109.06,117.03 141.96,137.23l62.71 26.58c11.61,-41.02 -83.45,-126.35 -101.37,-166.46l-17.45 -70.44 195.31 91.51c16.4,-40.95 -69.47,-93.13 -94.31,-110.52 -16.95,-11.87 -42.74,-31.2 -57.92,-45.81 -19.87,-19.11 -28.7,-37.93 -42.39,-61.95l-51.87 16.53c-28.98,-57.5 50.86,-51.56 72.74,-75.69 22.73,-25.06 68.03,-69.9 33.15,-103.71 -14.2,-13.75 -36.1,-20.53 -60.16,-9.86 -20.87,9.26 -30.97,24.63 -43.45,37.32 -34.17,34.71 -87.83,-3.52 -125.87,-3.97z"/>
  <path class="fil15" d="M7519.42 6200.92l357.49 -86.74c395.4,-93.47 752.25,-168.82 1171.12,-174.78 282.35,-4.02 567.33,15.07 837.46,59.42 125.86,20.67 252.82,41.64 373.05,73.18 59.61,15.63 116.64,31.62 176.91,47.93l184.37 37.87c-42.37,-36.9 -426.84,-139.92 -525.32,-158.11 -362.49,-66.95 -668.39,-96.13 -1046.47,-100.33 -227.29,-2.53 -585.6,58.34 -813.22,103.06 -151.01,29.68 -637.07,125.66 -715.39,198.5z"/>
  <path class="fil6" d="M9534.24 8248.71c-22.62,-0.92 -240.92,46.16 -284.91,53.85 -104.49,18.27 -206.94,21.61 -316.57,23.04 -269.67,3.5 -232.65,0.43 -471.19,-32.17 -58.62,-8.01 -141.91,-21.05 -65.35,35.77 101.4,75.26 447.87,80.35 602.9,66.48 114.18,-10.22 539.63,-41.17 535.12,-146.97z"/>
  <path class="fil12" d="M9518.11 6429.22c-153.49,40.41 -129.8,390.69 18.85,376.86 149.88,-13.94 124.18,-414.51 -18.85,-376.86z"/>
  <path class="fil12" d="M8600.99 6663.16c11.11,-89.32 -19.83,-186.31 -73.17,-220.33 -83.7,-53.36 -127.6,61.93 -138.3,135.09 -30.02,205.29 104.69,287.31 173.81,197.05 22.85,-29.82 32.16,-67.68 37.66,-111.81z"/>
  <path class="fil14" d="M10234.57 6627.78c-3.32,25.47 19.22,39.11 39.36,74.38 24.32,42.59 5.43,50.76 -17.34,74.59 -0.73,-13.04 12.1,-12.57 8.46,-41.63 -1.74,-13.73 -9,-31.14 -17.85,-35.15 -22.43,-10.11 -33.42,45.45 -38.27,63.79 -6.53,24.61 -19.41,68.65 0.48,83.6 31.13,23.39 175.44,-2.61 156.71,-147 -7.05,-54.41 -82.39,-92.54 -131.55,-72.58z"/>
  <path class="fil15" d="M9094.12 9082.69c104.43,0.21 191.08,6.78 296.68,-0.28 16.92,-1.13 42.2,-0.67 36.52,-20.53 -7.61,-26.57 -66.27,-24.75 -96.93,-24.8l-309.7 2.22 -11.61 42.64 85.04 0.75z"/>
  <path class="fil14" d="M7779.16 6795.34c-51.38,38.84 -44.69,-85.58 -11.33,-108.27 -8.85,88.82 -13.67,73.98 11.07,94.95l0.26 13.32zm28.01 75.52c-2.66,-60.02 -22.9,-100.04 -14.31,-178.42l7.67 -57.69c-68.62,4 -129.31,42.24 -113.86,119.55 10.02,50.05 68.68,108.23 120.5,116.56z"/>
  <path class="fil15" d="M8481.67 9096.02c78.68,2.74 156.19,4.28 234.83,0.94 39.12,-1.66 79.96,0.24 118.52,-1.7 39.74,-2 79.41,4.58 84.19,-32.92l-220.3 -7.82c-74.76,7.25 -148.6,3.02 -223.28,7.16l6.04 34.34z"/>
  <path class="fil12" d="M9700.26 6850.45c10.21,13.8 2.54,8.51 10.66,0.69 7.31,-7.04 40.2,-76.39 43.17,-84.57 35.05,-96.21 35.97,-217.31 -3.62,-309.87l-24.64 -52.9 -4.64 9.6 2.72 4.09c37.44,54.54 52.05,149.37 48.68,228.43 -1.82,43.05 -11.29,75.31 -23.3,113.8 -6.81,21.77 -35.23,84.11 -49.03,90.73zm-294.86 -524.16l2.87 -2.77c41.61,-35.55 121.51,-50.47 183.28,-27.91 31.06,11.35 52.6,27.31 71.89,43.25 12.5,10.31 45.84,46.86 52.77,65.66l1.31 3.84 5.72 -9.14c-11.72,-9.45 -90.66,-149.68 -238.09,-117.45 -36.24,7.91 -54.75,21.77 -84.36,39.94 -0.1,2.36 -1.22,2.09 2.07,3.96 0.35,0.19 1.73,0.32 2.54,0.62zm-55.74 59.26l1.83 -3.96 2.29 -2.7 1.17 -1.03c-1.83,-7.11 -3.56,-6.46 3.27,-3.9l2.46 -3.25 2.39 -3.41 2.4 -3.37 2.2 -3.56 2.27 -3.43 2.71 -3.07 2.68 -3.08 2.86 -2.86 3.05 -2.71 3.06 -2.71 3.18 -2.53 3.74 -2 3.44 -2.38 3.39 -2.34 3.27 -2.5 -8.04 -5.09 -49.23 51.22c0.5,14 -1.33,1.39 5.61,8.66zm-46.7 88.46l2.03 -5.79c3.81,-18.86 23.23,-57.68 35.63,-70.58l2.8 -3.96 1.71 -4.08 -4.75 -8.3 -34.98 66.67c-13.65,27.24 -8.07,21.16 -2.44,26.04zm3.66 295.76c-16.09,-26.92 -26.72,-100.32 -28.36,-138.31 -1.17,-26.68 1.27,-53.62 4.55,-79.65 3.45,-27.29 11.01,-46.58 16.12,-70.42l-4.42 -10.92c-11.51,63.87 -25.01,72.87 -23.4,158.11 0.67,36.41 8.48,82.09 19.55,117.19 14.32,45.48 8.03,31.17 15.96,24zm42.96 77.79c-11.03,-10.61 -33.38,-48.49 -38.36,-67.7l-2.24 -5.61c-9.56,5.7 -3.64,13.09 1.63,23.64 3.92,7.84 26.92,52.49 32.84,52.6 3.73,0.08 -3.15,6.59 6.13,-2.93zm56.87 59.24l-3.61 -2.13 -3.69 -2.06 -2.8 -2.67 -0.82 -1.46 -3.32 -3.3 -3.42 -2.4 -3.12 -2.58 -3.03 -2.72 -2.98 -2.75 -2.9 -2.86 -2.76 -3 -2.72 -3.03 -2.61 -3.15 -2.56 -3.14 -6 -5.27c-6.3,-6.95 -1.84,-4.92 -12.07,-11.04 0.37,9.27 -1.48,3.51 3.4,10.72l19.67 23.56 24.36 19.37c12.26,6.95 2.53,7.45 10.98,-0.09zm211.46 17.66l-4.78 2.19c-20.27,17.6 -79.11,24.66 -109.7,20.79 -38.48,-4.87 -69.88,-19.68 -92.95,-37.71 -10.24,7.48 -12.72,1.95 11.86,16.01 9.65,5.51 14.67,8.37 24.58,13.07 33.34,15.81 89.29,22.33 124.05,11.51l56.56 -21.42 -9.62 -4.44zm14.57 -8.37l-3.89 2.49 -2.07 0.93 -3.36 1.62c6.99,5.91 -2.24,8.63 11.44,2.69 14.92,-6.47 2.23,-5.96 -2.12,-7.73zm23.53 -16.73l-3.48 2.26 -3.73 2.06 -3.5 3.26 -1.2 1.17 -3.06 2.15 -3.87 1.9 8.5 5.36 18.06 -16.13c0.42,-0.4 0.99,-1.02 1.41,-1.43 0.42,-0.39 1.03,-0.97 1.46,-1.36l23.06 -23.2c9.33,-10 4.55,-0.14 12.12,-19.08 -8.28,1.58 -0.61,-4.31 -12.3,10.56 -0.38,0.47 -0.85,1.18 -1.24,1.63 -0.37,0.44 -0.92,1.1 -1.3,1.52l-7.48 6.7c-13.06,11.97 -15.14,18.19 -23.45,22.63z"/>
  <path class="fil12" d="M8839.23 7240.37c16.55,16.37 27.38,26.9 53.01,39.28 9.12,3.18 77.47,18.24 86.64,18.23 42.73,0 82.77,-15.94 108.63,-36.31l51.72 -90.49c-28.55,25.55 -79.84,64.57 -123.48,82.14 -71.63,28.85 -130.91,-14.96 -176.52,-12.85z"/>
  <path class="fil12" d="M8612.84 6324.63l9.66 11.04c11.19,-8.24 5.27,-1.16 -4.21,-12.99 5.15,1.41 4.04,2.56 4.04,-2.57l-4.04 2.57c-6.25,-0.17 -3.4,-3.53 -5.45,1.95zm16.52 16.62c16.75,8.67 58.91,60.1 67,86.72l1.63 3.07c0.51,0.41 1.19,0.54 1.39,1.41 0.3,1.26 2.35,2.37 2.86,2.9l6.1 6.59c-4.47,-24.44 -59.21,-97.39 -73.46,-103.51 -11.23,-4.84 -2.28,-4.94 -9.06,0.74l3.54 2.08zm77.69 105.89c23.24,44.65 35.88,116.42 35.92,172.8 0.04,70.86 -13.01,114.25 -35.6,173.24l1.53 9.02c0.3,-0.58 0.69,-1.32 0.99,-1.91 8.79,-17.24 18.81,-47.16 23.73,-65.32 9,-33.14 13.37,-67.07 14.87,-103.51 2.9,-70.15 -9.9,-113.81 -31.01,-173.6 -4.38,-12.39 -4.53,-22.61 -10.43,-10.72zm-13.35 370.91c-7.58,21.9 -21.53,35.75 -34.91,52.35 -12.75,15.78 -25.32,30.22 -43.17,40.41l-3.56 2.03c-1.76,3.68 -0.12,5.28 2.33,7.54l11.39 -10.95c35.09,-28.3 41.37,-40.09 66.84,-77.47 12.77,-18.75 5.06,-14.48 2.89,-17l-1.81 3.09zm-89.57 101.13l-4.11 2.59c-27.86,23.52 -77.4,31.96 -119.58,30.86 -47.51,-1.25 -79.99,-23.96 -108.61,-41.95l-3.09 -3.39 -3.55 -2.23 -3.38 -2.37 -4.24 -4.44c-4.29,0.82 -3.33,1.76 -3.19,-2.51l-2.56 -3.16 -2.83 -2.99 -2.85 -2.85 -2.84 -2.95 -3.21 -2.55 -2.89 -2.88 -2.83 -2.96c-5.05,4.74 -2.36,5.15 4.41,12.53 27.36,29.85 71.05,56.76 112.83,66.62 68.59,16.21 102.62,-7.35 159.18,-33.27l-6.66 -2.1zm-276.25 -52.29l-2.28 -2.77 -2.58 -3.23c-3.27,3.77 -8.33,-3.41 -0.85,9.54 0.79,1.37 3.04,2.68 4.1,2.95 6.57,1.62 -2.2,4.49 5.24,-1.03l-3.63 -5.46zm-11.19 -14.35l-2.41 -3 -18.14 -21.95c1.24,7.27 1.26,6.91 5.67,14.17 18.15,29.85 13.13,20.42 17.99,15.97l-3.11 -5.19zm-19.52 -434.3c-3.64,-6.08 -1.14,-13.85 -12.95,11.19 -58.75,124.49 -61.43,254.58 -1.26,379.31 13.98,28.96 9.98,17.85 14.13,13.42 -11.79,-13.15 -29.92,-62.92 -36.82,-88.22 -9.93,-36.35 -14.93,-75.39 -14.9,-114 0.04,-65.97 20.94,-161.08 51.8,-201.7zm4.53 -8.57l0.48 -1.69 3.02 -3.71c2.23,-7.4 3.8,-8.09 8.53,-14.54l0.26 -8.27c-29.13,34.27 -15.52,30.16 -13.99,31.98l1.7 -3.77zm26.55 -37.06l2.47 -2.46c4.1,-9.09 7.62,-11.8 14.56,-17.87 9.27,-8.09 11.26,-5.46 12.48,-16.67 4.79,1.23 3.75,1.99 2.55,-2.86 4.96,1.19 3.8,2.25 3.8,-2.73 -5.83,-1.32 -5.15,-2.85 -3.8,2.73 -5.1,-1.24 -4.2,-2.14 -2.55,2.86 -0.55,0.47 -1.27,0.65 -1.51,1.56 -2.36,9.01 -18.49,-0.23 -31.19,6.12 -9.84,-0.19 -11.14,0.4 -19.15,4.41 -12.27,-0.66 -3.49,-0.46 -7.02,3.72 10.3,-1.54 6.03,0.26 7.02,-3.72l19.15 -4.41 18.96 0.01c-9.38,25.84 -28.95,21.21 -17.77,33.09l2 -3.78z"/>
  <path class="fil12" d="M8976.81 7100.31c38.34,11.76 115.14,-44.3 129.34,-110.6 8.34,-38.81 -5.39,-70.16 -24.03,-92.64l-77.33 -46.66c-8.73,27.55 11.31,13.21 51.11,52.64 17.22,17.04 34.46,44.28 27.75,81.04 -7.6,41.63 -42.83,75.67 -77.17,89.75 -21.12,8.66 -36.41,0.48 -29.67,26.47z"/>
  <path class="fil12" d="M7779.16 6795.34l-0.26 -13.32c-24.74,-20.97 -19.92,-6.13 -11.07,-94.95 -33.36,22.69 -40.05,147.11 11.33,108.27z"/>
  <path class="fil4" d="M8974.61 7884.87c-12.88,3.78 -20.67,10.02 -15.83,28.37 2.71,10.25 12.81,17.02 26.49,12.38 22.73,-7.72 13.48,-47.85 -10.66,-40.75z"/>
  <path class="fil4" d="M8991.53 7639.56c-29.13,9.46 -15.72,52.32 12.27,39.85 19.37,-8.63 13.68,-48.29 -12.27,-39.85z"/>
  <path class="fil4" d="M8999.22 8132.52l3.27 2.32 2.28 3.39 -2.94 7.95c-12.34,-24.62 -45,-10.41 -36,17.08 5.69,17.38 42.78,22.69 37.29,-16.3l5.48 -5.23 -3.83 -3.5 -2.28 -3.39 -3.27 -2.32 -3.45 -2.19 3.45 2.19z"/>
  <path class="fil4" d="M8963.07 8040.35c3.56,22.67 44.12,25.35 38.89,-8.52 -3.96,-25.71 -43.5,-21.03 -38.89,8.52z"/>
  <path class="fil4" d="M8993.28 7754.25c-33.29,-3.82 -33.44,32.56 -15.89,39.84 13.29,5.48 23.72,-2.84 26.67,-10.97 5.77,-15.99 -5.03,-22.5 -10.78,-28.87z"/>
  <path class="fil12" d="M8993.28 7754.25c5.75,6.37 16.55,12.88 10.78,28.87 -2.95,8.13 -13.38,16.45 -26.67,10.97 -17.55,-7.28 -17.4,-43.66 15.89,-39.84zm-14.37 -5.91c-34.23,10.13 -18.74,61.55 13.9,52.5 28.73,-7.98 22.15,-63.17 -13.9,-52.5z"/>
  <path class="fil12" d="M8963.07 8040.35c-4.61,-29.55 34.93,-34.23 38.89,-8.52 5.23,33.87 -35.33,31.19 -38.89,8.52zm10.7 -29.31c-33.33,16.17 -12.83,60.63 17.86,50.65 32.33,-10.5 15.2,-66.66 -17.86,-50.65z"/>
  <path class="fil12" d="M8991.53 7639.56c25.95,-8.44 31.64,31.22 12.27,39.85 -27.99,12.47 -41.4,-30.39 -12.27,-39.85zm-7.52 -3.74c-30.46,13.19 -9.05,64.99 24.69,48.33 24.68,-12.19 13.09,-64.67 -24.69,-48.33z"/>
  <path class="fil12" d="M9004.77 8138.23l-2.28 -3.39 -3.27 -2.32 -3.45 -2.19c-31.64,-11.09 -47.84,23 -31.75,43.04 16.24,20.24 50.53,9.28 44.58,-31.64l-5.48 5.23c5.49,38.99 -31.6,33.68 -37.29,16.3 -9,-27.49 23.66,-41.7 36,-17.08l2.94 -7.95z"/>
  <path class="fil12" d="M8974.61 7884.87c24.14,-7.1 33.39,33.03 10.66,40.75 -13.68,4.64 -23.78,-2.13 -26.49,-12.38 -4.84,-18.35 2.95,-24.59 15.83,-28.37zm-7.43 -3.92c-31.4,17.33 -10.12,60.92 20.26,50 32.82,-11.79 12.34,-67.97 -20.26,-50z"/>
 </g>
</svg>
